<?xml version="1.0" encoding="utf-8"?>
<!-- Generator: Adobe Illustrator 20.0.0, SVG Export Plug-In . SVG Version: 6.00 Build 0)  -->
<svg version="1.1" xmlns="http://www.w3.org/2000/svg" xmlns:xlink="http://www.w3.org/1999/xlink" x="0px" y="0px"
	 viewBox="0 0 424.6 179.5" style="enable-background:new 0 0 424.6 179.5;" xml:space="preserve">
<style type="text/css">
	.st0{fill:#FFFFFF;}
	.st1{fill:#BEAC83;}
	.st2{fill:#FFC423;}
	.st3{fill:#FE8A1E;}
	.st4{fill:#916F5D;}
	.st5{fill:#452F27;}
</style>
<g id="Слой_2">
	<path class="st0" d="M80.9,179.5c-1.4,0-2.7-0.4-3.8-1.1L30,156c-8.9-4.3-16.4-11-21.7-19.4c-5.3-8.4-8.1-18.1-8.1-28.1V7.4
		c0-4,3.3-7.3,7.3-7.3h146.7c4,0,7.3,3.3,7.3,7.3v101.1c0,9.9-2.8,19.6-8.1,28.1c-5.3,8.4-12.8,15.1-21.7,19.4l-47,22.4
		C83.6,179.1,82.2,179.5,80.9,179.5"/>
	<g>
		<polygon class="st1" points="124.7,31.9 124.7,19.1 123.7,19.7 82.2,44.6 80.8,44.6 80.8,44.6 80.8,117.7 80.8,117.7 137.4,103.7 
			137.4,29.8 		"/>
		<polygon class="st2" points="78.6,44.6 38.1,22.1 35.7,29.5 33.7,33.5 26.3,31.6 24.2,103.7 80.8,117.7 80.8,44.6 		"/>
		<g>
			<path class="st1" d="M90.9,143.4c0,0-5.2-26.6,31.2-24.6C122.1,118.7,115,152.4,90.9,143.4"/>
			<path class="st3" d="M75.2,150.7c0,0,1.8-22.1-25.2-22.3C50.1,128.5,50.1,154.8,75.2,150.7"/>
			<polygon class="st3" points="26.3,32.8 33.7,34.7 33.7,94.6 72.6,115.7 24.2,105.1 			"/>
			<polygon class="st4" points="92.9,114.5 126.4,94.7 126.4,32.8 138.3,31.2 137.4,104.9 			"/>
			<path class="st5" d="M154.2,5.1H7.5c-1.2,0-2.2,1-2.2,2.3v101.1c0,9,2.5,17.7,7.3,25.3c4.8,7.6,11.6,13.6,19.6,17.5l47.3,22.6
				c0.4,0.3,0.8,0.5,1.3,0.5c0.5,0,1-0.2,1.3-0.5l47.3-22.6c8.1-3.8,14.8-9.9,19.6-17.5c4.8-7.6,7.3-16.4,7.3-25.3V7.4
				C156.4,6.1,155.4,5.1,154.2,5.1 M149.5,9.6l-19.8,20L128,30v-5.1l15.2-15.3H149.5z M109.1,141.4c-2.5,2-8.7,2.4-13.3,2.4
				c-0.8,0-1.6,0-2.3,0l16.8-14c0.4-0.3,0.5-0.9,0.2-1.3c-0.3-0.4-0.9-0.5-1.4-0.2L91,141.2c0.9-4.2,3.2-12.8,6.3-15.2
				c4.2-3.3,23.7-6.1,23.7-6.1S113.3,138.1,109.1,141.4 M86.3,120.6l-3.3,3.3v-2.4L86.3,120.6z M83.1,115.9V46.2v-0.4l40.5-22.6v70
				L83.1,115.9z M87,120.4l8.4-2.2l-2.8,2.8l-9.5,9.6v-6.3L87,120.4z M92.6,121.5l3.4-3.4l8.4-2.2l-5.4,5.5
				c-1.5,0.6-2.8,1.2-3.7,1.9c-1.6,1.2-3,3.4-4.1,5.9l-8.1,8.2v-6.3L92.6,121.5z M114,113.5l8.4-2.2l-5.8,5.8
				c-2.2,0.4-4.9,0.9-7.7,1.5L114,113.5z M108.3,118.7c-3,0.7-6.1,1.5-8.6,2.4l5.3-5.3l8.4-2.2L108.3,118.7z M90.8,130.1
				c-1.3,3.1-2.2,6.5-2.9,9.2l-4.9,4.9v-6.3L90.8,130.1z M87.8,139.9c-0.3,1.3-0.5,2.3-0.6,3.1c-0.1,0.3-0.1,0.7,0,1l-4.1,3v-2.3
				L87.8,139.9z M89.7,146.8c0.2,0,0.3,0.1,0.5,0.1c0.1,0,1.4,0.1,3.4,0.2l-1,1l-9.5,9.6v-5.3L89.7,146.8z M92.6,148.6l1.5-1.5
				c0.5,0,1.1,0,1.7,0c1.7,0,3.3-0.1,4.7-0.2l-7.9,7.9l-9.5,9.6v-6.3L92.6,148.6z M120.5,116.5c-0.7,0.1-1.8,0.3-3.3,0.5l5.8-5.9
				l8.4-2.2l-8.2,8.3c-0.6-0.5-1.4-0.8-2.2-0.8C120.9,116.5,120.7,116.5,120.5,116.5 M97.2,113.1l29.7-16.6c0.7-0.4,1.2-1.2,1.2-2
				v-60l7.4-1.9v70.5L97.2,113.1z M142.8,9.6L128,24.5v-5.1c0-0.4-0.1-0.7-0.2-1l8.7-8.8H142.8z M136,9.6l-8.4,8.5
				c-0.2-0.3-0.4-0.5-0.7-0.7c-0.7-0.4-1.5-0.4-2.2,0l-6,3.3l11.1-11.1H136z M129.3,9.6l-11.7,11.7l-14,7.8l19.4-19.5H129.3z
				 M122.6,9.6l-20,20.1l-14,7.8l3.9-4l23.8-24H122.6z M109.2,9.6L92.6,26.3v0L78.4,40.6l-4-2.2L92.6,20l10.3-10.4H109.2z
				 M102.5,9.6l-9.9,9.9L74.1,38.2l-4-2.2l22.5-22.6l3.6-3.7H102.5z M95.7,9.6l-3.2,3.2l-22.8,23l-4-2.2L89.5,9.6H95.7z M89,9.6
				L65.5,33.3l-4-2.2L82.8,9.6H89z M82.3,9.6L61.2,30.9l-4-2.2L76.1,9.6H82.3z M75.6,9.6L56.8,28.5l-4-2.2L69.3,9.6H75.6z M68.9,9.6
				L52.5,26.1l-4-2.2L62.6,9.6H68.9z M62.2,9.6l-14,14.1l-4-2.2L55.9,9.6H62.2z M55.4,9.6L43.9,21.3l-4-2.2l9.4-9.4H55.4z M48.7,9.6
				l-9.2,9.3L37,17.4c-0.7-0.4-1.5-0.4-2.2,0c-0.1,0.1-0.2,0.2-0.3,0.2l8-8.1H48.7z M59.2,137.5l12.4,12c-3.3-0.1-10.1-0.6-12.4-2.7
				c-3.1-2.8-7.9-17.2-7.9-17.2s14.8,3.3,17.9,6.1c2.2,2,3.4,8.2,3.9,11.6l-12.9-10.9c-0.3-0.2-0.7-0.2-1,0.1
				C58.9,136.8,58.9,137.3,59.2,137.5 M59.2,128.1l9.2-9.3l5,1.3l-9.4,9.5C62.4,129.1,60.7,128.6,59.2,128.1 M58.8,128
				c-1.9-0.5-3.6-1-5-1.3l9.2-9.3l5,1.3L58.8,128z M26.3,103.3V32.8l7.4,1.9v60c0,0.8,0.4,1.6,1.2,2l29.7,16.6L26.3,103.3z
				 M29.5,28.9l-4.9-1.3c0,0,0,0,0,0l9.6-9.7c-0.3,0.4-0.5,0.9-0.5,1.4v5.4L29.5,28.9z M33.7,25.3V30l-3.7-1L33.7,25.3z M9.7,9.6
				h5.4L12,12.8L9.7,15V9.6z M9.7,15.5l2.2-2.3l3.6-3.7h6.2L12,19.6l-2.2,2.3V15.5z M9.7,22.3L12,20L22.3,9.6h6.2L12,26.3l-2.2,2.3
				V22.3z M9.7,29.1l2.2-2.3L29,9.6h6.2L12,33.1l-2.2,2.3V29.1z M9.7,35.8l2.2-2.3l23.8-24H42l-17.9,18c-0.5,0-1,0.1-1.5,0.5
				c-0.5,0.4-0.9,1.1-0.9,1.8V30L12,39.9l-2.2,2.3V35.8z M9.7,42.6l2.2-2.3l9.8-9.9v6.3L12,46.6l-2.2,2.3V42.6z M9.7,49.4l2.2-2.3
				l9.8-9.9v6.3L12,53.4l-2.2,2.3V49.4z M9.7,56.1l2.2-2.3l9.8-9.9v6.3L12,60.2l-2.2,2.3V56.1z M9.7,62.9l2.2-2.3l9.8-9.9V57
				L12,66.9l-2.2,2.3V62.9z M9.7,69.7l2.2-2.3l9.8-9.9v6.3L12,73.7l-2.2,2.3V69.7z M9.7,76.4l2.2-2.3l9.8-9.9v6.3L12,80.5l-2.2,2.3
				V76.4z M9.7,83.2l2.2-2.3l9.8-9.9v6.3L15.1,84L12,87.2v0l-2.2,2.3V83.2z M9.7,90l2.2-2.3l3.6-3.7l6.2-6.2v6.3L12,94l-2.2,2.3V90z
				 M9.7,96.7l2.2-2.3l9.8-9.9v6.3l-9.8,9.9L9.7,103V96.7z M9.7,108.5v-5l2.2-2.3l9.8-9.9v6.3l-9.8,9.9l-2.2,2.2
				C9.8,109.3,9.7,108.9,9.7,108.5 M9.8,110.2L12,108l9.8-9.9v6.3l-9.8,9.9l-1.6,1.6C10.1,114,9.9,112.1,9.8,110.2 M10.5,116.3
				l1.5-1.5l9.8-9.9v0.2c0,1,0.7,1.9,1.7,2.2l1.8,0.5L12,121.1l-0.3,0.3C11.2,119.7,10.8,118,10.5,116.3 M11.8,121.7l0.1-0.1
				l13.6-13.7l5,1.3l-17,17.2C12.9,124.7,12.3,123.2,11.8,121.7 M13.7,126.5L31,109.2l5,1.3l-20,20.2
				C15.1,129.3,14.4,127.9,13.7,126.5 M16.3,131.4c-0.1-0.2-0.2-0.3-0.3-0.5l20.2-20.4l5,1.3l-22.7,22.8
				C17.8,133.6,17.1,132.5,16.3,131.4 M18.8,134.9l22.8-23l5,1.3l-24.9,25.1C20.7,137.2,19.8,136.1,18.8,134.9 M22,138.5L47,113.3
				l5,1.3l-26.8,27C24.1,140.6,23,139.6,22,138.5 M25.5,141.7l26.9-27.1l5,1.3l-28.2,28.4C27.9,143.6,26.7,142.7,25.5,141.7
				 M29.4,144.6l28.3-28.5l5,1.3l-9.2,9.3c-0.5-0.1-1-0.2-1.4-0.3c-0.2-0.1-0.5-0.1-0.7-0.1c-0.9,0-1.9,0.4-2.5,1.1
				c-0.8,0.9-1.1,2.2-0.7,3.4c0.1,0.3,0.2,0.6,0.3,0.9l-15.1,15.2C32,146.2,30.7,145.4,29.4,144.6 M34.1,147.2
				c-0.1-0.1-0.3-0.1-0.4-0.2l14.9-15c0.4,1.2,1,2.8,1.7,4.6l-12.4,12.5L34.1,147.2z M38.2,149.2l12.2-12.3c0.6,1.4,1.2,3,1.8,4.4
				l-9.8,9.8L38.2,149.2z M42.8,151.4l9.6-9.7c0.7,1.5,1.4,2.9,2.1,4.2l-7.5,7.5L42.8,151.4z M47.4,153.6l7.3-7.4
				c0.8,1.4,1.6,2.5,2.4,3.2c0.1,0.1,0.3,0.2,0.4,0.3l-5.8,5.9L47.4,153.6z M51.9,155.7l5.8-5.8c1.2,0.8,2.7,1.4,4.4,1.9l-6,6
				L51.9,155.7z M56.5,157.9l6-6.1c1.8,0.4,3.6,0.7,5.4,0.9l-7.2,7.2L56.5,157.9z M61,160.1l7.3-7.3c2.2,0.2,4.1,0.2,5.1,0.2
				c0.4,0,0.7-0.1,1.1-0.2l-9.2,9.3L61,160.1z M65.6,162.2l9.4-9.5l3.2,3.1l-8.3,8.4L65.6,162.2z M78.6,168.4l-3.9-1.8l1.3-1.4h0
				l2.5-2.5V168.4z M78.6,162.2l-3,3l-1.2,1.2l-4.2-2l8.3-8.3l0.2,0.2V162.2z M78.6,151.9l-1.5-1.3l1.5-1.5V151.9z M78.6,148.7
				l-1.8,1.8l-0.1-0.1c0.1-0.4,0.1-0.7,0.1-1.1c-0.1-0.9-0.3-2.5-0.6-4.4l2.5-2.5V148.7z M78.6,141.9l-2.5,2.6
				c-0.3-1.6-0.7-3.3-1.3-5l3.8-3.8V141.9z M78.6,135.1l-3.9,3.9c-0.5-1.6-1.2-3.1-2-4.3l5.9-5.9V135.1z M78.6,128.4l-6.1,6.1
				c-0.3-0.5-0.7-0.9-1.1-1.3c-0.6-0.5-1.4-1-2.3-1.5l9.5-9.6V128.4z M78.6,121.6l-9.8,9.9c-1.3-0.6-2.8-1.2-4.5-1.8l9.5-9.5
				l4.8,1.2V121.6z M78.6,46.2v69.6L38.1,93.3v-70l40.5,22.6V46.2z M80.8,41.9l-2.1-1.2l13.8-13.9l17.1-17.2h6.2L92.6,33.1l-5,5
				L80.8,41.9z M83.1,168.4v-3.5l9.5-9.6l8.4-8.4c3.8-0.3,6.2-0.9,7.7-1.5l-16.1,16.2l-3.6,3.6h0l-0.7,0.7L83.1,168.4z M145.3,131.4
				c-4.3,6.9-10.5,12.3-17.7,15.8l-0.1,0l20.3-20.5C147.1,128.4,146.3,129.9,145.3,131.4 M148.3,125.9l-21.7,21.8l-11.9,5.7
				l36.4-36.6C150.5,119.8,149.6,122.9,148.3,125.9 M151.2,116.1l-37.4,37.7l-11.8,5.6l49.9-50.3
				C151.9,111.5,151.6,113.8,151.2,116.1 M151.9,108.5c0,0.1,0,0.1,0,0.2l-50.8,51.2l-11.9,5.6l0.3-0.3l3.1-3.1l17-17.1
				c0.8-0.4,1.3-0.8,1.6-1c1.1-0.8,2.2-2.3,3.4-4.1l37.4-37.6V108.5z M151.9,101.9l-36.5,36.8c2.5-4.1,5.1-9.3,6.8-13.1l29.7-29.9
				V101.9z M151.9,95.1l-29.3,29.5c0.7-1.6,1.2-2.8,1.5-3.5c0.5-1.1,0.3-2.4-0.4-3.4c-0.1-0.1-0.2-0.2-0.3-0.3l8.6-8.7l6.1-1.6
				c1-0.3,1.7-1.2,1.7-2.2V101l12.1-12.1V95.1z M151.9,88.3l-12.1,12.1v-6.3L149.9,84l2-2V88.3z M151.9,81.6l-2.4,2.5h0l-9.6,9.7
				v-6.3l3.4-3.4l8.7-8.8V81.6z M151.9,74.8l-9.2,9.2h0l-2.9,2.9v-6.3l12.1-12.1V74.8z M151.9,68l-12.1,12.1v-6.3l12.1-12.1V68z
				 M151.9,61.3l-12.1,12.1v-6.3L151.9,55V61.3z M151.9,54.5l-12.1,12.1v-6.3l12.1-12.1V54.5z M151.9,47.7l-12.1,12.1v-6.3
				l12.1-12.1V47.7z M151.9,41l-12.1,12.1v-6.3l12.1-12.1V41z M151.9,34.2l-12.1,12.1v-6.3l12.1-12.1V34.2z M151.9,27.5l-12.1,12.1
				v-6.3l12.1-12.1V27.5z M151.9,20.7l-12.1,12.1v-3c0-0.7-0.3-1.4-0.9-1.8c-0.1-0.1-0.3-0.2-0.4-0.2l13.3-13.4V20.7z M151.9,13.9
				l-13.7,13.8c-0.4-0.1-0.8-0.1-1.2,0l-6.8,1.7l19.7-19.8h2V13.9z"/>
		</g>
	</g>
</g>
<g id="Слой_1">
	<g>
		<g>
			<g>
				<path class="st0" d="M253,17c-0.1,2.8-0.2,5.6-0.4,8.4c-0.2,2.8-0.5,5.6-0.8,8.5h-2.9l-4.6-11.4h-24.6v27.5H238l4.4-7.7h2.8
					c0.5,6.9,0.5,13.9,0,21h-2.8l-4.4-7.9h-18.4v29h25.9l5.5-12.5h2.8c0.5,2.9,0.9,5.9,1.1,8.8c0.2,3,0.3,6,0.1,9h-55.6v-3
					c2.6-1.1,5.7-1.9,9.2-2.5V22.6c-1.5-0.3-3-0.6-4.6-1.1c-1.6-0.4-3.1-1-4.6-1.5v-3H253z"/>
			</g>
		</g>
		<g>
			<g>
				<path class="st0" d="M306.7,84.2c3.7,0.6,7.3,1.4,10.8,2.5v3h-30.9v-3c3-1.1,6.1-1.9,9.2-2.5V22.6c-1.5-0.3-3-0.6-4.6-1.1
					c-1.6-0.4-3.1-1-4.6-1.5v-3h52.8c0,1.4,0,3-0.1,4.8c-0.1,1.8-0.1,3.7-0.2,5.6c-0.1,1.9-0.2,3.8-0.3,5.7
					c-0.2,1.8-0.3,3.5-0.6,4.9h-2.9l-5.9-15.6h-22.7V84.2z"/>
			</g>
		</g>
		<g>
			<g>
				<path class="st0" d="M380.5,57.1c-0.4-1.4-0.6-2.8-0.6-4.1s0.2-2.7,0.6-4l32.8,0.1c-0.6-9.4-3.3-16.3-8.1-21
					c-4.8-4.6-11.4-7-19.7-7c-2.5,0-4.4,0.2-5.9,0.6c-1.5,0.4-2.5,0.9-3.1,1.4l-6,12.7h-3c-0.2-0.9-0.3-2-0.5-3.2
					c-0.2-1.2-0.3-2.6-0.4-3.9c-0.1-1.4-0.2-2.8-0.2-4.3c0-1.5-0.1-2.9-0.1-4.3c1.1-0.8,2.5-1.5,4.1-2c1.6-0.5,3.3-0.9,5-1.3
					c1.7-0.3,3.5-0.6,5.4-0.7c1.8-0.1,3.6-0.2,5.1-0.2c6.1,0,11.5,0.7,16.3,2.1c4.8,1.4,8.8,3.6,12.1,6.6c3.3,3,5.8,6.9,7.6,11.6
					c1.7,4.7,2.6,10.4,2.6,17.1c0,6.6-1.1,12.3-3.2,17.1c-2.1,4.7-4.9,8.6-8.4,11.7c-3.5,3.1-7.5,5.3-11.9,6.8
					c-4.5,1.5-9.1,2.2-13.9,2.2c-5,0-9.1-0.3-12.5-0.9c-3.3-0.6-6.3-1.5-9-2.6c0.1-1.1,0.2-2.4,0.3-4c0.1-1.6,0.2-3.1,0.4-4.8
					c0.1-1.6,0.3-3.2,0.5-4.8c0.2-1.6,0.4-3,0.5-4.4h2.9l5.9,15.2c0.8,0.4,2.2,0.7,4.2,0.8c2,0.1,3.9,0.2,5.7,0.2
					c3.4,0,6.7-0.7,9.9-2c3.2-1.3,6.1-3.3,8.7-5.9c2.6-2.6,4.6-5.9,6.2-9.9c1.6-3.9,2.4-8.5,2.4-13.8L380.5,57.1z"/>
			</g>
		</g>
	</g>
	<g>
		<g>
			<g>
				<path class="st0" d="M200.1,151.3v-1.5c1-0.4,2.6-0.9,4.6-1.2V118c-1.5-0.2-3-0.6-4.6-1.3v-1.5h14.2v1.5
					c-1.1,0.4-2.5,0.9-4.2,1.3v30.7h16.8V118c-0.7-0.1-1.4-0.3-2.1-0.5c-0.7-0.2-1.4-0.5-2.1-0.8v-1.5h14.2v1.5
					c-1.5,0.6-3,1-4.6,1.3v30.7h6.4c0,0.7,0,1.5-0.1,2.4c-0.1,0.9-0.2,1.9-0.3,2.8c-0.1,1-0.2,1.9-0.4,2.8c-0.1,0.9-0.3,1.7-0.4,2.4
					h-1.4l-2.4-7.8L200.1,151.3L200.1,151.3z"/>
			</g>
		</g>
		<g>
			<g>
				<path class="st0" d="M278.4,115.2c0,1.4-0.1,2.8-0.2,4.2c-0.1,1.4-0.2,2.8-0.4,4.2h-1.5l-2.3-5.7h-12.2v13.7h9.1l2.2-3.8h1.4
					c0.2,3.4,0.2,6.9,0,10.4h-1.4l-2.2-3.9h-9.1v14.4h12.9l2.7-6.2h1.4c0.3,1.4,0.4,2.9,0.6,4.4c0.1,1.5,0.1,3,0.1,4.5h-27.6v-1.5
					c1.3-0.5,2.8-1,4.6-1.2V118c-0.7-0.1-1.5-0.3-2.3-0.5c-0.8-0.2-1.6-0.5-2.3-0.7v-1.5L278.4,115.2L278.4,115.2z"/>
			</g>
		</g>
		<g>
			<g>
				<path class="st0" d="M309.2,151.3h-14.2v-1.5c1.5-0.5,3-1,4.6-1.2V118c-1.8-0.2-3.3-0.7-4.6-1.3v-1.5h14.2v1.5
					c-0.6,0.3-1.3,0.6-2,0.8c-0.7,0.2-1.4,0.4-2.2,0.5v13.5h17.6V118c-0.8-0.2-1.5-0.4-2.2-0.6c-0.7-0.2-1.4-0.5-2-0.7v-1.5h14.2
					v1.5c-0.7,0.3-1.4,0.6-2.2,0.8c-0.8,0.2-1.6,0.4-2.4,0.5v30.6c0.9,0.1,1.7,0.3,2.5,0.5c0.8,0.2,1.5,0.5,2.1,0.7v1.5h-14.2v-1.5
					c1.3-0.5,2.7-1,4.2-1.2v-14.5H305v14.5c0.7,0.1,1.5,0.3,2.2,0.5c0.7,0.2,1.4,0.5,2,0.7L309.2,151.3L309.2,151.3z"/>
			</g>
		</g>
		<g>
			<g>
				<path class="st0" d="M370.1,151.3h-15.7v-1.5c0.8-0.3,1.7-0.5,2.5-0.7c0.8-0.2,1.7-0.4,2.7-0.5v-30.7H351l-3,7.4h-1.4
					c-0.1-0.7-0.2-1.5-0.3-2.3c-0.1-0.9-0.1-1.8-0.2-2.7c-0.1-0.9-0.1-1.8-0.1-2.7c0-0.9-0.1-1.7-0.1-2.4h32.6c0,0.7,0,1.5-0.1,2.3
					c0,0.9-0.1,1.7-0.1,2.7c-0.1,0.9-0.1,1.8-0.2,2.7c-0.1,0.9-0.1,1.7-0.3,2.4h-1.5l-2.9-7.4h-8.5v30.7c1,0.2,1.9,0.3,2.7,0.5
					c0.8,0.2,1.7,0.4,2.4,0.7L370.1,151.3L370.1,151.3z"/>
			</g>
		</g>
		<g>
			<g>
				<path class="st0" d="M401.8,148.6c1,0.1,2,0.3,2.9,0.5c0.9,0.2,1.7,0.5,2.5,0.7v1.5h-15.4v-1.5c0.7-0.3,1.5-0.6,2.3-0.8
					c0.8-0.2,1.5-0.3,2.3-0.5V118c-0.9-0.1-1.7-0.3-2.4-0.5c-0.7-0.2-1.5-0.5-2.2-0.7v-1.5h5c1.5,0,3.1-0.1,4.9-0.2
					c1.8-0.1,3.4-0.2,5-0.2c1.8,0,3.6,0.2,5.4,0.5c1.8,0.4,3.3,1,4.7,1.8c1.4,0.9,2.5,2,3.3,3.4c0.8,1.4,1.3,3.2,1.3,5.3
					c0,2-0.4,3.8-1.3,5.2c-0.9,1.4-2,2.6-3.4,3.6c-1.4,0.9-3.1,1.6-4.9,2c-1.8,0.4-3.7,0.6-5.7,0.6c-0.2,0-0.5,0-0.9,0s-0.8,0-1.3,0
					c-0.5,0-0.9,0-1.3-0.1c-0.4,0-0.7-0.1-0.9-0.1L401.8,148.6L401.8,148.6z M405.6,117.4c-0.9,0-1.6,0-2.2,0.1
					c-0.6,0-1.1,0.1-1.6,0.2v16.7c0.2,0.1,0.5,0.1,0.8,0.1c0.4,0,0.7,0,1.1,0.1c0.4,0,0.8,0.1,1.1,0.1c0.4,0,0.7,0,0.9,0
					c1.3,0,2.5-0.2,3.7-0.5c1.2-0.3,2.2-0.9,3.1-1.6c0.9-0.7,1.6-1.6,2.1-2.7c0.5-1.1,0.8-2.4,0.8-4c0-2.8-0.9-4.9-2.6-6.4
					C411.1,118.1,408.7,117.4,405.6,117.4z"/>
			</g>
		</g>
	</g>
</g>
</svg>
