<?xml version="1.0" encoding="utf-8"?>
<!-- Generator: Adobe Illustrator 16.0.0, SVG Export Plug-In . SVG Version: 6.00 Build 0)  -->
<!DOCTYPE svg PUBLIC "-//W3C//DTD SVG 1.1//EN" "http://www.w3.org/Graphics/SVG/1.1/DTD/svg11.dtd">
<svg version="1.1" id="Layer_1" xmlns="http://www.w3.org/2000/svg" xmlns:xlink="http://www.w3.org/1999/xlink" x="0px" y="0px"
	 width="30px" viewBox="0 0 39.485 28.383" enable-background="new 0 0 39.485 28.383" xml:space="preserve">
<g>
	<path fill="#53ab53" d="M19.773,0C8.887,0,0.061,8.502,0.061,18.987c0,5.687,2.572,9.395,2.572,9.395l34.273,0.002
		c0,0,2.58-4.053,2.58-9.397C39.485,8.502,30.659,0,19.773,0z M35.459,26.07l-31.31-0.013c0,0-1.669-3.015-1.669-7.129
		c0-9.192,7.772-16.643,17.359-16.643c9.585,0,17.357,7.451,17.357,16.643C37.198,23.09,35.459,26.07,35.459,26.07z M25.343,5.042
		l-0.247,0l-5.258,9.83l-5.447-9.914L6.933,22.868H5.006v1.439h10.559v-1.439H13.47l2.095-5.598l4.273,7.038l4.106-7.038
		l2.095,5.598h-2.095v1.439h10.475v-1.439h-1.814L25.343,5.042z"/>
</g>
</svg>
