<?xml version="1.0" encoding="utf-8"?>
<!-- Generator: Adobe Illustrator 18.0.0, SVG Export Plug-In . SVG Version: 6.00 Build 0)  -->
<!DOCTYPE svg PUBLIC "-//W3C//DTD SVG 1.1//EN" "http://www.w3.org/Graphics/SVG/1.1/DTD/svg11.dtd">
<svg version="1.1" id="Layer_1" xmlns="http://www.w3.org/2000/svg" xmlns:xlink="http://www.w3.org/1999/xlink" x="0px" y="0px"
	 viewBox="18.5 176.5 575 439" enable-background="new 18.5 176.5 575 439" xml:space="preserve">
<g>
	<path d="M444.1,584.9h111.1c13.4,0,24.2-10.8,24.2-24.2V272.1c0.8-0.3,1.3-1.1,1.3-2v-8c0-0.9-0.5-1.6-1.3-2v-9.3
		c0.8-0.3,1.3-1.1,1.3-2v-8c0-0.9-0.5-1.6-1.3-2v-31.3c0-13.4-10.8-24.2-24.2-24.2H443.8c-0.3-0.8-1.1-1.3-2-1.3h-21.1
		c-0.9,0-1.6,0.5-2,1.3h-5.5c-13.4,0-24.2,10.8-24.2,24.2v198.1h11.6v-165c0-1.2,1-2.2,2.2-2.2h162.4c1.2,0,2.2,1,2.2,2.2v287.9
		c0,1.2-1,2.2-2.2,2.2h-121V584.9z M488.6,202.6c0,2-1.6,3.7-3.7,3.7c-2,0-3.7-1.6-3.7-3.7c0-2,1.6-3.7,3.7-3.7
		C486.9,198.9,488.6,200.6,488.6,202.6z M500,218.4c0,1.2-1,2.2-2.2,2.2h-27.5c-1.2,0-2.2-1-2.2-2.2s1-2.2,2.2-2.2h27.5
		C499,216.2,500,217.1,500,218.4z M463.6,556.7c0-10.5,8.6-19.1,19.1-19.1c10.5,0,19.1,8.6,19.1,19.1s-8.6,19.1-19.1,19.1
		C472.2,575.7,463.6,567.2,463.6,556.7z"/>
	<path d="M467.9,556.5c0,8.1,6.6,14.7,14.7,14.7c8.1,0,14.7-6.6,14.7-14.7c0-8.1-6.6-14.7-14.7-14.7S467.9,548.4,467.9,556.5z"/>
	<path d="M390.2,512.5c0,8.1,6.6,14.7,14.7,14.7s14.7-6.6,14.7-14.7c0-8.1-6.6-14.7-14.7-14.7S390.2,504.4,390.2,512.5z"/>
	<path d="M30.2,553.4v21.1c0,0.9,0.5,1.6,1.3,2v5.5c0,13.4,10.8,24.2,24.2,24.2h353.2c13.4,0,24.2-10.8,24.2-24.2V440
		c0-13.4-10.8-24.2-24.2-24.2H120.2c-0.3-0.8-1.1-1.3-2-1.3h-8c-0.9,0-1.6,0.5-2,1.3h-9.3c-0.3-0.8-1.1-1.3-2-1.3h-8
		c-0.9,0-1.6,0.5-2,1.3H55.7c-13.4,0-24.2,10.8-24.2,24.2v111.4C30.7,551.7,30.2,552.5,30.2,553.4z M385.7,512.5
		c0-10.5,8.6-19.1,19.1-19.1s19.1,8.6,19.1,19.1c0,10.5-8.6,19.1-19.1,19.1S385.7,523,385.7,512.5z M86.5,592.5V430.1
		c0-1.2,1-2.2,2.2-2.2h287.9c1.2,0,2.2,1,2.2,2.2v162.4c0,1.2-1,2.2-2.2,2.2H88.7C87.5,594.6,86.5,593.7,86.5,592.5L86.5,592.5z
		 M64.3,497.4c0-1.2,1-2.2,2.2-2.2s2.2,1,2.2,2.2v27.5c0,1.2-1,2.2-2.2,2.2s-2.2-1-2.2-2.2V497.4z M47.1,510.3c0-2,1.6-3.7,3.7-3.7
		c2,0,3.7,1.6,3.7,3.7c0,2-1.7,3.7-3.7,3.7C48.7,513.9,47.1,512.3,47.1,510.3z"/>
	<path d="M351.9,255.3l15.5,14.4l-14.3,15.5l-12.7,0.5l9.8-10.6c-43.3,4.6-74,25.7-91.3,62.8c-13.8,29.6-13.7,58.9-13.7,59.2l0,3.4
		h-8.8l0-3.2c0-1.3-0.3-31.3,14.3-62.8c13.1-28.2,41-62.4,99.7-68.3l-11.2-10.4L351.9,255.3z"/>
</g>
</svg>
