<?xml version="1.0" standalone="no"?>
<!DOCTYPE svg PUBLIC "-//W3C//DTD SVG 1.1//EN" "http://www.w3.org/Graphics/SVG/1.1/DTD/svg11.dtd" >
<svg xmlns="http://www.w3.org/2000/svg">
<metadata></metadata>
<defs>
<font id="franklingothicbookcmpcbook" horiz-adv-x="899" >
<font-face units-per-em="2048" ascent="1638" descent="-410" />
<missing-glyph horiz-adv-x="477" />
<glyph horiz-adv-x="2048" />
<glyph horiz-adv-x="2048" />
<glyph unicode="&#xd;" horiz-adv-x="477" />
<glyph unicode=" "  horiz-adv-x="477" />
<glyph unicode="&#x09;" horiz-adv-x="477" />
<glyph unicode="&#xa0;" horiz-adv-x="477" />
<glyph unicode="!" horiz-adv-x="583" d="M199 1405h186l-49 -1055h-92zM203 0v223h174v-223h-174z" />
<glyph unicode="&#x22;" horiz-adv-x="907" d="M238 1405h145l-16 -545h-113zM524 1405h146l-17 -545h-112z" />
<glyph unicode="#" d="M2 449l18 114h189l49 309h-188l18 119h191l65 414h125l-68 -414h189l65 414h125l-67 -414h184l-18 -119h-183l-49 -309h182l-18 -114h-182l-72 -449h-125l70 449h-185l-71 -449h-125l72 449h-191zM336 565l184 -2l51 309h-186z" />
<glyph unicode="$" d="M86 354l129 47q6 -31 18.5 -66.5t36 -69.5t58 -59.5t86.5 -33.5v496q-66 25 -116 54.5t-86 70.5t-54.5 96t-18.5 133q0 51 13.5 108.5t44 108.5t84 90t133.5 51v140h98v-138q123 -18 193.5 -80.5t101.5 -181.5l-123 -45q-10 27 -24.5 57.5t-36 56t-49 45t-62.5 23.5v-460 q76 -33 132 -64t94 -73t57.5 -98t19.5 -138q0 -90 -26.5 -159.5t-69.5 -117t-97.5 -73t-109.5 -29.5v-180h-98v178q-141 6 -216 91t-112 220zM279 1049q0 -90 34.5 -137.5t100.5 -82.5v428q-47 -6 -75 -34.5t-41 -62.5t-16 -65.5t-3 -45.5zM512 170q78 10 122 76.5t44 163.5 q0 92 -40 140t-126 87v-467z" />
<glyph unicode="%" horiz-adv-x="1437" d="M53 989q0 86 9.5 164t37 138.5t76.5 95t129 34.5q51 0 97.5 -21.5t81 -71.5t55 -133t20.5 -206q0 -145 -24.5 -231t-62.5 -133t-83 -61.5t-84 -14.5t-83 14.5t-82 61.5t-62.5 133t-24.5 231zM178 1004q0 -119 10.5 -190t29 -107.5t42 -48t47.5 -11.5q20 0 42 9.5t40.5 40 t30.5 90t12 161.5q0 133 -14.5 208t-36 112t-45 45t-41.5 8q-25 0 -45.5 -11.5t-36.5 -45t-25.5 -96t-9.5 -164.5zM358 0l603 1405h116l-602 -1405h-117zM877 426q0 139 23.5 224t60 131t81.5 61.5t88 15.5q23 0 65 -8t84 -50t73.5 -129t31.5 -245q0 -125 -19 -210t-53 -136 t-81 -72.5t-101 -21.5q-51 0 -97 21.5t-80.5 72.5t-55 135t-20.5 211zM1006 442q0 -106 8 -175.5t24.5 -109.5t40 -56.5t54.5 -16.5q37 0 60.5 24.5t37.5 61.5t20 78t6 71v66q-2 139 -14 215t-31.5 110.5t-43 41t-46.5 6.5q-25 0 -45 -8.5t-36.5 -41t-25.5 -95t-9 -171.5z " />
<glyph unicode="&#x26;" horiz-adv-x="972" d="M66 389q0 143 67.5 253t181.5 171q-51 104 -74.5 182t-23.5 144q0 43 12.5 93t42 95t76.5 75t115 30q35 0 79 -11.5t82 -43t64.5 -90t26.5 -152.5q0 -74 -20.5 -131.5t-53.5 -102.5t-73 -76.5t-79 -54.5q55 -117 89 -188.5t56.5 -116.5l37 -74t33.5 -61q18 33 33.5 68.5 t28.5 84.5t26.5 119t27.5 168l123 -33q-8 -125 -47 -266t-121 -270q23 -37 59.5 -55.5t65.5 -18.5q33 0 60 10v-137q-27 -10 -48.5 -14t-50.5 -4q-12 0 -32.5 2t-44 11t-49 29.5t-50.5 59.5q-25 -29 -57.5 -49.5t-69.5 -34.5t-73.5 -20.5t-67.5 -6.5q-57 0 -118.5 20.5 t-114 70t-86 129t-33.5 196.5zM219 391q0 -78 19.5 -132t49 -89t67.5 -51.5t75 -16.5q47 0 97.5 25t90.5 66q-53 106 -87.5 172.5t-61.5 119t-50 101.5t-52 119q-41 -39 -69 -73t-45 -70t-25.5 -77t-8.5 -94zM360 1149q0 -41 2.5 -65.5t10.5 -49t23 -60.5t42 -97 q78 53 111 115.5t33 144.5q0 29 -4.5 59.5t-16.5 55t-33.5 41t-54.5 16.5q-55 0 -84 -47.5t-29 -112.5z" />
<glyph unicode="'" horiz-adv-x="581" d="M219 1405h143l-16 -545h-110z" />
<glyph unicode="(" horiz-adv-x="540" d="M98 526q0 188 54.5 408.5t207.5 470.5h119q-80 -139 -125 -277.5t-66.5 -257t-25.5 -210t-4 -134.5q0 -133 14.5 -246.5t42 -219t69.5 -207t95 -205.5h-119q-135 221 -198.5 434t-63.5 444z" />
<glyph unicode=")" horiz-adv-x="540" d="M61 -352q127 223 174.5 450.5t47.5 427.5q0 205 -48.5 430.5t-173.5 448.5h121q68 -121 116 -225.5t81 -207t48 -211t15 -235.5q0 -225 -63.5 -444t-196.5 -434h-121z" />
<glyph unicode="*" horiz-adv-x="903" d="M141 932l224 106l-222 101l64 112l199 -135l-15 289h123l-16 -293l198 139l64 -112l-219 -101l221 -106l-62 -111l-202 135l16 -294h-123l15 294l-201 -133z" />
<glyph unicode="+" d="M80 639v127h303v307h135v-307h301v-127h-301v-307h-135v307h-303z" />
<glyph unicode="," horiz-adv-x="434" d="M102 -262l99 262h-72v227h180v-227l-116 -262h-91z" />
<glyph unicode="-" horiz-adv-x="505" d="M74 465v129h358v-129h-358z" />
<glyph unicode="." horiz-adv-x="434" d="M125 0v227h184v-227h-184z" />
<glyph unicode="/" horiz-adv-x="825" d="M10 -352l606 1757h125l-606 -1757h-125z" />
<glyph unicode="0" horiz-adv-x="901" d="M66 711q0 147 16 278t59 229.5t118 156t190 57.5q82 0 142 -33t103 -88.5t71 -129t43 -153.5t21.5 -162t6.5 -155q0 -215 -31 -356.5t-83 -226.5t-123 -120t-148 -35q-90 0 -162 42t-121 132.5t-75.5 229.5t-26.5 334zM227 737q0 -164 11.5 -283.5t38 -197.5t69.5 -116 t107 -38q45 0 85 24t70.5 84t48 164.5t17.5 268.5q0 96 -5 212t-29 215t-72 166t-134 67q-55 0 -92 -29t-59.5 -75t-34.5 -106.5t-16.5 -123t-4.5 -123v-109.5z" />
<glyph unicode="1" horiz-adv-x="905" d="M186 981v158q41 20 67 40.5t52 47.5q39 39 65.5 66.5t44 49t29 40t21.5 36.5h117v-1294h209v-125h-592v125h223v1061q-16 -23 -40 -53.5t-60 -61.5q-27 -23 -63 -46.5t-73 -43.5z" />
<glyph unicode="2" horiz-adv-x="901" d="M78 0v150q51 51 87 86.5t63.5 62.5t47 47.5t35.5 38.5q111 121 168.5 208t73.5 118q35 66 59.5 138.5t24.5 164.5q0 55 -14.5 118.5t-51.5 104.5q-33 37 -68.5 47t-62.5 10q-90 0 -143 -65q-23 -25 -37 -59.5t-23.5 -69.5t-13.5 -65.5t-6 -49.5l-139 39q6 86 42 176 t97 148q35 33 92.5 58.5t143.5 25.5q53 0 115.5 -17.5t121.5 -77.5q37 -37 58.5 -77.5t33 -81.5t14.5 -79t3 -69q0 -106 -25.5 -190t-79.5 -178q-66 -119 -127 -190t-121 -132q-25 -27 -46 -49.5t-44.5 -45t-49 -46t-60.5 -49.5h553v-150h-721z" />
<glyph unicode="3" horiz-adv-x="901" d="M66 313l135 41q4 -57 29.5 -114.5t70.5 -87.5q29 -20 71 -30.5t77 -10.5q53 0 94 21.5t69 55.5q20 27 32.5 56.5t19 57.5t8.5 48.5t2 30.5q0 109 -56 184q-10 14 -25 31.5t-40 32t-59.5 25t-81.5 10.5h-101v137h107q80 0 117.5 23.5t44.5 29.5q18 18 29.5 43t17.5 51.5 t8 53t2 49.5q0 53 -13.5 103t-41.5 83q-18 23 -52 40t-86 17q-47 0 -78.5 -15t-50.5 -32q-29 -29 -51 -77t-33 -97l-129 37q10 72 45 141.5t95 114.5q33 25 68.5 38t66.5 19.5t52.5 7.5t27.5 1q76 0 137 -28t102 -69q51 -53 76 -132t25 -148q0 -51 -13.5 -106.5 t-42.5 -102.5t-65.5 -69.5t-77.5 -33.5q59 -16 97 -43.5t61 -56.5q80 -102 80 -254q0 -94 -31 -172t-78 -127q-57 -59 -138 -88t-155 -29q-55 0 -114.5 16.5t-102.5 45.5t-71.5 66.5t-45 75.5t-24.5 75t-10 61z" />
<glyph unicode="4" d="M84 342v127l444 963h193v-963h149v-127h-149v-342h-156v342h-481zM227 469h338l10 819z" />
<glyph unicode="5" horiz-adv-x="901" d="M86 303l131 43q10 -47 38 -105.5t62 -86.5q23 -18 61 -30.5t66 -12.5q35 0 82 18t86 78q37 57 46.5 124.5t9.5 125.5q0 102 -14.5 162.5t-39.5 99.5q-53 86 -149 86q-45 0 -85 -16.5t-63 -45.5q-8 -8 -22 -32.5t-47 -94.5l-119 29l31 760h602l-10 -148h-461l-17 -448 q12 23 31 47.5t41 40.5q33 27 68 37t75 10q150 0 236 -102q39 -47 71.5 -136.5t32.5 -240.5q0 -31 -3 -77t-15 -99t-35.5 -106.5t-66.5 -98.5q-49 -53 -120 -82t-149 -29q-57 0 -111.5 17.5t-95.5 46.5q-33 25 -57 56.5t-42.5 67.5t-30 72.5t-17.5 69.5z" />
<glyph unicode="6" d="M84 651q0 152 14.5 260.5t36 185.5t47 124t47.5 75q63 80 136 108t139 28t117 -24t86 -54q41 -37 69.5 -92.5t42.5 -114.5l-133 -47q-4 16 -18.5 58t-34.5 71q-27 35 -61.5 50t-77.5 15q-51 0 -86 -19.5t-58.5 -48t-36 -60t-20.5 -56.5q-29 -92 -44.5 -200.5 t-12.5 -207.5q10 31 32.5 76t50.5 72q31 31 80.5 49.5t102.5 18.5t112.5 -23t112.5 -82q37 -43 59.5 -89t32.5 -93t13.5 -91t3.5 -81q0 -154 -37 -244t-84 -139q-43 -45 -106.5 -74t-141.5 -29q-102 0 -170 50.5t-109 111.5q-51 78 -77.5 201t-26.5 315zM264 449 q0 -72 15.5 -141.5t50.5 -117.5q35 -49 74.5 -64t74.5 -15q49 0 89 24.5t63 59.5q14 25 24.5 58.5t16.5 69t8 70.5t2 60q0 66 -13.5 137.5t-47.5 124.5q-31 45 -65 59t-75 14q-43 0 -79.5 -17t-69.5 -64q-35 -51 -51.5 -122t-16.5 -136z" />
<glyph unicode="7" horiz-adv-x="903" d="M129 1255l12 150h672v-107q-43 -74 -70.5 -123t-48.5 -90q-27 -55 -53.5 -126.5t-50 -144.5t-43 -142.5t-31.5 -122.5q-29 -119 -47 -265.5t-10 -283.5h-164q-2 121 18.5 266.5t48.5 272.5q35 154 80 274.5t111 249.5q37 72 62.5 114t54.5 78h-541z" />
<glyph unicode="8" d="M55 352q0 68 24.5 139.5t72.5 124.5q31 35 74.5 66t82.5 51q-43 18 -72.5 45t-58.5 68q-37 53 -53 102t-16 109q0 92 31.5 166.5t80.5 122.5q29 29 89.5 57.5t158.5 28.5q41 0 105.5 -15.5t125.5 -75.5q39 -39 69 -100t30 -156q0 -74 -20.5 -131t-59.5 -104 q-29 -35 -64.5 -60.5t-70.5 -41.5q43 -20 86 -50t71 -59q51 -53 77 -129t26 -143q0 -37 -7.5 -77t-21.5 -78t-33.5 -73t-44.5 -59q-43 -45 -116.5 -76t-176.5 -31q-61 0 -109 12.5t-82 28t-55.5 31.5t-29.5 25q-51 47 -82 122.5t-31 159.5zM213 367q0 -59 18.5 -108.5 t51.5 -82.5q66 -66 168 -65q53 0 101 20.5t81 52.5q39 41 50 86t11 88q0 49 -23.5 111.5t-95.5 118.5q-31 23 -68.5 42.5t-72.5 31.5q-39 -10 -73.5 -31t-69.5 -60q-37 -43 -57.5 -94t-20.5 -110zM260 1077q0 -61 20.5 -110t51.5 -82q23 -23 56.5 -44.5t66.5 -33.5 q41 18 82 45t63 53q20 23 41 64t21 106q0 45 -12.5 86t-37.5 70t-65.5 46t-85.5 17t-87 -17t-69 -50q-25 -29 -35 -70t-10 -80z" />
<glyph unicode="9" d="M61 950q0 43 6.5 90t19.5 94.5t33.5 91.5t49.5 81q39 47 101.5 86t160.5 39q74 0 137.5 -27t116.5 -94q66 -86 93.5 -221.5t27.5 -341.5q0 -154 -14.5 -266.5t-39 -193.5t-55 -133.5t-63.5 -84.5q-41 -41 -99.5 -69t-136.5 -28q-47 0 -105 17.5t-99 48.5q-47 35 -77 90 t-36 121l131 41q6 -37 22.5 -73t38.5 -58q25 -25 59 -37t66 -12q27 0 56.5 8t59.5 30.5t55.5 62.5t43.5 103q25 86 35 188.5t8 194.5q-12 -35 -32.5 -71.5t-42.5 -59.5q-35 -35 -86.5 -54t-96.5 -19q-61 0 -128.5 31.5t-116.5 97.5q-47 61 -70 149t-23 178zM217 954 q0 -68 15.5 -140.5t48.5 -113.5q23 -29 59.5 -49t79.5 -20q39 0 85 22.5t81 81.5q27 45 37 101.5t10 121.5q0 63 -13.5 139.5t-48.5 123.5q-23 29 -59.5 51t-85.5 22q-41 0 -78 -18.5t-61 -48.5q-37 -45 -53.5 -124t-16.5 -149z" />
<glyph unicode=":" horiz-adv-x="409" d="M102 0v229h185v-229h-185zM102 811v229h185v-229h-185z" />
<glyph unicode=";" horiz-adv-x="436" d="M102 -262l99 262h-72v227h180v-227l-116 -262h-91zM129 811v229h184v-229h-184z" />
<glyph unicode="&#x3c;" d="M63 645v127l773 428v-147l-615 -344l615 -344v-146z" />
<glyph unicode="=" d="M80 516v129h739v-129h-739zM80 760v129h739v-129h-739z" />
<glyph unicode="&#x3e;" d="M63 219v146l615 344l-615 344v145l773 -426v-127z" />
<glyph unicode="?" horiz-adv-x="868" d="M76 1020q2 41 15 110.5t50 136t104.5 116t180.5 49.5q102 0 169 -38t104.5 -95.5t53 -123t15.5 -122.5q0 -68 -18.5 -124.5t-46 -101.5t-61.5 -81.5t-64 -67.5q-41 -41 -65 -72t-36 -58.5t-15 -56t-3 -65.5v-76h-146v68q0 49 1 88t15.5 77t45.5 82t90 101 q25 23 49.5 50.5t44 61t32.5 77.5t13 100q0 68 -15.5 115t-41 76.5t-58 43t-65.5 13.5q-59 0 -96 -25t-59.5 -67t-35 -99t-20.5 -125zM297 0v223h176v-223h-176z" />
<glyph unicode="@" horiz-adv-x="1187" d="M70 657q0 150 32.5 290t101 249t173 173.5t246.5 64.5q125 0 216 -50.5t151.5 -133.5t89 -192.5t28.5 -226.5q0 -141 -23.5 -243.5t-62.5 -169t-86 -98t-96 -31.5q-43 0 -82 28.5t-51 94.5q-10 -59 -55.5 -95t-104.5 -36q-35 0 -71 16t-65.5 57t-48 107.5t-18.5 169.5 q0 113 21.5 197.5t58.5 141t85 85t101 28.5q35 0 60.5 -13t42 -33.5t26 -47t13.5 -53.5l18 129h109l-62 -436q-8 -59 -11 -90t-3 -58q0 -45 17.5 -60t33.5 -15q20 0 45 21.5t45.5 68.5t33.5 124.5t13 192.5q0 162 -40 263.5t-96 159.5t-119.5 79.5t-110.5 21.5 q-53 0 -126 -29.5t-139.5 -104.5t-113.5 -205t-47 -328q0 -127 31.5 -236.5t91 -189.5t144.5 -126t191 -46q70 0 140.5 19.5t132.5 60.5l39 -95q-53 -23 -89 -39t-69 -26t-68.5 -15.5t-89.5 -5.5q-125 0 -231.5 45t-185 133.5t-122.5 215.5t-44 292zM483 635q0 -35 1 -76 t9.5 -74.5t25 -56t44.5 -22.5q16 0 38 12t40 49t33.5 104.5t19.5 176.5q2 45 0 92q-2 43 -11 66.5t-21.5 35.5t-25 14t-20.5 2q-39 0 -64.5 -34.5t-40.5 -86t-21.5 -106.5t-6.5 -96z" />
<glyph unicode="A" horiz-adv-x="788" d="M-8 0l321 1405h168l316 -1405h-164l-88 401h-318l-84 -401h-151zM256 539h262l-129 700z" />
<glyph unicode="B" d="M137 0v1405h295q92 0 168 -18.5t129 -77.5q43 -47 63.5 -115t20.5 -137q0 -53 -10 -109.5t-33 -93.5q-16 -31 -50 -59.5t-83 -44.5q51 -16 92 -48t68 -71q35 -53 47 -112.5t12 -121.5q0 -113 -26.5 -189.5t-69.5 -119.5q-33 -33 -71 -51.5t-79 -26.5t-83 -9t-81 -1h-309z M297 137h152q16 0 39.5 1t49 5t50 15.5t43.5 29.5q18 18 29.5 45t19.5 58t11 61.5t3 55.5q0 57 -19.5 120.5t-60.5 98.5q-39 31 -89 36t-83 5h-145v-531zM297 805h131q41 0 91 8t85 43q18 18 27.5 41t14.5 47.5t6 47t1 38.5q0 49 -13 106.5t-58 92.5q-35 27 -77 33t-83 6 h-125v-463z" />
<glyph unicode="C" horiz-adv-x="864" d="M88 694q0 80 8 169t26.5 175t50.5 162t79 127q59 66 123.5 85.5t118.5 19.5q68 0 125 -20.5t106 -70.5q47 -47 76.5 -117.5t46.5 -181.5l-146 -34q-4 27 -10 59.5t-16 65t-24.5 62.5t-33.5 50q-29 33 -61.5 41t-54.5 8q-41 0 -77 -14t-65 -51q-35 -41 -55 -115 t-31.5 -154.5t-15.5 -159.5t-4 -130q0 -53 4 -118t13.5 -128.5t23.5 -118.5t35 -90q33 -57 79 -80.5t89 -23.5q23 0 56.5 9t66.5 44q20 23 34.5 52.5t24.5 60t15 59.5t7 49l146 -27q-6 -33 -17.5 -73.5t-27 -82.5t-37 -81t-49.5 -66q-31 -31 -85 -56.5t-136 -25.5 q-203 0 -308 174q-12 18 -28.5 57.5t-32.5 104t-27.5 159.5t-11.5 226z" />
<glyph unicode="D" horiz-adv-x="1009" d="M137 0v1405h234q150 0 245 -34t166 -130q37 -51 63.5 -117.5t44 -138.5t25 -142.5t7.5 -129.5q0 -57 -7.5 -124t-22.5 -134.5t-39 -133t-56 -120.5q-66 -111 -159 -156t-245 -45h-256zM297 137h111q63 0 110 15.5t80 43t55.5 63.5t38.5 77q39 92 51.5 184t12.5 191 q0 137 -18.5 226t-47.5 148q-29 61 -64.5 98.5t-74.5 55.5t-78 23.5t-76 5.5h-100v-1131z" />
<glyph unicode="E" horiz-adv-x="792" d="M137 0v1405h645v-137h-483v-469h373v-137h-373v-525h496v-137h-658z" />
<glyph unicode="F" horiz-adv-x="718" d="M137 0v1405h623v-137h-461v-475h379v-138h-379v-655h-162z" />
<glyph unicode="G" horiz-adv-x="972" d="M88 688q0 55 3 134t17.5 163t43 166t79.5 143q66 82 143 110t158 28q47 0 98.5 -11.5t102.5 -50.5q70 -53 101.5 -129t50.5 -180l-140 -47q-4 25 -11 55.5t-18 61t-25.5 59.5t-33.5 47q-27 27 -63.5 42t-75.5 15q-43 0 -85 -18.5t-71 -48.5q-12 -12 -30.5 -43 t-35.5 -93.5t-29.5 -164t-12.5 -254.5q0 -33 2 -89.5t9 -121t22.5 -128t42.5 -108.5q23 -39 49.5 -61.5t52 -34.5t48 -15t38.5 -3q35 0 85 21.5t91 88.5q47 78 54 162q4 64 4 133v43h-234v137h381v-716h-102l-29 174q-10 -23 -29.5 -53.5t-54.5 -59.5q-39 -33 -82 -50.5 t-102 -17.5q-68 0 -120 18.5t-92 48.5t-67.5 64.5t-44.5 65.5q-12 23 -27.5 60.5t-29 98t-22.5 148.5t-9 211z" />
<glyph unicode="H" horiz-adv-x="1009" d="M137 0v1405h160v-596h416v596h159v-1405h-159v672h-416v-672h-160z" />
<glyph unicode="I" horiz-adv-x="434" d="M137 0v1405h160v-1405h-160z" />
<glyph unicode="J" horiz-adv-x="577" d="M10 0v125q12 -4 41 -9t84 -5q18 0 57 5t68 36q8 10 16.5 28.5t14.5 53t10 90t4 141.5l-2 940h162v-944v-109.5t-6 -104.5t-20.5 -95.5t-43.5 -81.5q-27 -33 -56.5 -52.5t-59 -28.5t-56 -12.5t-45.5 -3.5q-74 0 -116 11.5t-52 15.5z" />
<glyph unicode="K" d="M137 0v1405h160v-707l391 707h176l-307 -512l381 -893h-178l-297 739l-166 -274v-465h-160z" />
<glyph unicode="L" horiz-adv-x="718" d="M137 0v1405h160v-1268h438v-137h-598z" />
<glyph unicode="M" horiz-adv-x="1261" d="M137 0v1405h215l279 -1143l284 1143h209v-1405h-155l12 1198l-299 -1198h-119l-293 1204l11 -1204h-144z" />
<glyph unicode="N" horiz-adv-x="1044" d="M137 0v1405h191l446 -1100l-8 1100h141v-1405h-155l-480 1202l7 -1202h-142z" />
<glyph unicode="O" horiz-adv-x="1009" d="M88 702q0 131 12.5 226.5t31 163t40 110.5t39.5 70q35 51 73 82.5t75.5 49t74.5 23t70 5.5t69.5 -5.5t76.5 -21.5t79 -48t76 -85q43 -63 66.5 -146.5t35 -165t13.5 -151.5t2 -107q0 -59 -5.5 -132.5t-18.5 -150.5t-37.5 -150.5t-63.5 -133.5q-35 -55 -72 -87t-75 -48 t-74.5 -21.5t-71.5 -5.5q-31 0 -68 5.5t-77 21.5t-79.5 48t-76.5 85q-18 27 -39 72t-37 112.5t-27.5 162.5t-11.5 222zM254 702q0 -59 4 -134.5t16.5 -150.5t33 -138.5t50.5 -100.5q23 -27 60 -47t86 -20q33 0 59.5 9t45 20.5t29.5 22.5l15 15q31 37 51.5 100.5t32 138.5 t15.5 150.5t4 134.5t-4 135t-15.5 151t-32 138.5t-51.5 100.5q-29 31 -67.5 49t-81.5 18q-49 0 -87 -20.5t-61 -46.5q-31 -37 -51 -100.5t-31.5 -138.5t-15.5 -150.5t-4 -135.5z" />
<glyph unicode="P" horiz-adv-x="831" d="M137 0v1405h275q39 0 81 -3t83.5 -14.5t80.5 -34t74 -61.5q47 -55 70.5 -139t23.5 -170q0 -66 -15 -132.5t-48 -119.5t-75 -85t-86 -48t-87 -21.5t-78 -5.5h-137v-571h-162zM299 709h131q29 0 74 6t84 41q71 65 71 223q0 74 -17 141.5t-58 102.5q-29 23 -72 34t-90 11 h-123v-559z" />
<glyph unicode="Q" horiz-adv-x="1009" d="M88 702q0 127 12.5 222.5t31 163t40 111.5t39.5 73q35 51 73 82.5t75.5 49t74.5 23t70 5.5q31 0 68.5 -5.5t77.5 -21.5t79 -48t76 -85q8 -14 27.5 -51t40 -104.5t35 -170t14.5 -244.5q0 -125 -13.5 -219t-33 -162.5t-41 -113.5t-37.5 -72q-39 -61 -81 -96t-102 -51 q-1 -20 -1 -37q0 -38 3 -57q5 -29 15 -46q10 -16 30.5 -32.5t67.5 -16.5q25 0 50.5 6.5t62.5 20.5v-133q-41 -16 -71 -20.5t-58 -4.5q-41 0 -93.5 12.5t-95.5 61.5q-43 51 -50 111.5t-11 121.5q-90 14 -151.5 51t-108.5 107q-39 57 -61.5 132t-35 153t-15.5 152.5t-3 131.5z M254 702q0 -16 2 -82.5t11 -149.5t30.5 -165t60.5 -127q27 -31 65 -49t85 -18t85 20.5t60 46.5q35 39 55.5 110.5t31 148.5t13.5 149.5t3 115.5t-3 116t-13.5 151t-31 147.5t-55.5 110.5q-29 31 -67.5 49t-81.5 18q-49 0 -87 -20.5t-61 -46.5q-35 -41 -55 -110.5 t-30.5 -147.5t-13.5 -151t-3 -116z" />
<glyph unicode="R" d="M137 0v1405h314q109 0 188.5 -26.5t136.5 -112.5q43 -66 55.5 -131.5t12.5 -118.5q0 -66 -10.5 -122t-40.5 -116q-29 -57 -63 -85.5t-79 -45.5l223 -647h-172l-204 614h-201v-614h-160zM297 752h156q45 0 86 7t82 50q39 41 49 97.5t10 105.5q0 16 -2 41.5t-8 54.5 t-19.5 56.5t-36.5 49.5q-37 35 -84 44.5t-88 9.5h-145v-516z" />
<glyph unicode="S" horiz-adv-x="864" d="M31 352l145 39q12 -61 41 -128.5t68 -100.5q27 -23 71.5 -37t85.5 -14q53 0 92 18t66 47q39 43 47 91t8 93q0 41 -6 79t-35 77q-29 41 -70.5 66.5t-84.5 48.5q-86 43 -149.5 73.5t-108.5 67.5q-68 57 -95.5 129t-27.5 152q0 92 28.5 163.5t71.5 114.5q49 51 116.5 76 t139.5 25q66 0 121 -20.5t96 -51.5q61 -47 98 -122t50 -148l-146 -35q-8 53 -30.5 104t-55.5 82q-18 16 -52 34.5t-87 18.5q-59 0 -96 -22.5t-56 -48.5q-20 -29 -32.5 -72t-12.5 -86q0 -61 20.5 -104t65.5 -78q12 -10 28.5 -19.5t39.5 -22t57.5 -29.5t83.5 -42 q51 -25 110.5 -57.5t100.5 -81.5q37 -43 60.5 -109.5t23.5 -148.5q0 -98 -30.5 -170t-75.5 -119q-53 -53 -126 -82t-155 -29q-59 0 -117.5 16.5t-107.5 49.5q-45 31 -77 71t-53.5 83t-32.5 83.5t-15 75.5z" />
<glyph unicode="T" horiz-adv-x="679" d="M-12 1268v137h704v-137h-274v-1268h-160v1268h-270z" />
<glyph unicode="U" horiz-adv-x="935" d="M113 346v78v981h159v-981q0 -61 3.5 -102t8.5 -70t12 -46.5t15 -29.5q18 -25 54 -45t102 -20q41 0 83 12t77 61q29 45 36 105.5t7 126.5v989h153v-981q0 -39 -1 -82t-7 -86t-21.5 -86t-45.5 -80q-31 -39 -69 -62.5t-77 -35.5t-74.5 -15.5t-64.5 -3.5q-119 0 -185.5 37 t-99.5 78q-27 35 -40 79t-19 90t-6 89z" />
<glyph unicode="V" horiz-adv-x="790" d="M-10 1405h170l241 -1194l238 1194h162l-320 -1405h-170z" />
<glyph unicode="W" horiz-adv-x="1220" d="M12 1405h160l178 -1112l201 1112h131l219 -1112l166 1112h143l-235 -1405h-156l-207 1081l-198 -1081h-154z" />
<glyph unicode="X" horiz-adv-x="788" d="M0 0l309 733l-270 672h172l188 -506l195 506h154l-273 -647l311 -758h-180l-223 584l-227 -584h-156z" />
<glyph unicode="Y" horiz-adv-x="753" d="M-25 1405h166l246 -651l240 651h151l-321 -811v-594h-160v594z" />
<glyph unicode="Z" horiz-adv-x="790" d="M37 0v145l522 1123h-496v137h678v-113l-532 -1147h543v-145h-715z" />
<glyph unicode="[" horiz-adv-x="583" d="M205 -352v1757h280v-111h-131v-1536h131v-110h-280z" />
<glyph unicode="\" horiz-adv-x="827" d="M84 1405h125l606 -1757h-125z" />
<glyph unicode="]" horiz-adv-x="581" d="M98 -242h129v1536h-129v111h279v-1757h-279v110z" />
<glyph unicode="^" horiz-adv-x="1054" d="M57 772l373 637h195l372 -637h-159l-312 520l-311 -520h-158z" />
<glyph unicode="_" horiz-adv-x="1054" d="M0 -139l1055 -2v-133h-1055v135z" />
<glyph unicode="`" horiz-adv-x="980" d="M233 1378l95 117l286 -268l-55 -68z" />
<glyph unicode="a" horiz-adv-x="829" d="M74 285q0 74 16 127t43 91t59.5 62.5t65.5 38.5q74 33 159 40q54 4 100 4q26 0 50 -1q1 27 1 51q0 60 -4 102q-5 60 -32 93q-12 16 -40.5 32.5t-81.5 16.5q-35 0 -72 -13.5t-66 -62.5q-6 -10 -16 -35.5t-20 -80.5l-136 34q10 55 35 108.5t60 88.5q53 55 117.5 69.5 t117.5 14.5q33 0 83 -8t97 -39q41 -27 63.5 -62.5t33 -81t11.5 -99.5t1 -116v-417v-110.5t14 -131.5h-131q-16 53 -19 91t-1 61q-10 -29 -32 -65t-46 -58q-37 -35 -78 -45.5t-78 -10.5q-84 0 -131 29t-70 51q-37 41 -55 100.5t-18 131.5zM229 268q0 -31 8.5 -67.5 t30.5 -61.5q18 -20 46 -30.5t51 -10.5q35 0 76.5 18.5t76.5 78.5q35 61 43 143q6 66 6 144v40q-32 2 -62 2q-55 0 -103 -7q-76 -11 -121 -64q-27 -31 -39.5 -83.5t-12.5 -101.5z" />
<glyph unicode="b" horiz-adv-x="868" d="M127 0v1405h147v-514q10 31 29 61.5t41 53.5q35 35 72 43t69 8q49 0 108.5 -19.5t111.5 -91.5q31 -41 48 -98t26 -115.5t12.5 -113t3.5 -91.5q0 -102 -12.5 -178t-27 -125t-28.5 -75.5t-16 -30.5q-39 -61 -102.5 -99t-139.5 -38q-39 0 -80 11t-78 40q-29 23 -45 46 t-24 48l-35 -127h-80zM274 397q0 -25 1 -56.5t7.5 -64t18.5 -65.5t37 -59q43 -49 104 -50q41 0 80 25t64 72q12 25 21 66.5t15.5 88.5t8.5 95.5t2 85.5q0 29 -1 63.5t-4 68t-7.5 64.5t-8.5 51q-12 53 -31.5 84t-42 46.5t-44 18.5t-35.5 3q-41 0 -69 -17.5t-47 -43t-29.5 -52 t-16.5 -45.5q-16 -53 -19.5 -103t-3.5 -98v-178z" />
<glyph unicode="c" horiz-adv-x="755" d="M74 502q0 113 12 193.5t30.5 137t40 91t42.5 57.5q55 57 110.5 70.5t100.5 13.5t96 -11.5t98 -58.5q45 -43 74 -116.5t37 -149.5l-137 -29q-2 25 -7.5 52.5t-13.5 54.5t-19.5 49.5t-23.5 36.5q-16 20 -45 34.5t-61 14.5q-39 0 -69 -17.5t-48 -43.5q-10 -12 -19.5 -36 t-17.5 -63t-13 -95t-5 -136q0 -160 9 -252t44 -139q18 -25 48 -43.5t66 -18.5q33 0 67 14.5t58 51.5q20 31 32.5 79t17.5 93l137 -17q-6 -72 -35 -148.5t-70 -119.5q-25 -27 -74 -52.5t-128 -25.5q-72 0 -132.5 28t-99.5 71q-18 20 -36.5 53t-33 83t-23.5 122.5t-9 171.5z " />
<glyph unicode="d" horiz-adv-x="866" d="M74 498q0 111 13 190.5t31.5 132.5t37 84t28.5 43q45 57 98.5 83t116.5 26q25 0 63 -7.5t73 -37.5q20 -18 34.5 -43t22.5 -47v483h147v-1405h-127v135q-10 -25 -27.5 -53.5t-39.5 -46.5q-33 -27 -78 -40t-82 -13q-31 0 -62.5 6t-62.5 22.5t-60.5 45t-54.5 73.5 q-25 43 -38 91t-21 97.5t-10 96.5t-2 84zM236 532q0 -18 1 -63t7 -99.5t18 -108.5t35 -89q29 -43 62.5 -54.5t56.5 -11.5q29 0 63.5 14.5t57.5 39.5q27 31 42 90t15 131l-2 278q-2 111 -27.5 164.5t-48.5 71.5q-18 16 -45 27.5t-55 11.5q-29 0 -61.5 -13.5t-61.5 -56.5 q-6 -10 -16.5 -31.5t-19.5 -60.5t-15 -97.5t-6 -142.5z" />
<glyph unicode="e" horiz-adv-x="794" d="M74 504q0 57 5 118.5t18.5 120t35 111.5t51.5 94q57 76 116.5 96.5t113.5 20.5q53 0 115.5 -18.5t119.5 -85.5q51 -61 80 -169q25 -95 25 -245v-43l-527 -2q0 -33 2 -78t8.5 -90t17.5 -87t30 -69q27 -39 67.5 -59.5t83.5 -20.5q29 0 59.5 12.5t53.5 36.5q23 27 40 77 t25 83l127 -35q-6 -29 -19 -69.5t-38 -83.5q-51 -90 -117.5 -118t-142.5 -28q-78 0 -142.5 28t-117.5 105q-31 43 -48.5 96.5t-26.5 106.5t-12 103.5t-3 91.5zM231 623h361q-4 106 -14.5 161.5t-30.5 85.5q-20 33 -55 52.5t-78 19.5q-33 0 -68 -17.5t-63 -62.5 q-25 -41 -34 -99t-18 -140z" />
<glyph unicode="f" horiz-adv-x="430" d="M4 920v120h131v84q0 102 12.5 148.5t22.5 62.5q25 41 75 69t122 28q16 0 50 -2.5t68 -10.5v-125q-37 12 -79 13q-49 0 -75 -18.5t-36 -45.5q-6 -12 -9 -37.5t-3 -81.5v-84h161v-120h-161v-920h-148v920h-131z" />
<glyph unicode="g" horiz-adv-x="751" d="M51 -133q0 41 11.5 77t41.5 70q20 23 44 39.5t38 24.5q-10 6 -31.5 21.5t-39.5 43.5q-16 23 -25.5 48.5t-9.5 58.5q0 72 43 123q33 39 80 59q-53 47 -79 124t-26 155q0 70 21.5 141.5t68.5 124.5q43 49 96.5 68.5t112.5 19.5q66 0 94.5 -15.5t43.5 -27.5q0 29 9 63.5 t27 57.5q25 29 75 46q31 11 66 11q21 0 42 -4v-131q-14 2 -33 2t-35 -4q-39 -10 -52 -41t-16 -78q20 -23 35 -54.5t23 -67.5t12 -70.5t4 -61.5q0 -59 -20.5 -125.5t-57.5 -113.5q-29 -35 -85 -68t-144 -33q-41 0 -60.5 4t-35.5 13q-31 -6 -52.5 -36t-21.5 -61 q0 -41 21.5 -60.5t46.5 -29.5q37 -16 76.5 -19t86.5 -7q47 -2 94.5 -5.5t88.5 -19.5q25 -10 50.5 -26.5t47 -44t34.5 -66.5t13 -94q0 -53 -15.5 -104.5t-64.5 -98.5q-53 -47 -132 -70.5t-163 -23.5q-76 0 -145.5 18.5t-118.5 58.5q-49 41 -66.5 88.5t-17.5 100.5zM199 -106 q0 -41 17 -75t46 -55q27 -18 66 -28t80 -10q43 0 87 8t72 30q23 16 41.5 49t18.5 81q0 37 -14.5 60t-36 36.5t-47 19.5t-50.5 10q-20 2 -49 5.5t-58.5 5.5t-56.5 4t-45 2q-29 -20 -50 -56t-21 -87zM250 702q0 -45 10 -98t35 -84q10 -14 33.5 -30.5t64.5 -16.5q39 0 69 16.5 t50 55.5t23.5 83t3.5 81q0 12 -1 36.5t-6.5 52t-14.5 55.5t-25 48q-6 8 -29 24.5t-66 16.5q-35 0 -64.5 -16.5t-49.5 -53.5q-16 -29 -24.5 -76.5t-8.5 -93.5z" />
<glyph unicode="h" horiz-adv-x="829" d="M127 0v1405h145v-506q10 37 27.5 63.5t34.5 43.5q35 35 69.5 47t77.5 12q39 0 80 -11.5t78 -47.5q59 -59 68.5 -150.5t9.5 -206.5v-649h-146v649q0 111 -7 152t-11 53q-29 80 -113 80q-41 0 -65.5 -15.5t-46.5 -46.5q-37 -53 -46.5 -129.5t-9.5 -175.5v-567h-145z" />
<glyph unicode="i" horiz-adv-x="399" d="M121 1225v180h158v-180h-158zM127 0v1040h145v-1040h-145z" />
<glyph unicode="j" horiz-adv-x="395" d="M-61 -233h71q23 0 49.5 4t44.5 32q12 18 15.5 52t3.5 114v1071h145v-1077q0 -39 -1 -81t-7 -81t-21.5 -72.5t-43.5 -56.5q-39 -31 -89.5 -34t-85.5 -3h-81v132zM117 1227v178h157v-178h-157z" />
<glyph unicode="k" horiz-adv-x="755" d="M127 0v1405h147v-877l287 512h154l-228 -385l261 -655h-175l-180 510l-119 -188v-322h-147z" />
<glyph unicode="l" horiz-adv-x="399" d="M127 0v1405h145v-1405h-145z" />
<glyph unicode="m" horiz-adv-x="1261" d="M127 0v1040h135v-168q12 51 33.5 83t34.5 46q37 41 73.5 52.5t85.5 11.5q39 0 76 -11.5t72 -56.5q23 -29 35 -65.5t16 -71.5q10 55 31.5 90t38.5 51q39 41 74.5 52.5t76.5 11.5q45 0 82 -11.5t74 -45.5q61 -59 72.5 -141.5t11.5 -180.5v-686h-148l3 680q0 12 -1.5 38.5 t-4.5 57.5t-10 60.5t-19 48.5q-10 16 -33 32.5t-64 16.5q-68 0 -110 -64q-33 -49 -42 -120.5t-9 -182.5v-567h-146v653q0 84 -4 134.5t-20 84.5q-31 61 -99 62q-29 0 -65.5 -14.5t-65.5 -65.5q-4 -10 -20.5 -55t-16.5 -137v-662h-147z" />
<glyph unicode="n" horiz-adv-x="831" d="M127 0v1040h135v-159q12 41 34.5 74.5t49.5 56.5q37 33 73 43t70 10q39 0 85.5 -11.5t82.5 -56.5q45 -53 53.5 -142t8.5 -196v-659h-146v659q0 96 -6 139.5t-16 63.5q-18 41 -47 56.5t-62 15.5q-41 0 -69.5 -18.5t-48.5 -53.5q-12 -18 -32 -77.5t-20 -186.5v-598h-145z " />
<glyph unicode="o" horiz-adv-x="831" d="M74 520q0 49 5 109.5t19.5 121t38 117t60.5 99.5q41 47 94 72.5t125 25.5t125 -25.5t94 -72.5q37 -43 60.5 -99.5t38 -117t19.5 -121t5 -109.5q0 -61 -7.5 -125.5t-22.5 -124t-37.5 -110.5t-55.5 -88q-39 -43 -95.5 -71t-123.5 -28q-68 0 -124 28t-95 71q-33 37 -55.5 88 t-38 110.5t-22.5 124t-7 125.5zM236 520q0 -31 2 -70.5t5 -79.5t9 -77t14 -66q12 -41 31.5 -66.5t40 -40t41 -18.5t37.5 -4q14 0 35.5 4t42 18.5t40 40t31.5 66.5q8 29 14.5 66t9.5 77t5 79.5t2 70.5q0 33 -2 73t-6 80t-9.5 76.5t-13.5 63.5q-14 45 -35.5 70.5t-43 39 t-41 16.5t-29.5 3t-29.5 -3t-41 -16.5t-43 -39t-36.5 -70.5q-8 -27 -13 -63.5t-9 -76.5t-6 -80t-2 -73z" />
<glyph unicode="p" horiz-adv-x="868" d="M127 -352v1392h137v-172q8 35 25.5 69t44.5 60q39 39 79 49.5t74 10.5q76 0 127.5 -31t87.5 -84q27 -41 45.5 -92t28.5 -106.5t14.5 -110.5t4.5 -101q0 -43 -3.5 -95t-11.5 -105t-22.5 -103.5t-34.5 -89.5q-47 -90 -111.5 -123.5t-132.5 -33.5q-63 0 -99 19t-44 26 q-16 14 -33.5 34.5t-28.5 44.5v-458h-147zM274 414q0 -63 7.5 -127t42.5 -113q27 -39 57.5 -53.5t69.5 -14.5q53 0 88.5 26t52.5 58q12 20 19 62.5t12.5 90.5t7.5 95t2 82q0 29 -1 73t-6 91t-15.5 93t-28.5 79q-41 78 -121 78q-51 0 -82 -22.5t-45 -41.5 q-16 -23 -27.5 -53.5t-18.5 -67t-10.5 -74.5t-3.5 -73v-188z" />
<glyph unicode="q" horiz-adv-x="866" d="M74 508q0 47 4 101.5t14 108.5t29.5 106.5t50.5 99.5q43 66 100.5 99.5t143.5 33.5q41 0 74.5 -11.5t68.5 -41.5q29 -25 42 -51.5t20 -49.5l41 150h77v-1405h-147v473q-12 -29 -29.5 -50.5t-34.5 -37.5q-33 -29 -64.5 -40t-70.5 -11q-20 0 -50 4t-61.5 17t-64.5 40 t-61 72q-29 43 -45.5 96t-24.5 107.5t-10 103.5t-2 86zM236 518q0 -90 7 -151.5t16 -101.5t20.5 -61.5t17.5 -29.5q23 -35 55.5 -51.5t63.5 -16.5q35 0 69.5 18.5t57.5 47.5q27 35 38 92.5t11 120.5v317q0 41 -8.5 86.5t-44.5 90.5q-23 29 -48.5 42t-66.5 13 q-47 0 -77 -21.5t-52 -56.5q-20 -35 -32.5 -82t-18.5 -96t-7 -92t-1 -68z" />
<glyph unicode="r" horiz-adv-x="505" d="M127 0v1040h135v-206q6 31 20.5 67.5t43.5 75.5q27 37 59.5 59.5t87.5 22.5q33 0 49 -4v-164q-4 2 -18.5 3t-26.5 1q-49 0 -87 -22.5t-60 -55.5q-25 -33 -36 -71.5t-15.5 -81.5t-4.5 -87.5v-87.5v-489h-147z" />
<glyph unicode="s" horiz-adv-x="684" d="M27 264l129 35q4 -41 21.5 -85t45.5 -71q23 -20 55.5 -32.5t71.5 -12.5q47 0 77 16.5t44 35.5q35 41 35 108q0 45 -12.5 77t-47.5 60q-35 31 -81 54.5t-105 52.5q-33 16 -67.5 38.5t-64.5 54.5t-48.5 78t-18.5 107q0 59 22.5 118.5t68.5 100.5q47 43 96 54.5t96 11.5 t95 -10.5t98 -53.5q43 -39 62 -84t36 -112l-127 -35q-4 31 -19.5 72t-44.5 65q-16 16 -42.5 25.5t-55.5 9.5q-41 0 -68.5 -15.5t-44.5 -35.5q-18 -25 -23 -48.5t-5 -43.5q0 -41 12 -73t49 -60q27 -23 61.5 -39.5t82.5 -40.5q57 -31 89.5 -49.5t57.5 -38.5 q59 -47 79.5 -102.5t20.5 -116.5q0 -72 -22.5 -129.5t-56.5 -92.5q-37 -39 -95.5 -61.5t-130.5 -22.5q-66 0 -114 15.5t-79.5 38t-51 45t-27.5 39.5q-23 35 -36 75.5t-17 77.5z" />
<glyph unicode="t" horiz-adv-x="505" d="M41 920v120h117v260l147 19v-279h176v-120h-176v-566v-67.5t5 -60t18.5 -48t40.5 -31.5q13 -4 43 -8q9 -1 20 -1q29 0 78 7v-129q-10 -4 -39 -12t-88 -8q-70 0 -114 24.5t-66 55.5q-31 41 -38 109.5t-7 168.5v566h-117z" />
<glyph unicode="u" horiz-adv-x="831" d="M113 342v698h145v-706q0 -61 3 -103.5t20 -70.5q12 -18 38.5 -36t69.5 -18q18 0 39 4.5t41 16.5t38.5 33.5t29.5 56.5q8 25 15 71t7 81v671h146v-1040h-136v125q-10 -29 -26.5 -50.5t-40.5 -43.5q-33 -29 -68 -43.5t-86 -14.5q-47 0 -94 15.5t-80 50.5q-51 53 -56 130 t-5 173z" />
<glyph unicode="v" horiz-adv-x="647" d="M0 1040h152l180 -860l172 860h143l-246 -1040h-155z" />
<glyph unicode="w" horiz-adv-x="968" d="M4 1040h148l135 -776l141 776h123l147 -776l140 776h127l-209 -1040h-125l-150 770l-135 -770h-129z" />
<glyph unicode="x" horiz-adv-x="647" d="M4 0l244 551l-217 489h157l142 -360l133 360h141l-205 -489l244 -551h-158l-168 416l-163 -416h-150z" />
<glyph unicode="y" horiz-adv-x="612" d="M-8 1040h149l170 -718l178 718h132l-297 -1140q-29 -111 -54.5 -157t-42.5 -62q-16 -16 -49 -36t-88 -20q-23 0 -43 4t-41 11v127q8 -4 28.5 -9.5t47.5 -5.5q39 0 54.5 16.5t27.5 51.5q14 39 21.5 67.5t15.5 61.5l39 157z" />
<glyph unicode="z" horiz-adv-x="647" d="M49 0v121l375 794h-346v125h520v-86l-389 -829h389v-125h-549z" />
<glyph unicode="{" horiz-adv-x="542" d="M92 463v129q41 0 61.5 19.5t28.5 51t8 68.5v70v307q0 168 61.5 240.5t205.5 56.5v-109q-41 0 -65.5 -9t-37 -31.5t-15.5 -56.5t-3 -83v-321q0 -41 2 -82t-6 -77t-30.5 -63.5t-72.5 -44.5q45 -14 67.5 -40.5t32 -62.5t8.5 -79t-1 -88v-317q0 -43 3 -77t14.5 -57.5t36 -36 t67.5 -12.5v-108q-145 -16 -206 55.5t-61 243.5v303v73.5t-8 67.5t-28.5 50.5t-61.5 19.5z" />
<glyph unicode="|" horiz-adv-x="1071" d="M463 -352v1757h145v-1757h-145z" />
<glyph unicode="}" horiz-adv-x="540" d="M86 -242q49 0 73.5 17.5t35 43t11.5 58.5t1 64v317v95t9 78t30.5 58.5t64.5 38.5q-47 14 -68.5 41t-29.5 62t-7 76t1 88v321q0 39 -2 72t-12.5 57.5t-36 37.5t-70.5 13v109q92 10 145.5 -15.5t80 -69.5t32.5 -101.5t6 -110.5v-307q0 -45 2 -83t11.5 -65.5t29 -44 t56.5 -16.5v-129q-41 0 -60.5 -19.5t-29 -49t-9.5 -67.5v-75v-303q0 -61 -8 -119.5t-34.5 -101.5t-80 -65.5t-141.5 -12.5v108z" />
<glyph unicode="~" horiz-adv-x="1413" d="M201 1286q25 51 51.5 95t61 77t76.5 51.5t97 18.5q47 0 103.5 -19.5t134.5 -54.5q66 -31 112 -50.5t95 -19.5q39 0 69.5 14.5t53 36t40 47t27.5 50.5l90 -55q-53 -109 -129.5 -170.5t-195.5 -61.5q-53 0 -106.5 21.5t-104.5 48t-98.5 48t-90.5 21.5q-76 0 -117.5 -44 t-80.5 -109z" />
<glyph unicode="&#xa3;" horiz-adv-x="901" d="M20 0v133q96 2 156 28.5t91.5 68.5t41.5 95.5t10 110.5q0 31 -2 57.5t-5 53t-7 55.5t-8 66h-182v114h168q-16 102 -22.5 158.5t-6.5 83.5q0 125 34 203t84 122t105 60t98 16q51 0 90.5 -11t70 -33.5t56 -57.5t54.5 -82l-111 -74q-29 53 -67.5 84t-104.5 31 q-43 0 -72.5 -17.5t-46 -48t-23.5 -70.5t-7 -85q0 -18 1 -41t4 -54.5t8 -76.5t13 -107h236v-114h-221q6 -33 10 -77t4 -71q0 -43 -7 -98t-24.5 -110.5t-47.5 -103.5t-77 -75h160q53 0 97 5t81 21.5t64.5 47.5t46.5 80l98 -72q-37 -80 -81 -124t-94 -63.5t-107.5 -23.5 t-120.5 -4h-437z" />
<glyph unicode="&#xa8;" horiz-adv-x="980" d="M270 1229v172h152v-172h-152zM555 1229v172h152v-172h-152z" />
<glyph unicode="&#xa9;" horiz-adv-x="1646" d="M88 702q0 150 57.5 283t157.5 233.5t234.5 158t285.5 57.5q152 0 286 -57.5t233.5 -158t158 -233.5t58.5 -283q0 -152 -58.5 -283.5t-158 -232t-233.5 -158t-286 -57.5t-286 57.5t-234 158t-157.5 232.5t-57.5 283zM207 702q0 -129 48 -242.5t131 -197.5t195.5 -132 t241.5 -48t242 48t195.5 132t131 197.5t48.5 242.5t-48.5 242t-132 198t-195.5 134t-241 49t-240.5 -49t-195.5 -134t-132 -198t-48 -242zM565 709q0 154 33 240.5t76 128.5t87 52.5t66 10.5q68 0 113 -24.5t72.5 -61.5t40 -81t16.5 -83l-115 -25q-10 55 -21 89t-25.5 52.5 t-33 24.5t-38.5 6q-18 0 -43 -8t-47.5 -42t-38 -102.5t-15.5 -187.5q0 -117 16.5 -183t38 -99t45 -41t39.5 -8q59 0 84 45t39 118l115 -18q-14 -84 -43 -133t-62.5 -73.5t-68.5 -32t-61 -7.5q-31 0 -77 10.5t-89 53.5t-73 132t-30 247z" />
<glyph unicode="&#xab;" horiz-adv-x="647" d="M70 537l176 317h82l-95 -317l95 -304h-82zM319 537l175 317h84l-97 -317l97 -304h-84z" />
<glyph unicode="&#xad;" horiz-adv-x="505" d="M74 465v129h358v-129h-358z" />
<glyph unicode="&#xae;" horiz-adv-x="1646" d="M88 702q0 150 57.5 283t157.5 233.5t234.5 158t285.5 57.5q152 0 286 -57.5t233.5 -158t158 -233.5t58.5 -283q0 -152 -58.5 -283.5t-158 -232t-233.5 -158t-286 -57.5t-286 57.5t-234 158t-157.5 232.5t-57.5 283zM207 702q0 -129 48 -242.5t131 -197.5t195.5 -132 t241.5 -48t242 48t195.5 132t131 197.5t48.5 242.5t-48.5 242t-132 198t-195.5 134t-241 49t-240.5 -49t-195.5 -134t-132 -198t-48 -242zM604 281v843h209q29 0 73 -5t86 -27.5t71.5 -70.5t29.5 -136q0 -6 -2 -35t-13 -64.5t-35 -70.5t-69 -51l142 -383h-131l-129 360h-107 v-360h-125zM729 743h86q16 0 40 3.5t44.5 17.5t34.5 42t14 77q0 51 -16.5 79.5t-39 42t-46 15.5t-37.5 2h-80v-279z" />
<glyph unicode="&#xb4;" horiz-adv-x="980" d="M369 1227l286 268l95 -117l-326 -219z" />
<glyph unicode="&#xbb;" horiz-adv-x="647" d="M70 233l96 304l-96 317h84l174 -317l-174 -304h-84zM319 233l97 304l-97 317h84l175 -317l-175 -304h-84z" />
<glyph unicode="&#x401;" horiz-adv-x="792" d="M137 0v1405h645v-137h-483v-469h373v-137h-373v-525h496v-137h-658zM238 1556v191h161v-191h-161zM535 1556v191h161v-191h-161z" />
<glyph unicode="&#x402;" horiz-adv-x="1091" d="M-12 1268v137h753v-137h-323v-496q51 29 108.5 45.5t114.5 16.5q102 0 170 -40t104 -94q45 -61 64.5 -145t19.5 -170q0 -59 -12 -128t-59 -140q-51 -78 -110.5 -105.5t-145.5 -27.5t-156 24l29 144q25 -12 53.5 -20.5t56.5 -8.5q90 0 140 88q29 49 36 94t7 86 q0 47 -8.5 96.5t-32.5 94.5q-61 113 -197 112q-51 0 -96 -16t-86 -53v-625h-160v1268h-270z" />
<glyph unicode="&#x403;" horiz-adv-x="761" d="M137 0v1405h627v-137h-465v-1268h-162zM293 1614l358 201l66 -144l-383 -137z" />
<glyph unicode="&#x404;" horiz-adv-x="892" d="M88 702q0 63 6 143.5t20.5 161t39 154.5t59.5 125q59 86 127 116t145 30q35 0 72 -5.5t72 -18.5t69.5 -39t67.5 -66q25 -35 43 -73t30.5 -74t18.5 -68.5t10 -53.5l-141 -26q-16 82 -30.5 121.5t-24.5 56.5q-29 51 -70 79.5t-100 28.5q-72 0 -116 -38.5t-73 -100.5 q-16 -35 -27.5 -78t-19.5 -90t-13 -95t-5 -89h393v-144h-397q0 -29 3 -69.5t7 -88.5t12 -96.5t21 -91.5q12 -37 28.5 -73.5t43 -65.5t62.5 -46t87 -17q74 0 114 35.5t64 86.5q23 43 31 81t12 73l148 -31q-8 -74 -35 -148.5t-68 -121.5q-51 -63 -114.5 -88t-139.5 -25 q-141 0 -224 64.5t-132 185.5q-25 57 -39 124t-22.5 132.5t-11.5 124t-3 98.5z" />
<glyph unicode="&#x405;" horiz-adv-x="864" d="M31 352l145 39q12 -61 41 -128.5t68 -100.5q27 -23 71.5 -37t85.5 -14q53 0 92 18t66 47q39 43 47 91t8 93q0 41 -6 79t-35 77q-29 41 -70.5 66.5t-84.5 48.5q-86 43 -149.5 73.5t-108.5 67.5q-68 57 -95.5 129t-27.5 152q0 92 28.5 163.5t71.5 114.5q49 51 116.5 76 t139.5 25q66 0 121 -20.5t96 -51.5q61 -47 98 -122t50 -148l-146 -35q-8 53 -30.5 104t-55.5 82q-18 16 -52 34.5t-87 18.5q-59 0 -96 -22.5t-56 -48.5q-20 -29 -32.5 -72t-12.5 -86q0 -61 20.5 -104t65.5 -78q12 -10 28.5 -19.5t39.5 -22t57.5 -29.5t83.5 -42 q51 -25 110.5 -57.5t100.5 -81.5q37 -43 60.5 -109.5t23.5 -148.5q0 -98 -30.5 -170t-75.5 -119q-53 -53 -126 -82t-155 -29q-59 0 -117.5 16.5t-107.5 49.5q-45 31 -77 71t-53.5 83t-32.5 83.5t-15 75.5z" />
<glyph unicode="&#x406;" horiz-adv-x="434" d="M137 0v1405h160v-1405h-160z" />
<glyph unicode="&#x407;" horiz-adv-x="434" d="M-18 1530v190h161v-190h-161zM137 0v1405h160v-1405h-160zM279 1530v190h161v-190h-161z" />
<glyph unicode="&#x408;" horiz-adv-x="577" d="M10 0v125q12 -4 41 -9t84 -5q18 0 57 5t68 36q29 33 36 105.5t7 207.5v940h162v-944v-109.5t-6 -104.5t-20.5 -95.5t-43.5 -81.5q-27 -33 -56.5 -52.5t-59 -28.5t-56 -12.5t-45.5 -3.5q-74 0 -116 11.5t-52 15.5z" />
<glyph unicode="&#x409;" horiz-adv-x="1484" d="M-8 0v139q53 -4 85 13.5t38 21.5q35 27 51 64.5t22 66.5q4 18 9.5 48t11.5 80t11 125t11 183q4 74 7.5 158t6.5 171t6 172t5 163h621v-576h172q53 0 118.5 -11t120.5 -64q59 -57 84 -152.5t25 -193.5q0 -92 -20.5 -177.5t-73.5 -140.5q-31 -33 -67 -51.5t-73 -26.5 t-71.5 -10t-65.5 -2h-311v1268h-322q-2 -160 -8 -335t-14 -317q-4 -78 -9.5 -137t-11.5 -103t-12 -76t-12 -56q-10 -41 -32 -87t-63 -85q-39 -39 -101 -63.5t-138 -8.5zM877 137h127q47 0 95 11.5t85 64.5q12 18 29.5 66.5t17.5 154.5q0 43 -10.5 103.5t-49.5 101.5 q-37 37 -82 45t-79 8h-133v-555z" />
<glyph unicode="&#x40a;" horiz-adv-x="1531" d="M137 0v1401h160v-588h416v588h161v-588h173q55 0 119.5 -12.5t119.5 -63.5q41 -39 75 -115.5t34 -213.5q0 -92 -20.5 -177.5t-74.5 -140.5q-31 -33 -66.5 -51.5t-72.5 -26.5t-71.5 -10t-65.5 -2h-311v680h-416v-680h-160zM874 137h127q47 0 95.5 11.5t85.5 64.5 q12 16 29.5 66.5t17.5 154.5q0 43 -9.5 97.5t-50.5 95.5q-37 37 -82 45t-79 8h-134v-543z" />
<glyph unicode="&#x40b;" horiz-adv-x="1081" d="M-12 1268v137h747v-137h-317v-496q37 23 89 40t126 17q96 0 157.5 -30.5t96.5 -75.5q43 -53 62.5 -133t19.5 -158v-432h-154v389q0 45 -5 96.5t-26.5 96.5t-63.5 74.5t-116 29.5q-66 0 -110.5 -19.5t-75.5 -41.5v-625h-160v1268h-270z" />
<glyph unicode="&#x40c;" horiz-adv-x="950" d="M137 0v1405h160v-610h100q41 0 79 7t67 42t35 86t10 98q4 82 8 131t12 84q10 49 28.5 82t41.5 49q27 23 64.5 33t68.5 10q39 0 66 -8v-135q-23 4 -46.5 0t-42.5 -19q-27 -20 -32.5 -46.5t-7.5 -55.5t-3.5 -54.5t-3.5 -53t-6 -58.5t-10 -72q-4 -35 -12 -59.5t-29 -52.5 q-25 -33 -52.5 -48.5t-58.5 -19.5v-6q47 -4 98.5 -32.5t80.5 -106.5q20 -55 24 -123t8 -145q2 -113 29 -150q18 -25 46 -29t63 0v-135q-31 -16 -74 -16q-33 0 -61.5 7t-57.5 26q-39 29 -56.5 66.5t-27.5 78.5q-10 49 -14 105.5t-8 111.5q-4 74 -14.5 132.5t-61.5 98.5 q-39 29 -78 34t-68 5h-104v-657h-160zM287 1612l358 200l66 -143l-383 -137z" />
<glyph unicode="&#x40e;" horiz-adv-x="804" d="M-8 1405h168l268 -852l236 852h149l-281 -952q-33 -111 -62.5 -202t-76.5 -157q-33 -45 -88 -83t-151 -38q-35 0 -68 6.5t-55 12.5v133q16 -4 44.5 -9t63.5 -5q53 0 88 16t68 61q23 29 41 71t29 75zM158 1731h139q2 -20 5 -42t9 -38q16 -41 42 -54.5t48 -13.5 q23 0 48.5 13.5t42.5 54.5q6 16 9 37.5t5 42.5h139q0 -57 -19.5 -104.5t-50.5 -80.5q-39 -41 -82.5 -56t-91.5 -15q-47 0 -91 15t-83 56q-31 33 -50 80t-19 105z" />
<glyph unicode="&#x40f;" horiz-adv-x="1003" d="M137 0v1405h162v-1268h408v1268h159v-1405h-293v-307h-143v307h-293z" />
<glyph unicode="&#x410;" horiz-adv-x="788" d="M-8 0l321 1405h168l316 -1405h-164l-88 401h-318l-84 -401h-151zM256 539h262l-129 700z" />
<glyph unicode="&#x411;" horiz-adv-x="917" d="M137 0v1405h641v-137h-485v-459h237q76 0 141.5 -30.5t104.5 -80.5q47 -59 60.5 -139t13.5 -143q0 -23 -2 -63t-11.5 -88t-29 -95t-51.5 -82q-59 -61 -137 -74.5t-150 -13.5h-332zM293 137h174q47 0 94 10.5t86 61.5q31 41 39 92t8 98q0 102 -19.5 147.5t-27.5 55.5 q-20 27 -60 48.5t-100 21.5h-194v-535z" />
<glyph unicode="&#x412;" d="M137 0v1405h295q92 0 168 -18.5t129 -77.5q43 -47 63.5 -115t20.5 -137q0 -53 -10 -109.5t-33 -93.5q-16 -31 -50 -59.5t-83 -44.5q51 -16 92 -48t68 -71q35 -53 47 -112.5t12 -121.5q0 -113 -26.5 -189.5t-69.5 -119.5q-33 -33 -71 -51.5t-79 -26.5t-83 -9t-81 -1h-309z M297 137h152q16 0 39.5 1t49 5t50 15.5t43.5 29.5q18 18 29.5 45t19.5 58t11 61.5t3 55.5q0 57 -19.5 120.5t-60.5 98.5q-39 31 -89 36t-83 5h-145v-531zM297 805h131q41 0 91 8t85 43q16 16 26.5 39t15.5 45.5t6 44t1 35.5q0 96 -24.5 143t-46.5 66q-33 27 -76 33t-84 6 h-125v-463z" />
<glyph unicode="&#x413;" horiz-adv-x="761" d="M137 0v1405h627v-137h-465v-1268h-162z" />
<glyph unicode="&#x414;" horiz-adv-x="962" d="M-8 137h82q27 47 55.5 106.5t50.5 135.5q25 80 45.5 187.5t34.5 258.5q14 145 20.5 295t4.5 285h567v-1268h119v-475h-148v338h-684v-338h-147v475zM244 137h448v1131h-272q0 -127 -3 -228.5t-10.5 -187.5t-16.5 -158.5t-21 -142.5q-23 -121 -50.5 -216t-74.5 -198z" />
<glyph unicode="&#x415;" horiz-adv-x="792" d="M137 0v1405h645v-137h-483v-469h373v-137h-373v-525h496v-137h-658z" />
<glyph unicode="&#x416;" horiz-adv-x="1277" d="M-8 8v135q35 -4 62.5 0t45.5 29q27 37 29 150q4 78 8 145.5t25 122.5q29 78 80 106.5t98 32.5v6q-31 4 -58.5 19.5t-52.5 48.5q-20 29 -28 53.5t-13 58.5q-6 41 -10 72t-6 58.5t-3 53t-3 54.5t-8 55.5t-33 46.5q-18 14 -42 18.5t-46 0.5v135q27 8 65 8q31 0 69 -10 t65 -33q23 -16 41 -49t28 -82q8 -35 12.5 -84t8.5 -131q4 -47 10 -98t35 -86t66.5 -42t78.5 -7h43v610h160v-610h43q41 0 79 7t66 42q29 35 35 86t10 98q4 82 8.5 131t12.5 84q10 49 28.5 82t40.5 49q27 23 65 33t69 10q39 0 65 -8v-135q-23 4 -46.5 0t-41.5 -19 q-27 -20 -33 -46.5t-8 -55.5t-3 -54.5t-3 -53t-6 -58.5t-10 -72q-4 -35 -12.5 -59.5t-28.5 -52.5q-25 -33 -52.5 -48.5t-58.5 -19.5v-6q47 -4 98 -32.5t80 -106.5q20 -55 24.5 -123t8.5 -145q2 -113 29 -150q18 -25 45.5 -29t62.5 0v-135q-31 -16 -74 -16q-33 0 -61.5 7 t-56.5 26q-39 29 -56.5 66.5t-27.5 78.5q-10 49 -14.5 105.5t-8.5 111.5q-4 74 -14 132.5t-62 98.5q-39 29 -77.5 34t-67.5 5h-47v-657h-160v657h-47q-29 0 -67.5 -5t-77.5 -34q-27 -20 -41.5 -44.5t-21.5 -54.5t-9 -62.5t-4 -69.5q-4 -55 -8 -111.5t-15 -105.5 q-10 -41 -27.5 -79t-56.5 -66q-29 -18 -57.5 -25.5t-60.5 -7.5q-43 0 -74 16z" />
<glyph unicode="&#x417;" horiz-adv-x="940" d="M88 375l152 18q2 -49 14 -103t35 -91q31 -53 70.5 -70.5t97.5 -17.5q41 0 89 15t87 64q18 25 28.5 52.5t16.5 54.5t7 50.5t1 39.5q0 47 -11 108.5t-63 108.5q-31 29 -77 45.5t-99 16.5h-92v137h92q59 0 107.5 26.5t70.5 65.5q10 18 20.5 57t10.5 123q0 37 -5 78t-28 74 q-16 23 -52 45t-101 22q-25 0 -62 -8t-69 -43q-29 -31 -48.5 -84t-23.5 -102l-152 22q4 102 44 172t83 105t103.5 55.5t144.5 20.5q23 0 52.5 -2.5t60.5 -11.5t63.5 -26.5t61.5 -45.5q49 -49 72.5 -122t23.5 -145q0 -45 -12.5 -110.5t-38.5 -110.5q-39 -66 -89 -88t-79 -27 v-4q55 -8 100 -31.5t74 -56.5q29 -31 46 -66.5t25.5 -71.5t10.5 -67.5t2 -54.5q0 -74 -20.5 -151.5t-65.5 -135.5q-35 -45 -77 -71.5t-84 -39.5t-81 -16.5t-65 -3.5q-72 0 -143.5 21.5t-131.5 97.5q-43 55 -67.5 135t-28.5 148z" />
<glyph unicode="&#x418;" horiz-adv-x="1073" d="M137 0v1405h160v-952l-8 -136l39 89l448 923v76h160v-1405h-160v963l8 137l-39 -96l-448 -920v-84h-160z" />
<glyph unicode="&#x419;" horiz-adv-x="1073" d="M137 0v1405h160v-952l-8 -136l39 89l448 923v76h160v-1405h-160v963l8 137l-39 -96l-448 -920v-84h-160zM266 1735h144q0 -23 5 -46.5t15 -41.5q23 -43 56.5 -53.5t52.5 -10.5q18 0 52 10.5t56 53.5q10 18 15.5 41.5t5.5 46.5h143q0 -39 -8 -70t-20.5 -54.5t-26 -40 t-23.5 -24.5q-29 -27 -76 -49t-118 -22q-72 0 -119 22.5t-76 48.5q-10 8 -23.5 24.5t-25.5 40t-20.5 54.5t-8.5 70z" />
<glyph unicode="&#x41a;" horiz-adv-x="950" d="M137 0v1405h160v-610h100q41 0 79 7t67 42t35 86t10 98q4 82 8 131t12 84q10 49 28.5 82t41.5 49q27 23 64.5 33t68.5 10q39 0 66 -8v-135q-23 4 -46.5 0t-42.5 -19q-27 -20 -32.5 -46.5t-7.5 -55.5t-3.5 -54.5t-3.5 -53t-6 -58.5t-10 -72q-4 -35 -12 -59.5t-29 -52.5 q-25 -33 -52.5 -48.5t-58.5 -19.5v-6q47 -4 98.5 -32.5t80.5 -106.5q20 -55 24 -123t8 -145q2 -113 29 -150q18 -25 46 -29t63 0v-135q-31 -16 -74 -16q-33 0 -61.5 7t-57.5 26q-39 29 -56.5 66.5t-27.5 78.5q-10 49 -14 105.5t-8 111.5q-4 74 -14.5 132.5t-61.5 98.5 q-39 29 -78 34t-68 5h-104v-657h-160z" />
<glyph unicode="&#x41b;" horiz-adv-x="1013" d="M-8 0v139q53 -4 85 13.5t38 21.5q35 27 51 64.5t22 66.5q4 18 9.5 48t11.5 80t11 125t11 183q4 74 7.5 158t6.5 171t6 172t5 163h621v-1405h-162v1268h-322q-2 -160 -8 -335t-14 -317q-4 -78 -9.5 -137t-11.5 -103t-12 -76t-12 -56q-10 -41 -32 -87t-63 -85 q-39 -39 -101 -63.5t-138 -8.5z" />
<glyph unicode="&#x41c;" horiz-adv-x="1261" d="M137 0v1405h215l279 -1143l284 1143h209v-1405h-155l12 1198l-299 -1198h-119l-293 1204l11 -1204h-144z" />
<glyph unicode="&#x41d;" horiz-adv-x="1009" d="M137 0v1405h160v-596h416v596h159v-1405h-159v672h-416v-672h-160z" />
<glyph unicode="&#x41e;" horiz-adv-x="1009" d="M88 702q0 131 12.5 226.5t31 163t40 110.5t39.5 70q35 51 73 82.5t75.5 49t74.5 23t70 5.5t69.5 -5.5t76.5 -21.5t79 -48t76 -85q43 -63 66.5 -146.5t35 -165t13.5 -151.5t2 -107q0 -59 -5.5 -132.5t-18.5 -150.5t-37.5 -150.5t-63.5 -133.5q-35 -55 -72 -87t-75 -48 t-74.5 -21.5t-71.5 -5.5q-31 0 -68 5.5t-77 21.5t-79.5 48t-76.5 85q-18 27 -39 72t-37 112.5t-27.5 162.5t-11.5 222zM254 702q0 -59 4 -134.5t16.5 -150.5t33 -138.5t50.5 -100.5q23 -27 60 -47t86 -20q33 0 59.5 9t45 20.5t29.5 22.5l15 15q31 37 51.5 100.5t32 138.5 t15.5 150.5t4 134.5t-4 135t-15.5 151t-32 138.5t-51.5 100.5q-29 31 -67.5 49t-81.5 18q-49 0 -87 -20.5t-61 -46.5q-31 -37 -51 -100.5t-31.5 -138.5t-15.5 -150.5t-4 -135.5z" />
<glyph unicode="&#x41f;" horiz-adv-x="1009" d="M137 0v1405h735v-1405h-159v1268h-416v-1268h-160z" />
<glyph unicode="&#x420;" horiz-adv-x="831" d="M137 0v1405h275q39 0 81 -3t83.5 -14.5t80.5 -34t74 -61.5q47 -55 70.5 -139t23.5 -170q0 -66 -15 -132.5t-48 -119.5t-75 -85t-86 -48t-87 -21.5t-78 -5.5h-137v-571h-162zM299 709h131q29 0 74 6t84 41q72 66 71 227q0 70 -17 137.5t-58 102.5q-29 23 -72 34t-90 11 h-123v-559z" />
<glyph unicode="&#x421;" horiz-adv-x="864" d="M88 694q0 80 8 169t26.5 175t50.5 162t79 127q59 66 123.5 85.5t118.5 19.5q68 0 125 -20.5t106 -70.5q47 -47 76.5 -117.5t46.5 -181.5l-146 -34q-4 27 -10 59.5t-16 65t-24.5 62.5t-33.5 50q-29 33 -61.5 41t-54.5 8q-41 0 -77 -14t-65 -51q-35 -41 -55 -115 t-31.5 -154.5t-15.5 -159.5t-4 -130q0 -53 4 -118t13.5 -128.5t23.5 -118.5t35 -90q33 -57 79 -80.5t89 -23.5q23 0 56.5 9t66.5 44q20 23 34.5 52.5t24.5 60t15 59.5t7 49l146 -27q-6 -33 -17.5 -73.5t-27 -82.5t-37 -81t-49.5 -66q-31 -31 -85 -56.5t-136 -25.5 q-203 0 -308 174q-12 18 -28.5 57.5t-32.5 104t-27.5 159.5t-11.5 226z" />
<glyph unicode="&#x422;" horiz-adv-x="679" d="M-12 1268v137h704v-137h-274v-1268h-160v1268h-270z" />
<glyph unicode="&#x423;" horiz-adv-x="804" d="M-8 1405h168l268 -852l236 852h149l-281 -952q-33 -111 -62.5 -202t-76.5 -157q-33 -45 -88 -83t-151 -38q-35 0 -68 6.5t-55 12.5v133q16 -4 44.5 -9t63.5 -5q53 0 88 16t68 61q23 29 41 71t29 75z" />
<glyph unicode="&#x424;" horiz-adv-x="1294" d="M88 719q0 37 2 82t11.5 93t25.5 96t45 93q45 70 103.5 110t116 59.5t105.5 23.5t70 4v172h160v-172q23 0 71 -4t105.5 -23.5t115.5 -59.5t103 -110q29 -45 45.5 -93t25.5 -96t11 -93t2 -82q0 -88 -17.5 -182.5t-76.5 -180.5q-39 -55 -88 -89t-101.5 -53t-102.5 -27.5 t-93 -8.5v-178h-160v178q-43 0 -93 8.5t-102.5 27.5t-101.5 53t-88 89q-59 86 -76.5 180.5t-17.5 182.5zM248 723q0 -31 3 -68t10 -75.5t19.5 -75.5t30.5 -64q33 -49 97.5 -89t158.5 -36v830q-78 4 -135 -24.5t-92 -67.5q-49 -55 -70.5 -146.5t-21.5 -183.5zM727 315 q94 -4 158.5 36t97.5 89q18 27 30.5 64t19.5 75.5t10.5 75.5t3.5 68q0 92 -21.5 183t-71.5 147q-35 39 -92 67.5t-135 24.5v-830z" />
<glyph unicode="&#x425;" horiz-adv-x="788" d="M0 0l309 733l-270 672h172l188 -506l195 506h154l-273 -647l311 -758h-180l-223 584l-227 -584h-156z" />
<glyph unicode="&#x426;" horiz-adv-x="993" d="M137 0v1405h162v-1268h408v1268h159v-1268h119v-463h-149v326h-699z" />
<glyph unicode="&#x427;" horiz-adv-x="958" d="M117 840v565h159v-541q0 -31 2.5 -63.5t36.5 -61.5q25 -20 55.5 -24t53.5 -4q10 0 74.5 4t163.5 30v660h159v-1405h-159v618q-133 -37 -261 -36q-59 0 -119.5 13t-105.5 62q-39 41 -49 91.5t-10 91.5z" />
<glyph unicode="&#x428;" horiz-adv-x="1454" d="M137 0v1405h152v-1272h362v1272h152v-1272h362v1272h152v-1405h-1180z" />
<glyph unicode="&#x429;" horiz-adv-x="1443" d="M137 0v1405h154v-1272h360v1272h154v-1272h360v1272h154v-1272h117v-459h-148v326h-1151z" />
<glyph unicode="&#x42a;" horiz-adv-x="1024" d="M-16 1268v137h432v-576h172q53 0 118.5 -11t120.5 -64q59 -57 84 -152.5t25 -193.5q0 -92 -20.5 -177.5t-73.5 -140.5q-31 -33 -67 -51.5t-72.5 -26.5t-71.5 -10t-66 -2h-309v1268h-272zM416 137h127q47 0 95 11.5t85 64.5q12 18 29.5 66.5t17.5 154.5q0 43 -10 103.5 t-49 101.5q-37 37 -82 45t-80 8h-133v-555z" />
<glyph unicode="&#x42b;" horiz-adv-x="1185" d="M137 0v1405h152v-580h164q53 0 115.5 -12t115.5 -63q8 -8 26.5 -31t37 -63t32 -99t13.5 -145q0 -23 -2.5 -62t-11.5 -85t-28.5 -92t-52.5 -83q-31 -33 -64.5 -51.5t-69.5 -26.5t-69.5 -10t-64.5 -2h-293zM289 137h119q47 0 96 11.5t88 64.5q14 20 30.5 67.5t16.5 149.5 q0 47 -9 105.5t-50 99.5q-37 37 -84 45t-82 8h-125v-551zM897 0v1405h152v-1405h-152z" />
<glyph unicode="&#x42c;" horiz-adv-x="905" d="M137 0v1405h160v-576h172q53 0 118.5 -11t121.5 -64q59 -57 83.5 -152.5t24.5 -193.5q0 -92 -20.5 -177.5t-73.5 -140.5q-31 -33 -66.5 -51.5t-72.5 -26.5t-72 -10t-66 -2h-309zM297 137h127q47 0 95 11.5t85 64.5q12 18 29.5 66.5t17.5 154.5q0 43 -10 103.5t-49 101.5 q-37 37 -82 45t-80 8h-133v-555z" />
<glyph unicode="&#x42d;" horiz-adv-x="892" d="M29 373l155 14q4 -43 16.5 -94t39.5 -94q18 -31 52 -59.5t95 -28.5q53 0 101.5 26.5t80.5 83.5q20 37 36 91.5t25 115.5t13 121.5t4 109.5h-395v138h393q0 37 -5 92t-14.5 114.5t-25.5 115t-39 89.5q-29 45 -67.5 65.5t-94.5 20.5q-37 0 -73.5 -13t-67.5 -50 q-29 -35 -51.5 -101.5t-30.5 -123.5l-147 28q8 68 33.5 141.5t72.5 133.5q47 61 107.5 92t152.5 31q66 0 135.5 -24t128.5 -91q45 -49 73 -114.5t44.5 -143.5t22.5 -166t6 -182q0 -143 -11.5 -243.5t-27.5 -169.5t-35.5 -110t-36.5 -65q-18 -27 -45.5 -53.5t-65.5 -48 t-87.5 -35t-110.5 -13.5q-74 0 -138.5 25t-117.5 90q-43 57 -68.5 139t-31.5 146z" />
<glyph unicode="&#x42e;" horiz-adv-x="1339" d="M137 0v1405h160v-596h152q0 55 6 119.5t19 127t32.5 119t48.5 97.5q35 51 74 82.5t77.5 49t74.5 23t67 5.5q29 0 65.5 -5.5t76.5 -21.5t79 -48t74 -83q37 -55 58.5 -131t32.5 -154t14 -150.5t3 -117.5q0 -63 -5 -141t-17 -158t-35 -154.5t-59 -132.5q-61 -96 -133 -129 t-154 -33q-29 0 -66 5.5t-76.5 21.5t-79.5 48t-75 85q-31 47 -52.5 113.5t-33.5 139.5t-16.5 147.5t-4.5 138.5h-147v-672h-160zM604 702q0 -59 4 -134.5t15.5 -150.5t31 -138.5t50.5 -100.5q20 -25 55 -46t88 -21q51 0 85 20.5t56 46.5q35 41 54.5 115t29.5 153.5t12 150.5 t2 105q0 37 -2 108t-12 149.5t-29.5 152.5t-54.5 115q-23 27 -56.5 47t-84.5 20q-59 0 -94 -24.5t-52 -42.5q-35 -41 -54 -115t-29.5 -153.5t-12.5 -150.5t-2 -106z" />
<glyph unicode="&#x42f;" horiz-adv-x="890" d="M16 0l232 647q-41 12 -75 35t-62 63q-47 63 -61.5 132t-14.5 135q0 33 4 72.5t16.5 81.5t37 82t65.5 75q31 27 94 54.5t170 27.5h332v-1405h-156v625h-197l-211 -625h-174zM197 1012q0 -47 12 -101.5t47 -89.5q31 -29 83 -44t105 -15h154v506h-176q-41 0 -87 -12.5 t-83 -53.5q-29 -35 -42 -84t-13 -106z" />
<glyph unicode="&#x430;" horiz-adv-x="829" d="M74 281q0 78 17.5 133t45 93t60 61.5t61.5 35.5q74 33 159 40t150 3q2 94 -3 153.5t-32 92.5q-12 16 -40.5 32.5t-81.5 16.5q-35 0 -72 -13.5t-66 -62.5q-16 -29 -24 -64.5t-12 -51.5l-136 34q10 55 35 108.5t60 88.5q53 55 117.5 69.5t117.5 14.5q33 0 83 -8t97 -39 q41 -27 63.5 -62.5t33 -81t11.5 -99.5t1 -116v-417v-110.5t14 -131.5h-131q-16 53 -19 91t-1 61q-10 -29 -32 -65t-46 -58q-37 -35 -78 -45.5t-78 -10.5q-84 0 -131 29t-70 51q-33 35 -53 91.5t-20 136.5zM229 276q0 -35 8.5 -74.5t30.5 -62.5q18 -20 46 -30.5t51 -10.5 q35 0 76.5 18.5t76.5 78.5q35 61 43 143t6 184q-90 6 -165.5 -5t-120.5 -64q-27 -31 -39.5 -83.5t-12.5 -93.5z" />
<glyph unicode="&#x431;" horiz-adv-x="831" d="M74 578q0 84 6 192.5t24 224.5q8 51 19.5 100.5t32 94.5t52.5 84t79 69q47 29 98 45.5t98 26.5q59 12 88 18.5t50.5 9.5t44 7t69.5 14v-131q-39 -10 -71.5 -18t-67.5 -19q-63 -16 -109.5 -26t-83.5 -27q-31 -12 -61.5 -32.5t-52.5 -53.5q-16 -23 -29.5 -54.5t-23 -65 t-14.5 -67.5t-5 -61h4q37 59 95.5 93t129.5 34q92 0 148.5 -43t93.5 -119q29 -57 49.5 -141t20.5 -207q0 -104 -14.5 -182t-32 -130t-33.5 -80t-19 -32q-53 -76 -121.5 -102.5t-127.5 -26.5q-66 0 -117 27t-86 61q-45 45 -71.5 107.5t-40 132.5t-17.5 140.5t-4 136.5z M236 516q0 -35 2 -76t6 -82t10 -76.5t14 -58.5q14 -41 34 -64.5t40 -38t40 -18.5t32 -4q16 0 36.5 5.5t42 19.5t42 40.5t32.5 67.5q8 25 13.5 60t8.5 72.5t5 76.5t2 72t-2 73t-5 80t-9.5 75.5t-14.5 58.5q-25 66 -66.5 89t-76.5 23q-10 0 -31.5 -3t-45 -17t-46.5 -43 t-37 -80q-14 -49 -20 -121t-6 -131z" />
<glyph unicode="&#x432;" horiz-adv-x="819" d="M127 0v1040h358q70 0 111 -21.5t61 -41.5q35 -35 49.5 -86t14.5 -103q0 -35 -7 -70.5t-24 -68.5q-23 -41 -49.5 -63.5t-54.5 -32.5v-2q45 -16 72.5 -42t43.5 -48q23 -35 33 -84t10 -88q0 -63 -18 -120.5t-55 -96.5q-25 -27 -69 -49.5t-109 -22.5h-367zM270 117h133 q23 0 62 5t70 32q27 23 41 61.5t14 83.5q0 41 -12.5 84t-38.5 68q-29 27 -65 32.5t-60 5.5h-144v-372zM270 606h133q45 0 74 13.5t45 29.5q23 23 33 58.5t10 70.5q0 76 -47 115q-27 20 -52.5 25.5t-57.5 5.5h-138v-318z" />
<glyph unicode="&#x433;" horiz-adv-x="659" d="M127 0v1040h524v-120h-379v-920h-145z" />
<glyph unicode="&#x434;" horiz-adv-x="835" d="M-8 121h82q41 76 67.5 153.5t42.5 165.5q10 53 18.5 129t14.5 159t9 165t3 147h484v-919h94v-373h-133v252h-553v-258h-129v379zM236 121h337v794h-213q-2 -45 -5 -102t-8 -118.5t-10 -122t-13 -111.5q-14 -92 -34 -173t-54 -167z" />
<glyph unicode="&#x435;" horiz-adv-x="794" d="M74 504q0 57 5 118.5t18.5 120t35 111.5t51.5 94q57 76 116.5 96.5t113.5 20.5q53 0 115.5 -18.5t119.5 -85.5q51 -61 80 -169t25 -290h-527q0 -33 2 -78t8.5 -90t17.5 -87t30 -69q27 -39 67.5 -59.5t83.5 -20.5q29 0 59.5 12.5t53.5 36.5q23 27 40 77t25 83l127 -35 q-6 -29 -19 -69.5t-38 -83.5q-51 -90 -117.5 -118t-142.5 -28q-78 0 -142.5 28t-117.5 105q-31 43 -48.5 96.5t-26.5 106.5t-12 103.5t-3 91.5zM231 623h361q-4 106 -14.5 161.5t-30.5 85.5q-20 33 -55 52.5t-78 19.5q-33 0 -68 -17.5t-63 -62.5q-25 -41 -34 -99t-18 -140z " />
<glyph unicode="&#x436;" horiz-adv-x="1030" d="M8 2v117q37 -10 53.5 8t20.5 29q8 18 12 46.5t7 62.5t7.5 70t10.5 66q4 20 11 43t20.5 43.5t35 37t52.5 24.5v2q-35 10 -61.5 33.5t-41.5 68.5q-8 25 -12 55.5t-12 102.5q-6 45 -11.5 66.5t-15.5 31.5q-4 4 -15.5 11.5t-29.5 3.5v116q6 2 24.5 5.5t28.5 3.5 q12 0 29.5 -3.5t36 -14.5t35 -31.5t26.5 -55.5q10 -29 13.5 -61.5t7.5 -67.5q4 -39 8 -68.5t12 -56.5q16 -51 44 -66.5t61 -15.5h77v432h146v-432h78q33 0 60.5 15.5t43.5 66.5q8 27 12 56.5t9 68.5q4 35 7 67.5t13 61.5q10 35 26.5 55.5t35 31.5t36 14.5t29.5 3.5 q10 0 28.5 -3.5t24.5 -5.5v-116q-18 4 -29.5 -3.5t-15.5 -11.5q-10 -10 -15 -31.5t-11 -66.5q-4 -35 -7.5 -59.5t-6.5 -42t-5 -30.5t-6 -26q-14 -45 -41 -68.5t-61 -33.5v-2q31 -8 52 -24.5t34.5 -37t20.5 -43t11 -43.5q6 -31 10.5 -66.5t7.5 -69.5t7 -62.5t12 -46.5 q4 -10 20.5 -28.5t53.5 -8.5v-117q-27 -14 -59 -14q-39 0 -65 12t-42 29.5t-25.5 38t-15.5 36.5q-10 29 -18.5 76t-18.5 142q-4 35 -11 71.5t-26 59.5q-12 14 -32.5 24t-40.5 10h-80v-487h-146v487h-80q-20 0 -40.5 -10t-32.5 -24q-18 -23 -25.5 -60t-11.5 -71 q-10 -94 -18.5 -141.5t-18.5 -76.5q-6 -16 -15.5 -36.5t-25.5 -38t-42 -29.5t-64 -12q-33 0 -60 14z" />
<glyph unicode="&#x437;" horiz-adv-x="796" d="M74 305l149 14q-2 -35 6.5 -78.5t24.5 -72.5q29 -45 68.5 -57.5t70.5 -12.5q35 0 70 10.5t63 47.5q23 29 29 65.5t6 69.5q0 35 -9 75t-44 72q-23 20 -61.5 34.5t-92.5 14.5h-61v125h67q53 0 87 15.5t53 31.5q29 29 38 65t9 64q0 23 -5 53.5t-28 55.5q-16 18 -44 31.5 t-69 13.5q-59 0 -90.5 -23.5t-44.5 -39.5q-16 -23 -26.5 -61t-12.5 -68l-133 22q6 66 35 127.5t72 97.5q51 43 108.5 55.5t100.5 12.5q47 0 107.5 -12.5t111.5 -65.5q31 -31 50 -79t19 -115q0 -41 -9 -78t-30 -66q-23 -33 -58.5 -57.5t-76.5 -36.5v-2q82 -12 133 -68 q29 -31 47.5 -80t18.5 -118q0 -74 -21.5 -128.5t-54.5 -90.5q-53 -59 -117.5 -77t-130.5 -18q-61 0 -131.5 17.5t-124.5 87.5q-35 45 -51 109.5t-18 117.5z" />
<glyph unicode="&#x438;" horiz-adv-x="860" d="M127 0v1040h147v-653l-8 -113l45 107l275 598v61h147v-1040h-147v645l8 113l-45 -113l-275 -579v-66h-147z" />
<glyph unicode="&#x439;" horiz-adv-x="860" d="M127 0v1040h147v-653l-8 -113l45 107l275 598v61h147v-1040h-147v645l8 113l-45 -113l-275 -579v-66h-147zM188 1384h125q-4 -35 6.5 -58t20.5 -38q18 -25 40.5 -35t47.5 -10q53 0 88 45q10 14 20.5 38t6.5 58h121q0 -45 -15.5 -89t-44.5 -74q-39 -41 -87 -53.5 t-89 -12.5t-90 12.5t-90 53.5q-29 31 -44.5 74.5t-15.5 88.5z" />
<glyph unicode="&#x43a;" horiz-adv-x="737" d="M127 0v1040h147v-432h97q33 0 60.5 15.5t43.5 66.5q10 29 13.5 56.5t7.5 68.5q4 29 8 62.5t14 66.5q10 35 26.5 55.5t35 31.5t36 14.5t29.5 3.5q10 0 28.5 -3.5t24.5 -5.5v-116q-18 4 -29.5 -3.5t-15.5 -11.5q-10 -10 -15 -31.5t-11 -66.5q-4 -35 -7.5 -59.5t-6.5 -42 t-5 -30.5t-6 -26q-14 -45 -40.5 -68.5t-61.5 -33.5v-2q31 -8 52 -24.5t34.5 -37t20.5 -43t11 -43.5q6 -31 10.5 -66.5t7.5 -69.5t7 -62.5t12 -46.5q4 -10 20.5 -28.5t53.5 -8.5v-117q-27 -14 -59 -14q-39 0 -64.5 12t-42 29.5t-26 38t-15.5 36.5q-10 29 -18 76t-19 142 q-4 35 -11 71.5t-25 59.5q-12 14 -33 24t-41 10h-101v-487h-147z" />
<glyph unicode="&#x43b;" horiz-adv-x="811" d="M8 0v119q49 -4 83 21.5t50 66.5q6 14 13.5 43t13.5 83t12 139t10 214q2 37 3.5 89t2.5 103.5t1 95.5v66h487v-1040h-147v909h-211q-2 -68 -3 -116t-1 -83.5t-1.5 -63.5t-1.5 -52q-2 -78 -6 -139.5t-12 -141.5q-6 -61 -20.5 -121.5t-55.5 -113.5q-29 -35 -59.5 -52.5 t-59 -23.5t-54 -6t-44.5 4z" />
<glyph unicode="&#x43c;" horiz-adv-x="1071" d="M127 0v1040h205l209 -794l198 794h205v-1040h-137v711l4 188l-35 -156l-192 -743h-105l-196 737l-39 160l4 -184v-713h-121z" />
<glyph unicode="&#x43d;" horiz-adv-x="851" d="M127 0v1040h147v-436h304v436h147v-1040h-147v483h-304v-483h-147z" />
<glyph unicode="&#x43e;" horiz-adv-x="831" d="M74 520q0 49 5 109.5t19.5 121t38 117t60.5 99.5q41 47 94 72.5t125 25.5t125 -25.5t94 -72.5q37 -43 60.5 -99.5t38 -117t19.5 -121t5 -109.5q0 -61 -7.5 -125.5t-22.5 -124t-37.5 -110.5t-55.5 -88q-39 -43 -95.5 -71t-123.5 -28q-68 0 -124 28t-95 71q-33 37 -55.5 88 t-38 110.5t-22.5 124t-7 125.5zM236 520q0 -31 2 -70.5t5 -79.5t9 -77t14 -66q12 -41 31.5 -66.5t40 -40t41 -18.5t37.5 -4q14 0 35.5 4t42 18.5t40 40t31.5 66.5q8 29 14.5 66t9.5 77t5 79.5t2 70.5q0 33 -2 73t-6 80t-9.5 76.5t-13.5 63.5q-14 45 -35.5 70.5t-43 39 t-41 16.5t-29.5 3t-29.5 -3t-41 -16.5t-43 -39t-36.5 -70.5q-8 -27 -13 -63.5t-9 -76.5t-6 -80t-2 -73z" />
<glyph unicode="&#x43f;" horiz-adv-x="851" d="M127 0v1040h598v-1040h-147v920h-304v-920h-147z" />
<glyph unicode="&#x440;" horiz-adv-x="868" d="M127 -352v1392h137v-172q8 35 25.5 69t44.5 60q39 39 79 49.5t74 10.5q76 0 127.5 -31t87.5 -84q27 -41 45.5 -92t28.5 -106.5t14.5 -110.5t4.5 -101q0 -43 -3.5 -95t-11.5 -105t-22.5 -103.5t-34.5 -89.5q-47 -90 -111.5 -123.5t-132.5 -33.5q-63 0 -99 19t-44 26 q-16 14 -33.5 34.5t-28.5 44.5v-458h-147zM274 414q0 -63 7.5 -127t42.5 -113q27 -39 57.5 -53.5t69.5 -14.5q53 0 88.5 26t52.5 58q12 20 19 62.5t12.5 90.5t7.5 95t2 82q0 29 -1 73t-6 91t-15.5 93t-28.5 79q-41 78 -121 78q-51 0 -82 -22.5t-45 -41.5 q-16 -23 -27.5 -53.5t-18.5 -67t-10.5 -74.5t-3.5 -73v-188z" />
<glyph unicode="&#x441;" horiz-adv-x="755" d="M74 502q0 113 12 193.5t30.5 137t40 91t42.5 57.5q55 57 110.5 70.5t100.5 13.5t96 -11.5t98 -58.5q45 -43 74 -116.5t37 -149.5l-137 -29q-2 25 -7.5 52.5t-13.5 54.5t-19.5 49.5t-23.5 36.5q-16 20 -45 34.5t-61 14.5q-39 0 -69 -17.5t-48 -43.5q-10 -12 -19.5 -36 t-17.5 -63t-13 -95t-5 -136q0 -160 9 -252t44 -139q18 -25 48 -43.5t66 -18.5q33 0 67 14.5t58 51.5q20 31 32.5 79t17.5 93l137 -17q-6 -72 -35 -148.5t-70 -119.5q-25 -27 -74 -52.5t-128 -25.5q-72 0 -132.5 28t-99.5 71q-18 20 -36.5 53t-33 83t-23.5 122.5t-9 171.5z " />
<glyph unicode="&#x442;" horiz-adv-x="661" d="M8 920v120h645v-120h-250v-920h-145v920h-250z" />
<glyph unicode="&#x443;" horiz-adv-x="624" d="M-8 1040h158l169 -718l179 718h135l-297 -1140q-14 -53 -38 -116t-58 -99q-37 -41 -77 -50.5t-69 -9.5q-27 0 -46 4t-38 11v131q37 -16 74 -17q39 0 56.5 16.5t33.5 53.5q10 23 21.5 61.5t15.5 61.5l29 125z" />
<glyph unicode="&#x444;" horiz-adv-x="1118" d="M74 518q0 27 2 76t14 107.5t38 121t73 113.5q39 43 108.5 84t177.5 45v340h144v-340q109 -4 178.5 -45t108.5 -84q43 -47 67.5 -101.5t37.5 -109.5t17 -108.5t4 -98.5q0 -113 -26.5 -217t-79.5 -176q-16 -20 -42 -45t-62.5 -47.5t-88 -37.5t-114.5 -15v-332h-144v332 q-66 0 -115.5 15t-86.5 37.5t-63.5 47t-41.5 45.5q-53 70 -79.5 176.5t-26.5 216.5zM233 528q0 -72 6.5 -124t13.5 -87.5t15 -57t15 -30.5q20 -41 46.5 -64.5t54.5 -37.5t55.5 -18.5t52.5 -4.5v838q-51 -6 -88 -22.5t-64 -38t-42 -45t-24 -39.5q-14 -29 -27.5 -87.5 t-13.5 -181.5zM627 104q25 0 52.5 4.5t55 18.5t54 37.5t47.5 64.5q6 8 14 30t15 57.5t13.5 88t6.5 123.5q0 123 -13.5 181.5t-27.5 87.5q-8 16 -23.5 39.5t-42 45t-63.5 38t-88 22.5v-838z" />
<glyph unicode="&#x445;" horiz-adv-x="647" d="M4 0l244 551l-217 489h157l142 -360l133 360h141l-205 -489l244 -551h-158l-168 416l-163 -416h-150z" />
<glyph unicode="&#x446;" horiz-adv-x="829" d="M127 0v1040h145v-919h301v919h146v-919h102v-359h-127v238h-567z" />
<glyph unicode="&#x447;" horiz-adv-x="819" d="M106 651v389h146v-352q0 -31 3 -64.5t26 -56.5t57.5 -26.5t50.5 -3.5q35 0 75 5t83 19v479h145v-1040h-145v449q-47 -12 -109.5 -22.5t-109.5 -10.5q-35 0 -82 9t-84 48t-46.5 88t-9.5 90z" />
<glyph unicode="&#x448;" horiz-adv-x="1191" d="M127 0v1040h135v-919h266v919h136v-919h266v919h135v-1040h-938z" />
<glyph unicode="&#x449;" horiz-adv-x="1259" d="M127 0v1040h137v-919h266v919h138v-919h266v919h137v-919h103v-350h-130v229h-917z" />
<glyph unicode="&#x44a;" horiz-adv-x="958" d="M8 920v120h398v-417h159q57 0 126 -14.5t122 -69.5q47 -51 59.5 -112.5t12.5 -115.5q0 -51 -9.5 -100t-37.5 -94q-10 -14 -27.5 -34t-50.5 -38t-81 -31.5t-116 -13.5h-303v920h-252zM406 121h110q39 0 88 8t80 43q23 27 32 67t9 74q0 111 -53 154q-14 12 -35 19.5 t-41.5 10.5t-39.5 4t-34 1h-116v-381z" />
<glyph unicode="&#x44b;" horiz-adv-x="1099" d="M127 0v1040h139v-426h150q59 0 122.5 -14t116.5 -70q47 -49 59.5 -107t12.5 -112q0 -51 -8 -96t-35 -90q-37 -61 -100.5 -93t-169.5 -32h-287zM266 121h109q41 0 87 7t79 44q25 29 32 66.5t7 66.5q0 12 -1 31.5t-6.5 41t-15.5 42t-29 37.5q-31 27 -75.5 32t-79.5 5h-107 v-373zM834 0v1040h139v-1040h-139z" />
<glyph unicode="&#x44c;" horiz-adv-x="825" d="M127 0v1040h145v-417h160q57 0 126 -14.5t122 -69.5q47 -49 59.5 -113t12.5 -115q0 -45 -8.5 -96t-38.5 -98q-25 -37 -57 -59.5t-68.5 -36t-75.5 -17.5t-74 -4h-303zM272 121h111q39 0 88 8t80 43q23 27 32 67t9 74q0 111 -53 154q-14 12 -35 19.5t-41.5 10.5t-40 4 t-33.5 1h-117v-381z" />
<glyph unicode="&#x44d;" horiz-adv-x="813" d="M74 315l149 13q-2 -35 4 -80t25 -76q27 -47 65.5 -60.5t69.5 -13.5q109 0 156 95q14 27 22 65.5t12.5 78.5t5.5 78t1 62h-295v121h295q0 25 -2 58.5t-7.5 68.5t-13.5 67.5t-20 57.5q-16 35 -49 63.5t-99 28.5q-39 0 -70.5 -16.5t-50.5 -38.5q-25 -31 -37 -84t-12 -90 l-143 16q4 55 23.5 118.5t56.5 108.5q41 51 106.5 80t145.5 29q72 0 131 -28.5t104 -94.5q31 -47 49.5 -105.5t27.5 -118t12 -112.5t3 -86q0 -43 -3 -97t-12 -112.5t-27.5 -113t-49.5 -97.5q-55 -78 -125.5 -102.5t-138.5 -24.5q-49 0 -113.5 16.5t-117.5 78.5 q-41 49 -60.5 118.5t-17.5 128.5z" />
<glyph unicode="&#x44e;" horiz-adv-x="1128" d="M127 0v1040h137v-436h135q0 43 7.5 93.5t21.5 99.5t35.5 94t50.5 78q31 35 84 65.5t131 30.5q55 0 109.5 -21.5t101.5 -76.5q41 -49 63.5 -112.5t34 -128t14.5 -119t3 -85.5q0 -117 -15.5 -197.5t-35 -134t-38 -82t-26.5 -36.5q-37 -43 -92 -71t-125 -28q-78 0 -131 33 t-86 74q-29 35 -49.5 84t-33.5 104.5t-19.5 110.5t-6.5 104h-133v-483h-137zM551 516q0 -33 2 -73t5 -78.5t9 -74.5t13 -61q12 -43 31.5 -69.5t40 -40t41 -17.5t32.5 -4q18 0 38.5 5.5t40 19.5t37 38.5t27.5 65.5q16 59 23.5 143.5t7.5 149.5q0 33 -2 73t-6 80t-9 76.5 t-14 63.5q-12 43 -30.5 67.5t-39 39t-39 18.5t-32.5 4q-16 0 -37.5 -5t-42 -19.5t-38 -40t-29.5 -68.5q-6 -27 -12.5 -64.5t-9.5 -77.5t-5 -80t-2 -71z" />
<glyph unicode="&#x44f;" horiz-adv-x="827" d="M27 0l215 469q-35 10 -62.5 29.5t-48.5 42.5q-45 51 -57.5 106t-12.5 105q0 55 18.5 120.5t86.5 114.5q55 41 110.5 47t114.5 6h309v-1040h-145v459h-164l-194 -459h-170zM213 743q0 -76 33 -116q31 -39 71.5 -47.5t77.5 -8.5h160v349h-156q-35 0 -73.5 -6.5t-69.5 -39.5 q-16 -16 -29.5 -46.5t-13.5 -84.5z" />
<glyph unicode="&#x451;" horiz-adv-x="794" d="M74 500q0 121 23.5 242.5t86.5 205.5q57 76 116.5 96.5t113.5 20.5q53 0 115.5 -18.5t119.5 -85.5q51 -61 80 -169t25 -290h-527q0 -33 2 -78t8.5 -90t17.5 -87t30 -69q27 -39 67.5 -59.5t83.5 -20.5q29 0 59.5 12.5t53.5 36.5q23 27 40 77t25 83l127 -35 q-6 -29 -19 -69.5t-38 -83.5q-27 -47 -56.5 -75t-62.5 -44t-64.5 -21.5t-62.5 -5.5q-86 0 -153.5 28t-120.5 105q-31 43 -48.5 96.5t-26.5 106.5t-12 102.5t-3 88.5zM203 1233v172h151v-172h-151zM231 623h361q-4 106 -14.5 161.5t-30.5 85.5q-20 31 -54 51.5t-75 20.5 t-77 -20.5t-58 -59.5q-23 -35 -33 -90t-19 -149zM487 1233v172h152v-172h-152z" />
<glyph unicode="&#x452;" horiz-adv-x="823" d="M4 1151v117h117v137h145v-137h301v-117h-301v-313q8 33 23.5 66.5t42 61t63.5 46t86 18.5q76 0 119 -28.5t62 -57.5q29 -43 39 -110.5t10 -178.5v-585q0 -70 -4.5 -121t-10.5 -87t-14 -59.5t-16 -40.5q-8 -16 -23.5 -36.5t-38 -38t-55.5 -29.5t-76 -12q-16 0 -43 4 t-57 14v133q23 -10 48 -13t40 -3q29 0 57.5 17.5t38.5 64.5q2 8 4 19.5t3 34t1 60v97.5v542q0 104 -6 149.5t-14 65.5q-12 33 -36 52.5t-65 19.5q-29 0 -55.5 -12t-46.5 -35q-23 -27 -38 -70t-23.5 -91t-11.5 -94t-3 -77v-524h-145v1151h-117z" />
<glyph unicode="&#x453;" horiz-adv-x="659" d="M127 0v1040h524v-120h-379v-920h-145zM209 1227l287 268l94 -117l-326 -219z" />
<glyph unicode="&#x454;" horiz-adv-x="813" d="M74 520q0 33 3 86t12 112.5t27.5 118t49.5 105.5q45 66 104.5 94.5t130.5 28.5q80 0 145.5 -28.5t106.5 -80.5q37 -45 56.5 -108.5t23.5 -118.5l-143 -16q0 37 -12.5 90t-36.5 84q-18 23 -50 39t-71 16q-66 0 -98.5 -28.5t-49.5 -63.5q-12 -25 -20 -57.5t-13.5 -67.5 t-7.5 -68.5t-2 -58.5h295v-121h-295q0 -25 1 -62.5t5.5 -77.5t12.5 -79t22 -65q47 -94 156 -95q31 0 70 13.5t65 60.5q18 31 24.5 76t4.5 80l149 -13q2 -59 -17.5 -128.5t-59.5 -118.5q-53 -61 -118 -78t-114 -17q-68 0 -138.5 25t-125.5 102q-31 43 -49.5 97.5t-27.5 113 t-12 112.5t-3 97z" />
<glyph unicode="&#x455;" horiz-adv-x="684" d="M27 264l129 35q4 -41 21.5 -85t45.5 -71q23 -20 55.5 -32.5t71.5 -12.5q47 0 77 16.5t44 35.5q35 41 35 108q0 45 -12.5 77t-47.5 60q-35 31 -81 54.5t-105 52.5q-33 16 -67.5 38.5t-64.5 54.5t-48.5 78t-18.5 107q0 59 22.5 118.5t68.5 100.5q47 43 96 54.5t96 11.5 t95 -10.5t98 -53.5q43 -39 62 -84t36 -112l-127 -35q-4 31 -19.5 72t-44.5 65q-16 16 -42.5 25.5t-55.5 9.5q-41 0 -68.5 -15.5t-44.5 -35.5q-18 -25 -23 -48.5t-5 -43.5q0 -41 12 -73t49 -60q27 -23 61.5 -39.5t82.5 -40.5q57 -31 89.5 -49.5t57.5 -38.5 q59 -47 79.5 -102.5t20.5 -116.5q0 -72 -22.5 -129.5t-56.5 -92.5q-37 -39 -95.5 -61.5t-130.5 -22.5q-66 0 -114 15.5t-79.5 38t-51 45t-27.5 39.5q-23 35 -36 75.5t-17 77.5z" />
<glyph unicode="&#x456;" horiz-adv-x="399" d="M121 1225v180h158v-180h-158zM127 0v1040h145v-1040h-145z" />
<glyph unicode="&#x457;" horiz-adv-x="632" d="M121 1225v180h149v-180h-149zM242 0v1040h145v-1040h-145zM362 1225v180h150v-180h-150z" />
<glyph unicode="&#x458;" horiz-adv-x="395" d="M-61 -233h71q23 0 49.5 4t44.5 32q12 18 15.5 52t3.5 114v1071h145v-1077q0 -39 -1 -81t-7 -81t-21.5 -72.5t-43.5 -56.5q-39 -31 -89.5 -34t-85.5 -3h-81v132zM117 1227v178h157v-178h-157z" />
<glyph unicode="&#x459;" horiz-adv-x="1290" d="M8 0v119q49 -4 83 21.5t50 66.5q6 14 13.5 43t13.5 83t12 139t10 214q2 37 3.5 89t2.5 103.5t1 95.5v66h487v-417h160q57 0 125.5 -14.5t122.5 -69.5q47 -49 59 -113t12 -115q0 -45 -8 -96t-39 -98q-25 -37 -56.5 -59.5t-68.5 -36t-75.5 -17.5t-73.5 -4h-305v909h-211 q-2 -68 -3 -116t-1 -83.5t-1.5 -63.5t-1.5 -52q-2 -78 -6 -139.5t-12 -141.5q-6 -61 -20.5 -121.5t-55.5 -113.5q-29 -35 -59.5 -52.5t-59 -23.5t-54 -6t-44.5 4zM684 121h111q39 0 88 8t80 43q23 27 32 67t9 74q0 111 -54 154q-14 12 -34.5 19.5t-41 10.5t-40 4t-33.5 1 h-117v-381z" />
<glyph unicode="&#x45a;" horiz-adv-x="1331" d="M127 0v1040h147v-428h304v428h147v-428h160q59 0 126.5 -14t121.5 -70q47 -49 59 -108.5t12 -108.5q0 -45 -9 -96t-38 -98q-25 -37 -56.5 -59.5t-68.5 -36t-75.5 -17.5t-73.5 -4h-305v492h-304v-492h-147zM725 121h115q35 0 84 8t80 43q20 23 30 61.5t10 79.5q0 33 -9 73 t-44 69t-71.5 33t-77.5 4h-117v-371z" />
<glyph unicode="&#x45b;" horiz-adv-x="823" d="M4 1151v117h117v137h145v-137h301v-117h-301v-309q10 47 33 79.5t45 55.5q35 31 66.5 42t72.5 11q33 0 84 -12t92 -70q35 -49 43.5 -130t8.5 -212v-606h-146v606q0 70 -3 115t-7 72.5t-9 41t-9 19.5q-12 20 -37 34.5t-60 14.5q-74 0 -116 -72q-18 -29 -29.5 -72.5 t-18 -89.5t-8.5 -90t-2 -75v-504h-145v1151h-117z" />
<glyph unicode="&#x45c;" horiz-adv-x="737" d="M127 0v1040h147v-432h97q33 0 60.5 15.5t43.5 66.5q10 29 13.5 56.5t7.5 68.5q4 29 8 62.5t14 66.5q10 35 26.5 55.5t35 31.5t36 14.5t29.5 3.5q10 0 28.5 -3.5t24.5 -5.5v-116q-18 4 -29.5 -3.5t-15.5 -11.5q-10 -10 -15 -31.5t-11 -66.5q-4 -35 -7.5 -59.5t-6.5 -42 t-5 -30.5t-6 -26q-14 -45 -40.5 -68.5t-61.5 -33.5v-2q31 -8 52 -24.5t34.5 -37t20.5 -43t11 -43.5q6 -31 10.5 -66.5t7.5 -69.5t7 -62.5t12 -46.5q4 -10 20.5 -28.5t53.5 -8.5v-117q-27 -14 -59 -14q-39 0 -64.5 12t-42 29.5t-26 38t-15.5 36.5q-10 29 -18 76t-19 142 q-4 35 -11 71.5t-25 59.5q-12 14 -33 24t-41 10h-101v-487h-147zM260 1227l287 268l94 -117l-326 -219z" />
<glyph unicode="&#x45e;" horiz-adv-x="624" d="M-8 1040h158l169 -718l179 718h135l-297 -1140q-14 -53 -38 -116t-58 -99q-37 -41 -77 -50.5t-69 -9.5q-27 0 -46 4t-38 11v131q37 -16 74 -17q39 0 56.5 16.5t33.5 53.5q10 23 21.5 61.5t15.5 61.5l29 125zM94 1380h121q0 -20 4 -47.5t14 -44.5q12 -20 33 -32.5 t47 -12.5q27 0 47.5 12.5t32.5 32.5q10 16 14.5 44t4.5 48h120q0 -43 -14 -87t-41 -72q-37 -41 -81 -53.5t-83 -12.5t-83 12.5t-80 53.5q-27 29 -41.5 72.5t-14.5 86.5z" />
<glyph unicode="&#x45f;" horiz-adv-x="851" d="M127 0v1040h147v-913h304v913h147v-1040h-233v-287h-132v287h-233z" />
<glyph unicode="&#x490;" horiz-adv-x="761" d="M137 0v1405h479v242h148v-379h-465v-1268h-162z" />
<glyph unicode="&#x491;" horiz-adv-x="659" d="M127 0v1040h385v250h139v-370h-379v-920h-145z" />
<glyph unicode="&#x2000;" horiz-adv-x="907" />
<glyph unicode="&#x2001;" horiz-adv-x="1815" />
<glyph unicode="&#x2002;" horiz-adv-x="907" />
<glyph unicode="&#x2003;" horiz-adv-x="1815" />
<glyph unicode="&#x2004;" horiz-adv-x="605" />
<glyph unicode="&#x2005;" horiz-adv-x="453" />
<glyph unicode="&#x2006;" horiz-adv-x="302" />
<glyph unicode="&#x2007;" horiz-adv-x="302" />
<glyph unicode="&#x2008;" horiz-adv-x="226" />
<glyph unicode="&#x2009;" horiz-adv-x="363" />
<glyph unicode="&#x200a;" horiz-adv-x="100" />
<glyph unicode="&#x2010;" horiz-adv-x="505" d="M74 465v129h358v-129h-358z" />
<glyph unicode="&#x2011;" horiz-adv-x="505" d="M74 465v129h358v-129h-358z" />
<glyph unicode="&#x2012;" horiz-adv-x="505" d="M74 465v129h358v-129h-358z" />
<glyph unicode="&#x2013;" horiz-adv-x="757" d="M74 465v129h610v-129h-610z" />
<glyph unicode="&#x2014;" horiz-adv-x="1153" d="M74 465v129h1005v-129h-1005z" />
<glyph unicode="&#x2018;" horiz-adv-x="397" d="M94 958v201l123 258h86l-94 -241h72v-218h-187z" />
<glyph unicode="&#x2019;" horiz-adv-x="288" d="M39 948l96 240h-72v217h187v-201l-123 -256h-88z" />
<glyph unicode="&#x201c;" horiz-adv-x="688" d="M94 958v201l123 258h86l-94 -241h74v-218h-189zM383 958v201l121 258h90l-98 -241h73v-218h-186z" />
<glyph unicode="&#x201d;" horiz-adv-x="688" d="M94 948l99 240h-76v217h186v-201l-119 -256h-90zM383 948l96 240h-73v217h188v-201l-123 -256h-88z" />
<glyph unicode="&#x201e;" horiz-adv-x="688" d="M94 -242l99 242h-76v217h186v-201l-119 -258h-90zM383 -242l96 242h-73v217h188v-201l-123 -258h-88z" />
<glyph unicode="&#x2026;" horiz-adv-x="1949" d="M238 0v225h182v-225h-182zM885 0v225h180v-225h-180zM1530 0v225h182v-225h-182z" />
<glyph unicode="&#x202f;" horiz-adv-x="363" />
<glyph unicode="&#x205f;" horiz-adv-x="453" />
<glyph unicode="&#x20ac;" horiz-adv-x="901" d="M8 512l45 123h86q-4 74 0 162h-129l45 123h95q2 45 12 99t25.5 108.5t38 103.5t50.5 86q59 74 125 94.5t123 20.5q70 0 127.5 -16.5t100.5 -39.5q33 -16 66.5 -39.5t66.5 -54.5l-51 -141q-25 27 -61 56.5t-71 49.5q-29 16 -80 34.5t-100 18.5q-51 0 -85 -20t-56.5 -51 t-34.5 -66t-18 -65q-10 -51 -15.5 -97.5t-7.5 -80.5h449l-47 -123h-408q-4 -41 -3 -81t5 -81h348l-45 -123h-297q4 -61 9.5 -106.5t15.5 -86.5q14 -66 38.5 -107.5t53.5 -65t58.5 -33t58.5 -9.5q55 0 114 27q35 14 91.5 51t109.5 109v-178q-23 -23 -56.5 -48.5t-66.5 -41.5 q-20 -10 -48 -19.5t-56.5 -15.5t-57 -10.5t-49.5 -4.5q-98 0 -164.5 45t-101.5 95q-31 43 -51.5 97t-32.5 109.5t-18.5 106.5t-8.5 86h-137z" />
<glyph unicode="&#x2122;" horiz-adv-x="1189" d="M2 1260v102h440v-102h-159v-699h-123v699h-158zM487 561v801h158l152 -590l149 590h158v-801h-121l6 598l-155 -598h-89l-149 600l6 -600h-115z" />
<glyph unicode="&#x25fc;" horiz-adv-x="1044" d="M0 0v1044h1044v-1044h-1044z" />
</font>
</defs>
</svg>
