<?xml version="1.0" encoding="iso-8859-1"?>
<!-- Generator: Adobe Illustrator 19.0.0, SVG Export Plug-In . SVG Version: 6.00 Build 0)  -->
<svg xmlns="http://www.w3.org/2000/svg" xmlns:xlink="http://www.w3.org/1999/xlink" version="1.1" id="Layer_1" x="0px" y="0px" viewBox="0 0 512 512" style="enable-background:new 0 0 512 512;" xml:space="preserve" width="512px" height="512px">
<g>
	<g>
		<g>
			<path d="M63.691,239.157c2.094,0,4.206-0.614,6.059-1.894c4.846-3.352,6.057-9.996,2.706-14.841     c-0.375-0.542-0.75-1.086-1.117-1.627c-3.302-4.879-9.934-6.156-14.813-2.853c-4.879,3.302-6.157,9.934-2.854,14.813     c0.406,0.601,0.82,1.202,1.237,1.802C56.981,237.55,60.308,239.157,63.691,239.157z" fill="#91DC5A"/>
			<path d="M256.001,213.331c-23.528,0-42.667,19.14-42.667,42.668c0,23.525,19.139,42.666,42.667,42.666     c23.528,0,42.669-19.139,42.669-42.666C298.67,232.473,279.528,213.331,256.001,213.331z M256.001,277.332     c-11.762,0-21.333-9.569-21.333-21.332c0-11.764,9.571-21.335,21.333-21.335c11.764,0,21.336,9.57,21.336,21.335     C277.336,267.763,267.765,277.332,256.001,277.332z" fill="#91DC5A"/>
			<path d="M452.522,271.073c-3.725-5.034-7.718-10.062-11.952-15.073c4.234-5.011,8.227-10.041,11.952-15.074     c32.737-44.241,41.681-84.346,25.182-112.927c-10.865-18.821-32.079-30.85-61.349-34.787c-5.834-0.788-11.209,3.311-11.994,9.15     c-0.785,5.839,3.312,11.208,9.15,11.994c15.671,2.108,36.321,8.036,45.717,24.31c11.817,20.468,3.121,53.115-23.854,89.571     c-2.902,3.921-5.983,7.84-9.221,11.753c-16.348-17.087-35.432-33.785-56.588-49.554c-4.927-41.948-14.581-80.477-28.359-112.163     C319.264,27.796,289.004,0,256.001,0c-10.686,0-21.108,2.932-31.08,8.641C216.557,3.185,206.582,0,195.871,0     c-29.408,0-53.332,23.924-53.332,53.332c0,17.383,8.361,32.845,21.271,42.588c-0.029,0.08-0.059,0.158-0.087,0.238     c-6.459-1.162-12.813-2.106-19.038-2.815C90.001,87.111,50.798,99.418,34.295,128c-11.446,19.833-10.634,45.67,2.35,74.719     c2.404,5.378,8.715,7.792,14.092,5.386c5.377-2.404,7.79-8.713,5.386-14.091c-7.027-15.723-13.314-38.088-3.35-55.349     c11.817-20.468,44.44-29.261,89.498-24.127c4.857,0.554,9.802,1.264,14.821,2.114c-6.604,22.701-11.53,47.602-14.617,73.752     c-33.882,25.248-62.436,52.885-82.997,80.668c-32.739,44.241-41.683,84.346-25.181,112.927     c13.7,23.727,43.042,36.239,83.902,36.238c8.358,0,17.2-0.524,26.485-1.582c6.223-0.709,12.573-1.653,19.029-2.814     c2.223,6.172,4.581,12.145,7.079,17.888c21.944,50.473,52.204,78.27,85.207,78.27c33.002,0,63.263-27.797,85.207-78.27     c2.494-5.733,4.848-11.695,7.067-17.855c7.847,1.414,15.506,2.492,22.938,3.221c5.537,23.539,26.7,41.12,51.904,41.12     c29.406,0,53.332-23.924,53.332-53.333c0-5.893-0.977-11.562-2.75-16.866c1.465-1.927,2.804-3.936,4.006-6.017     C494.205,355.419,485.261,315.314,452.522,271.073z M139.84,219.432c-0.773,12.04-1.173,24.255-1.173,36.568     c0,12.293,0.387,24.456,1.143,36.418c-14.602-11.828-27.985-24.087-39.731-36.447C111.86,243.531,125.202,231.274,139.84,219.432     z M142.271,397.46c-45.061,5.132-77.682-3.66-89.498-24.127c-11.817-20.467-3.123-53.115,23.854-89.57     c2.909-3.931,5.998-7.859,9.244-11.781c16.304,16.985,35.486,33.74,56.555,49.482c3.077,26.246,8,51.157,14.632,73.888     C152.05,396.2,147.117,396.908,142.271,397.46z M372.183,219.448c14.64,11.846,27.983,24.108,39.764,36.552     c-11.781,12.445-25.125,24.705-39.764,36.551c0.763-12.004,1.152-24.211,1.152-36.551     C373.335,243.66,372.945,231.453,372.183,219.448z M345.747,173.659c-10.017-6.661-20.394-13.103-31.08-19.274     c-10.642-6.144-21.362-11.887-32.096-17.211c17.541-6.731,34.844-12.194,51.417-16.182     C338.867,137.402,342.81,155.076,345.747,173.659z M240.737,24.559c5.054-2.134,10.156-3.226,15.263-3.226     c23.636,0,47.562,23.853,65.645,65.444c1.948,4.484,3.808,9.124,5.581,13.896c-22.863,5.627-46.962,13.859-71.13,24.235     c-17.458-7.523-34.792-13.869-51.711-18.931c25.373-4.09,44.817-26.135,44.817-52.645     C249.202,42.739,246.085,32.866,240.737,24.559z M229.615,137.126c-10.87,5.367-21.667,11.132-32.282,17.26     c-10.667,6.159-21.025,12.59-31.027,19.24c2.942-18.565,6.88-36.26,11.746-52.674     C194.728,124.934,212.028,130.366,229.615,137.126z M195.871,21.333c3.646,0,7.148,0.622,10.417,1.75     c-6.802,6.754-13.296,14.946-19.406,24.536c-3.165,4.969-1.702,11.563,3.267,14.728c4.969,3.166,11.561,1.702,14.728-3.265     c5.829-9.151,11.928-16.699,18.194-22.581c3.038,4.893,4.8,10.659,4.8,16.83c0,17.644-14.354,31.999-31.998,31.999     c-17.644,0-31.998-14.354-31.998-31.999C163.873,35.688,178.227,21.333,195.871,21.333z M166.249,338.287     c10.081,6.73,20.473,13.199,31.086,19.327c10.709,6.183,21.476,11.946,32.233,17.277c-17.579,6.755-34.871,12.182-51.54,16.162     C173.136,374.614,169.188,356.907,166.249,338.287z M321.645,425.224c-18.083,41.59-42.009,65.444-65.644,65.444     c-23.633,0-47.561-23.853-65.642-65.444c-1.946-4.473-3.801-9.101-5.569-13.86c22.971-5.615,46.973-13.791,71.207-24.228     c24.392,10.507,48.407,18.655,71.209,24.243C325.439,416.133,323.587,420.756,321.645,425.224z M334.003,390.961     c-16.518-3.975-33.802-9.387-51.432-16.137c10.732-5.325,21.454-11.067,32.096-17.211c10.686-6.169,21.063-12.61,31.08-19.274     C342.814,356.906,338.877,374.562,334.003,390.961z M349.383,309.912c-14.265,10.232-29.456,20.032-45.382,29.227     c-15.891,9.175-31.944,17.418-47.904,24.645c-16.042-7.225-32.179-15.456-48.096-24.645     c-15.758-9.099-30.996-18.959-45.39-29.319c-1.721-17.44-2.61-35.465-2.61-53.821c0-18.323,0.905-36.402,2.652-53.936     c14.254-10.223,29.436-20.015,45.349-29.203c15.766-9.103,31.93-17.354,48.107-24.642c15.956,7.227,32.005,15.468,47.894,24.642     c15.925,9.195,31.117,18.995,45.382,29.226c1.727,17.469,2.619,35.524,2.619,53.914     C352.001,274.388,351.11,292.445,349.383,309.912z M423.116,438.883c-12.879,0-23.998-7.652-29.069-18.646     c11.135-0.031,21.583-0.991,31.152-2.93c5.773-1.17,9.506-6.799,8.335-12.573c-1.169-5.774-6.8-9.506-12.573-8.336     c-8.723,1.768-18.407,2.558-28.825,2.466c3.567-13.775,16.105-23.978,30.979-23.978c17.644,0,31.998,14.354,31.998,31.998     C455.114,424.529,440.76,438.883,423.116,438.883z M461.129,369.526c-9.683-9.85-23.144-15.973-38.013-15.973     c-26.219,0-48.063,19.022-52.496,43.985c-5.093-0.566-10.328-1.327-15.659-2.241c6.614-22.688,11.53-47.545,14.604-73.731     c21.156-15.77,40.24-32.469,56.588-49.556c3.237,3.911,6.319,7.832,9.221,11.753     C460.738,318.038,469.936,348.944,461.129,369.526z" fill="#91DC5A"/>
		</g>
	</g>
</g>
<g>
</g>
<g>
</g>
<g>
</g>
<g>
</g>
<g>
</g>
<g>
</g>
<g>
</g>
<g>
</g>
<g>
</g>
<g>
</g>
<g>
</g>
<g>
</g>
<g>
</g>
<g>
</g>
<g>
</g>
</svg>
