<?xml version="1.0" encoding="utf-8"?>
<!-- Generator: Adobe Illustrator 20.0.0, SVG Export Plug-In . SVG Version: 6.00 Build 0)  -->
<svg version="1.1" xmlns="http://www.w3.org/2000/svg" xmlns:xlink="http://www.w3.org/1999/xlink" x="0px" y="0px"
	 viewBox="0 0 404.9 193.6" style="enable-background:new 0 0 404.9 193.6;" xml:space="preserve">
<style type="text/css">
	.st0{fill:#BEAC83;}
	.st1{fill:#FFC423;}
	.st2{fill:#FE8A1E;}
	.st3{fill:#916F5D;}
	.st4{fill:#452F27;}
	.st5{fill:#232322;}
	.st6{fill:#292929;}
	.st7{display:none;}
	.st8{display:inline;fill:#1F4D80;}
	.st9{display:inline;}
	.st10{fill:#59B60F;}
</style>
<g id="Слой_1">
	<g>
		<polygon class="st0" points="136.9,30.4 136.9,15.9 135.7,16.6 88.3,44.9 86.7,44.9 86.6,44.9 86.6,127.9 86.7,127.9 151.4,112 
			151.4,28.1 		"/>
		<polygon class="st1" points="84.1,44.9 37.8,19.3 35,27.8 32.7,32.2 24.2,30.1 21.9,112 86.6,127.9 86.6,44.9 		"/>
		<g>
			<path class="st0" d="M98.2,157c0,0-5.9-30.2,35.7-28C133.9,129.1,125.7,167.3,98.2,157"/>
			<path class="st2" d="M80.2,165.4c0,0,2.1-25.1-28.8-25.3C51.5,140.1,51.5,170.1,80.2,165.4"/>
			<polygon class="st2" points="24.2,31.4 32.7,33.6 32.7,101.7 77.2,125.6 21.9,113.6 			"/>
			<polygon class="st3" points="100.5,124.2 138.8,101.7 138.8,31.4 152.4,29.7 151.4,113.3 			"/>
			<path class="st4" d="M170.6,0H2.8C1.3,0,0.2,1.1,0.2,2.6v114.9c0,10.2,2.9,20.2,8.3,28.8c5.5,8.6,13.2,15.5,22.4,19.8L85,191.7
				c0.4,0.3,1,0.5,1.5,0.5c0.6,0,1.1-0.2,1.5-0.5l54.1-25.6c9.2-4.4,17-11.2,22.4-19.8c5.5-8.6,8.3-18.6,8.3-28.8V2.6
				C173.1,1.1,172,0,170.6,0 M165.2,5.1l-22.7,22.7l-1.9,0.5v-5.7L158,5.2h7.2V5.1z M119,154.8c-2.9,2.2-10,2.7-15.2,2.7
				c-1,0-1.8,0-2.6,0l19.3-15.9c0.4-0.4,0.5-1,0.2-1.5c-0.4-0.5-1.1-0.6-1.6-0.3l-20.8,14.9c1.1-4.8,3.7-14.5,7.3-17.3
				c4.8-3.7,27.1-7,27.1-7S123.8,151,119,154.8 M92.9,131.2l-3.7,3.7v-2.8L92.9,131.2z M89.2,125.8V46.7v-0.5l46.3-25.6v79.6
				L89.2,125.8z M93.7,131l9.6-2.5l-3.2,3.2l-10.9,10.9v-7.1L93.7,131z M100.1,132.2l3.9-3.9l9.6-2.5l-6.2,6.2
				c-1.8,0.7-3.2,1.4-4.2,2.1c-1.8,1.4-3.4,3.9-4.7,6.7l-9.3,9.3V143L100.1,132.2z M124.6,123.1l9.6-2.5l-6.6,6.6
				c-2.5,0.4-5.6,1-8.8,1.7L124.6,123.1z M118.1,129.1c-3.5,0.8-7,1.7-9.9,2.7l6.1-6.1l9.6-2.5L118.1,129.1z M98.1,141.9
				c-1.5,3.5-2.6,7.4-3.3,10.4l-5.6,5.6v-7.1L98.1,141.9z M94.7,153.1c-0.3,1.4-0.6,2.7-0.7,3.5c-0.1,0.4-0.1,0.8,0,1.1l-4.8,3.3
				v-2.6L94.7,153.1z M96.8,161c0.2,0,0.4,0.1,0.6,0.1c0.1,0,1.6,0.1,3.9,0.2l-1.2,1.2l-10.9,10.8v-6L96.8,161z M100.1,163l1.7-1.7
				c0.6,0,1.3,0,2,0c2,0,3.7-0.1,5.3-0.2l-9,9L89.2,181v-7.1L100.1,163z M132.1,126.5c-0.8,0.1-2.1,0.3-3.8,0.6l6.7-6.7l9.6-2.5
				l-9.4,9.4c-0.7-0.6-1.6-0.9-2.5-0.9C132.5,126.5,132.3,126.5,132.1,126.5 M105.4,122.7l34-18.8c0.8-0.4,1.3-1.3,1.3-2.2V33.6
				l8.4-2.2v80.1L105.4,122.7z M157.5,5.1L140.6,22v-5.7c0-0.4-0.1-0.8-0.3-1.1l10-10L157.5,5.1L157.5,5.1z M149.8,5.1l-9.7,9.7
				c-0.2-0.3-0.5-0.6-0.8-0.7c-0.8-0.5-1.7-0.5-2.5,0l-6.8,3.8l12.7-12.7L149.8,5.1L149.8,5.1z M142.1,5.1l-13.3,13.3l-16,8.9
				L135,5.1C135,5.1,142.1,5.1,142.1,5.1z M134.5,5.1L111.6,28l-16,8.9l4.5-4.5l27.2-27.2h7.2V5.1z M119.1,5.1l-19,19l0,0L83.9,40.3
				l-4.6-2.5L100.1,17l11.8-11.8L119.1,5.1L119.1,5.1z M111.4,5.1l-11.3,11.3L79,37.5L74.4,35l25.7-25.7l4.2-4.2
				C104.3,5.1,111.4,5.1,111.4,5.1z M103.7,5.1l-3.6,3.6L74,34.8l-4.6-2.5L96.6,5.1H103.7z M96,5.1l-26.9,27l-4.6-2.5L88.9,5.1H96z
				 M88.3,5.1L64.1,29.3l-4.6-2.5L81.2,5.1H88.3z M80.7,5.1L59.2,26.6L54.6,24L73.5,5.1H80.7z M73,5.1L54.3,23.8l-4.6-2.5L65.8,5.1
				H73z M65.3,5.1l-16,16l-4.6-2.5L58.1,5.1H65.3z M57.6,5.1L44.4,18.4l-4.6-2.5L50.5,5.1H57.6z M49.9,5.1L39.4,15.6L36.5,14
				c-0.8-0.4-1.8-0.4-2.5,0c-0.1,0.1-0.2,0.2-0.3,0.3l9.2-9.2C42.9,5.1,49.9,5.1,49.9,5.1z M61.9,150.4l14.2,13.7
				c-3.7-0.1-11.5-0.7-14.2-3.1c-3.5-3.1-9.1-19.6-9.1-19.6s16.9,3.8,20.4,6.9c2.5,2.2,3.9,9.3,4.5,13.2l-14.8-12.4
				c-0.3-0.3-0.8-0.3-1.1,0.1C61.6,149.6,61.6,150.1,61.9,150.4 M61.9,139.7l10.6-10.6l5.7,1.5l-10.8,10.8
				C65.5,140.8,63.7,140.2,61.9,139.7 M61.4,139.6c-2.1-0.6-4.1-1.1-5.7-1.5l10.6-10.6L72,129L61.4,139.6z M24.2,111.5V31.4l8.4,2.2
				v68.1c0,0.9,0.5,1.8,1.3,2.2l34,18.8L24.2,111.5z M28,27.1l-5.6-1.4l0,0l11-11c-0.4,0.5-0.6,1-0.6,1.6v6.1L28,27.1z M32.7,22.9
				v5.4l-4.3-1.1L32.7,22.9z M5.3,5.1h6.2L7.9,8.7l-2.6,2.6V5.1z M5.3,11.8l2.6-2.6L12.1,5h7.1L7.9,16.4L5.3,19V11.8z M5.3,19.5
				L7.9,17L19.7,5.1h7.1l-19,19l-2.6,2.6L5.3,19.5L5.3,19.5z M5.3,27.2l2.6-2.6L27.4,5.1h7.1L7.9,31.8l-2.6,2.6V27.2z M5.3,34.9
				l2.6-2.6L35.1,5.1h7.1L21.8,25.6c-0.6,0-1.2,0.2-1.7,0.5c-0.6,0.5-1,1.2-1,2v0.1L7.9,39.5L5.3,42V34.9z M5.3,42.6L7.9,40
				l11.2-11.2v7.1L7.9,47.2l-2.6,2.6V42.6z M5.3,50.3l2.6-2.6l11.2-11.2v7.1L7.9,54.8l-2.6,2.6V50.3z M5.3,57.9l2.6-2.6l11.2-11.2
				v7.1L7.9,62.5l-2.6,2.6V57.9z M5.3,65.6L7.9,63l11.2-11.2V59L7.9,70.2l-2.6,2.6V65.6z M5.3,73.3l2.6-2.6l11.2-11.2v7.1L7.9,77.9
				l-2.6,2.6V73.3z M5.3,81l2.6-2.6l11.2-11.2v7.1L7.9,85.6l-2.6,2.6V81z M5.3,88.7l2.6-2.6l11.2-11.2V82l-7.6,7.6l-3.6,3.6l0,0
				l-2.6,2.6C5.3,95.8,5.3,88.7,5.3,88.7z M5.3,96.4l2.6-2.6l4.2-4.2l7.1-7.1v7.1L7.9,101l-2.6,2.6V96.4z M5.3,104.1l2.6-2.6
				l11.2-11.2v7.1L7.9,108.6l-2.6,2.6V104.1z M5.3,117.4v-5.7l2.6-2.6l11.2-11.2v7.1L7.9,116.3l-2.5,2.5
				C5.4,118.4,5.3,117.9,5.3,117.4 M5.4,119.4l2.5-2.5l11.2-11.2v7.1L7.9,124l-1.8,1.8C5.7,123.7,5.5,121.5,5.4,119.4 M6.2,126.3
				l1.7-1.7l11.2-11.2v0.2c0,1.2,0.8,2.2,1.9,2.5l2,0.5L7.9,131.7L7.6,132C7,130.1,6.5,128.2,6.2,126.3 M7.7,132.4l0.2-0.2
				l15.6-15.6l5.7,1.5L9.7,137.6C8.9,135.9,8.3,134.2,7.7,132.4 M9.9,137.9l19.7-19.7l5.7,1.5l-22.9,22.9
				C11.4,141.1,10.6,139.5,9.9,137.9 M12.9,143.5c-0.1-0.2-0.2-0.4-0.3-0.5l23.2-23.2l5.7,1.5l-25.9,25.9
				C14.6,146,13.7,144.7,12.9,143.5 M15.7,147.4l26.1-26.1l5.7,1.5L19,151.3C17.9,150.1,16.8,148.8,15.7,147.4 M19.3,151.6L48,122.9
				l5.7,1.5L23,155C21.7,153.9,20.5,152.8,19.3,151.6 M23.3,155.2L54,124.5l5.7,1.5l-32.3,32.3C26,157.3,24.7,156.3,23.3,155.2
				 M27.8,158.4L60.2,126l5.7,1.5l-10.6,10.6c-0.6-0.1-1.2-0.3-1.6-0.4c-0.3-0.1-0.6-0.1-0.8-0.1c-1.1,0-2.1,0.5-2.9,1.3
				c-0.9,1-1.2,2.5-0.8,3.8c0.1,0.3,0.2,0.7,0.4,1.1L32.4,161C30.8,160.2,29.3,159.4,27.8,158.4 M33.2,161.4
				c-0.2-0.1-0.3-0.2-0.4-0.2l17-17c0.5,1.4,1.2,3.2,1.9,5.2l-14.1,14.1L33.2,161.4z M37.9,163.7l13.9-13.9c0.6,1.6,1.4,3.4,2.1,5
				L42.8,166L37.9,163.7z M43.1,166.1l11-11c0.8,1.7,1.6,3.3,2.4,4.7l-8.5,8.5L43.1,166.1z M48.4,168.6l8.4-8.4
				c0.9,1.5,1.8,2.8,2.7,3.6c0.1,0.1,0.3,0.2,0.5,0.4l-6.7,6.7L48.4,168.6z M53.6,171.1l6.6-6.6c1.3,0.9,3.1,1.6,5,2.1l-6.8,6.8
				L53.6,171.1z M58.8,173.5l6.9-6.9c2,0.5,4.2,0.8,6.1,1l-8.2,8.2L58.8,173.5z M64,176l8.3-8.3c2.5,0.2,4.7,0.3,5.9,0.3
				c0.4,0,0.8-0.1,1.2-0.2l-10.6,10.6L64,176z M69.2,178.5l10.7-10.7l3.6,3.5l-9.5,9.5L69.2,178.5z M84.1,185.5l-4.4-2.1l1.5-1.5
				l0,0l2.9-2.9V185.5z M84.1,178.4l-3.4,3.4l-1.4,1.4l-4.8-2.3l9.5-9.5l0.2,0.2L84.1,178.4L84.1,178.4z M84.1,166.8l-1.7-1.4
				l1.7-1.7V166.8z M84.1,163.1l-2,2l-0.2-0.1c0.1-0.4,0.1-0.8,0.1-1.3c-0.1-1-0.3-2.8-0.7-5l2.8-2.8
				C84.1,155.9,84.1,163.1,84.1,163.1z M84.1,155.4l-2.9,2.9c-0.3-1.8-0.8-3.8-1.4-5.7l4.3-4.3V155.4z M84.1,147.7l-4.5,4.5
				c-0.6-1.8-1.3-3.5-2.3-4.9l6.7-6.7v7.1H84.1z M84.1,140l-6.9,7c-0.4-0.6-0.8-1.1-1.3-1.5c-0.6-0.6-1.6-1.2-2.7-1.7l10.9-10.9V140
				z M84.1,132.3l-11.3,11.3c-1.5-0.7-3.2-1.4-5.1-2l10.8-10.8l5.5,1.4L84.1,132.3L84.1,132.3z M84.1,46.7v79.1l-46.3-25.6V20.6
				l46.3,25.6V46.7z M86.7,41.8l-2.4-1.3l15.8-15.8l19.5-19.5h7.1l-26.6,26.6l-5.7,5.7L86.7,41.8z M89.2,185.5v-4l10.9-10.9l9.6-9.6
				c4.4-0.3,7.1-1,8.9-1.7l-18.5,18.5l-4.1,4.1l0,0l-0.8,0.8L89.2,185.5z M160.4,143.5c-4.9,7.8-12,14-20.3,18l-0.1,0.1l23.3-23.3
				C162.5,140,161.5,141.8,160.4,143.5 M163.8,137.2L139,162l-13.6,6.4l41.6-41.6C166.4,130.3,165.3,133.8,163.8,137.2 M167.2,126.1
				l-42.8,42.8l-13.6,6.4l57.1-57.1C167.9,120.8,167.7,123.5,167.2,126.1 M168,117.4c0,0.1,0,0.1,0,0.2l-58.2,58.2l-13.6,6.4
				l0.3-0.3l3.5-3.5l19.4-19.4c0.9-0.5,1.5-0.9,1.8-1.1c1.2-0.9,2.5-2.6,3.9-4.6l42.7-42.7v6.8H168z M168,109.9l-41.8,41.8
				c2.9-4.6,5.8-10.6,7.8-14.9l34-34V109.9z M168,102.2l-33.5,33.5c0.8-1.8,1.4-3.2,1.7-3.9c0.5-1.3,0.4-2.8-0.5-3.8
				c-0.1-0.1-0.2-0.2-0.3-0.3l9.9-9.9l7-1.8c1.1-0.3,1.9-1.3,1.9-2.5v-4.6L168,95.1L168,102.2L168,102.2z M168,94.5l-13.8,13.8v-7.1
				l11.5-11.5l2.3-2.3V94.5z M168,86.9l-2.8,2.8l0,0l-11,11v-7.1l3.9-3.9l9.9-9.9L168,86.9L168,86.9z M168,79.2l-10.5,10.5l0,0
				l-3.3,3.3v-7.1L168,72V79.2z M168,71.5l-13.8,13.8v-7.1L168,64.4V71.5z M168,63.8l-13.8,13.8v-7.1L168,56.7V63.8z M168,56.1
				l-13.8,13.8v-7.1L168,49V56.1z M168,48.4l-13.8,13.8v-7.1L168,41.3V48.4z M168,40.7l-13.8,13.8v-7.1L168,33.6V40.7z M168,33.1
				l-13.8,13.8v-7.1L168,26V33.1z M168,25.4l-13.8,13.8V32L168,18.2V25.4z M168,17.7l-13.8,13.8v-3.4c0-0.8-0.4-1.5-1-2
				c-0.1-0.1-0.3-0.2-0.5-0.3L168,10.5V17.7z M168,10l-15.7,15.7c-0.4-0.1-0.9-0.1-1.3,0l-7.8,2l22.5-22.5h2.3V10z"/>
		</g>
	</g>
	<g>
		<g>
			<g>
				<path class="st5" d="M247.3,27.8c-0.1,2.6-0.2,5.1-0.4,7.7c-0.2,2.6-0.5,5.1-0.7,7.8h-2.7l-4.2-10.4h-22.6V58h16.9l4-7.1h2.6
					c0.5,6.3,0.5,12.7,0,19.2h-2.6l-4-7.2h-16.9v26.6h23.8l5.1-11.5h2.6c0.5,2.7,0.8,5.4,1,8.1c0.2,2.7,0.3,5.5,0.1,8.2h-51.1v-2.7
					c2.4-1,5.2-1.7,8.5-2.3V33c-1.4-0.3-2.8-0.5-4.2-1c-1.5-0.4-2.8-0.9-4.2-1.4v-2.7H247.3z"/>
			</g>
		</g>
		<g>
			<g>
				<path class="st5" d="M296.7,89.4c3.4,0.5,6.7,1.3,9.9,2.3v2.7h-28.4v-2.7c2.8-1,5.6-1.7,8.5-2.3V33c-1.4-0.3-2.8-0.5-4.2-1
					c-1.5-0.4-2.8-0.9-4.2-1.4v-2.7h48.5c0,1.3,0,2.7-0.1,4.4c-0.1,1.6-0.1,3.4-0.2,5.1c-0.1,1.7-0.2,3.5-0.3,5.2
					c-0.2,1.6-0.3,3.2-0.6,4.5h-2.7l-5.4-14.3h-20.9L296.7,89.4L296.7,89.4z"/>
			</g>
		</g>
		<g>
			<g>
				<path class="st5" d="M364.5,64.6c-0.4-1.3-0.6-2.6-0.6-3.8c0-1.3,0.2-2.5,0.6-3.7l30.1,0.1c-0.6-8.5-3-14.9-7.4-19.2
					c-4.4-4.2-10.5-6.4-18.1-6.4c-2.3,0-4,0.2-5.4,0.5c-1.4,0.4-2.3,0.8-2.8,1.3l-5.5,11.6h-2.8c-0.2-0.8-0.3-1.8-0.5-2.9
					c-0.2-1.1-0.3-2.4-0.4-3.6c-0.1-1.3-0.2-2.6-0.2-3.9s-0.1-2.7-0.1-3.9c1-0.7,2.3-1.4,3.8-1.8c1.5-0.5,3-0.9,4.6-1.2
					s3.2-0.5,5-0.6c1.7-0.1,3.3-0.2,4.7-0.2c5.6,0,10.6,0.6,15,1.9c4.4,1.3,8.1,3.3,11.1,6s5.3,6.3,7,10.6c1.6,4.3,2.4,9.5,2.4,15.7
					c0,6-1,11.3-2.9,15.7c-1.9,4.3-4.5,7.9-7.7,10.7c-3.2,2.7-6.9,4.9-10.9,6.2c-4.1,1.4-8.4,2-12.8,2c-4.6,0-8.4-0.3-11.5-0.8
					c-3-0.5-5.8-1.4-8.3-2.4c0.1-1,0.2-2.2,0.3-3.7c0.1-1.5,0.2-2.8,0.4-4.4c0.1-1.5,0.3-2.9,0.5-4.4c0.2-1.5,0.4-2.7,0.5-4h2.7
					l5.4,13.9c0.7,0.4,2,0.6,3.9,0.7c1.8,0.1,3.6,0.2,5.2,0.2c3.1,0,6.2-0.6,9.1-1.8c2.9-1.2,5.6-3,8-5.4s4.2-5.4,5.7-9.1
					c1.5-3.6,2.2-7.9,2.2-12.6L364.5,64.6z"/>
			</g>
		</g>
	</g>
	<g>
		<g>
			<g>
				<path class="st6" d="M198.9,151.4V150c0.9-0.4,2.4-0.8,4.2-1.1v-28.1c-1.4-0.2-2.8-0.6-4.2-1.2v-1.4h13v1.4
					c-1,0.4-2.3,0.8-3.9,1.2V149h15.4v-28.2c-0.6-0.1-1.3-0.3-1.9-0.5c-0.6-0.2-1.3-0.5-1.9-0.7v-1.4h13v1.4
					c-1.4,0.6-2.8,0.9-4.2,1.2V149h5.9c0,0.6,0,1.4-0.1,2.2c-0.1,0.8-0.2,1.7-0.3,2.6c-0.1,0.9-0.2,1.7-0.4,2.6
					c-0.1,0.8-0.3,1.6-0.4,2.2H232l-2.2-7.2L198.9,151.4L198.9,151.4z"/>
			</g>
		</g>
		<g>
			<g>
				<path class="st6" d="M270.7,118.3c0,1.3-0.1,2.6-0.2,3.9s-0.2,2.6-0.4,3.9h-1.4l-2.1-5.2h-11.2v12.6h8.4l2-3.5h1.3
					c0.2,3.1,0.2,6.3,0,9.6h-1.3l-2-3.6h-8.4V149h11.8l2.5-5.7h1.3c0.3,1.3,0.4,2.7,0.6,4c0.1,1.4,0.1,2.8,0.1,4.1h-25.3v-1.4
					c1.2-0.5,2.6-0.9,4.2-1.1v-28.1c-0.6-0.1-1.4-0.3-2.1-0.5c-0.7-0.2-1.5-0.5-2.1-0.6v-1.4h24.3V118.3z"/>
			</g>
		</g>
		<g>
			<g>
				<path class="st6" d="M299.1,151.4h-13V150c1.4-0.5,2.8-0.9,4.2-1.1v-28.1c-1.7-0.2-3-0.6-4.2-1.2v-1.4h13v1.4
					c-0.6,0.3-1.2,0.6-1.8,0.7c-0.6,0.2-1.3,0.4-2,0.5v12.4h16.2v-12.4c-0.7-0.2-1.4-0.4-2-0.6c-0.6-0.2-1.2-0.5-1.8-0.6v-1.4h13
					v1.4c-0.6,0.3-1.3,0.6-2,0.7c-0.7,0.2-1.5,0.4-2.2,0.5v28.1c0.8,0.1,1.6,0.3,2.3,0.5c0.7,0.2,1.4,0.5,1.9,0.6v1.4h-13V150
					c1.2-0.5,2.5-0.9,3.9-1.1v-13.3h-16.2v13.3c0.6,0.1,1.4,0.3,2,0.5s1.3,0.5,1.8,0.6V151.4z"/>
			</g>
		</g>
		<g>
			<g>
				<path class="st6" d="M355,151.4h-14.4V150c0.7-0.3,1.6-0.5,2.3-0.6c0.7-0.2,1.6-0.4,2.5-0.5v-28.2h-7.9l-2.8,6.8h-1.3
					c-0.1-0.6-0.2-1.4-0.3-2.1c-0.1-0.8-0.1-1.7-0.2-2.5s-0.1-1.7-0.1-2.5s-0.1-1.6-0.1-2.2h29.9c0,0.6,0,1.4-0.1,2.1
					c0,0.8-0.1,1.6-0.1,2.5c-0.1,0.8-0.1,1.7-0.2,2.5c-0.1,0.8-0.1,1.6-0.3,2.2h-1.4l-2.6-6.8h-7.8v28.2c0.9,0.2,1.7,0.3,2.5,0.5
					s1.6,0.4,2.2,0.6V151.4z"/>
			</g>
		</g>
		<g>
			<g>
				<path class="st6" d="M384.1,148.9c0.9,0.1,1.8,0.3,2.7,0.5c0.8,0.2,1.6,0.5,2.3,0.6v1.4h-14.1V150c0.6-0.3,1.4-0.6,2.1-0.7
					c0.7-0.2,1.4-0.3,2.1-0.5v-28.1c-0.8-0.1-1.6-0.3-2.2-0.5c-0.6-0.2-1.4-0.5-2-0.6v-1.4h4.6c1.4,0,2.8-0.1,4.5-0.2
					c1.7-0.1,3.1-0.2,4.6-0.2c1.7,0,3.3,0.2,5,0.5c1.7,0.4,3,0.9,4.3,1.7c1.3,0.8,2.3,1.8,3,3.1c0.7,1.3,1.2,2.9,1.2,4.9
					c0,1.8-0.4,3.5-1.2,4.8c-0.8,1.3-1.8,2.4-3.1,3.3c-1.3,0.8-2.8,1.5-4.5,1.8c-1.7,0.4-3.4,0.6-5.2,0.6c-0.2,0-0.5,0-0.8,0
					s-0.7,0-1.2,0c-0.5,0-0.8,0-1.2-0.1c-0.4,0-0.6-0.1-0.8-0.1L384.1,148.9L384.1,148.9z M387.6,120.3c-0.8,0-1.5,0-2,0.1
					c-0.6,0-1,0.1-1.5,0.2v15.3c0.2,0.1,0.5,0.1,0.7,0.1c0.4,0,0.6,0,1,0.1c0.4,0,0.7,0.1,1,0.1c0.4,0,0.6,0,0.8,0
					c1.2,0,2.3-0.2,3.4-0.5c1.1-0.3,2-0.8,2.8-1.5c0.8-0.6,1.5-1.5,1.9-2.5c0.5-1,0.7-2.2,0.7-3.7c0-2.6-0.8-4.5-2.4-5.9
					C392.6,120.9,390.4,120.3,387.6,120.3z"/>
			</g>
		</g>
	</g>
</g>
<g id="Слой_2" class="st7">
	<rect x="860.9" y="462.2" class="st8" width="1093.1" height="403.5"/>
	<g class="st9">
		<g>
			<g>
				<path class="st6" d="M247.1,28c-0.1,2.5-0.2,5.1-0.4,7.7c-0.2,2.6-0.4,5.2-0.8,7.8h-2.7L239,32.9h-22.6v25.3h16.9l4-7.1h2.6
					c0.4,6.3,0.4,12.7,0,19.3h-2.6l-4-7.3h-16.9v26.6h23.8l5.1-11.5h2.6c0.5,2.7,0.8,5.4,1,8.1c0.2,2.7,0.2,5.5,0.1,8.3H198V92
					c2.4-1,5.2-1.8,8.5-2.3V33.1c-1.4-0.3-2.8-0.6-4.2-1c-1.4-0.4-2.9-0.9-4.2-1.4V28L247.1,28L247.1,28z"/>
			</g>
		</g>
		<g>
			<g>
				<path class="st6" d="M296.4,89.7c3.4,0.5,6.7,1.3,9.9,2.3v2.8h-28.4V92c2.8-1,5.6-1.8,8.5-2.3V33.1c-1.4-0.3-2.8-0.6-4.2-1
					c-1.5-0.4-2.9-0.9-4.2-1.4V28h48.5c0,1.3,0,2.7-0.1,4.4c-0.1,1.7-0.1,3.4-0.2,5.2c-0.1,1.8-0.2,3.5-0.3,5.2
					c-0.1,1.7-0.3,3.2-0.5,4.5h-2.7l-5.4-14.3h-20.8L296.4,89.7L296.4,89.7z"/>
			</g>
		</g>
		<g>
			<g>
				<path class="st6" d="M364.2,64.8c-0.3-1.3-0.5-2.5-0.5-3.8c0-1.2,0.2-2.5,0.5-3.7l30.1,0.1c-0.6-8.6-3-15-7.5-19.3
					c-4.4-4.3-10.5-6.4-18.1-6.4c-2.3,0-4.1,0.2-5.4,0.5c-1.3,0.4-2.3,0.8-2.8,1.3l-5.5,11.7h-2.8c-0.1-0.8-0.3-1.8-0.4-3
					c-0.1-1.1-0.3-2.4-0.4-3.6c-0.1-1.3-0.2-2.6-0.2-4c0-1.4,0-2.7,0-4c1-0.8,2.3-1.4,3.8-1.9c1.5-0.5,3-0.9,4.6-1.2
					c1.6-0.3,3.2-0.5,4.9-0.7c1.7-0.1,3.3-0.2,4.7-0.2c5.6,0,10.6,0.7,15,2c4.4,1.3,8.1,3.3,11.1,6.1c3,2.8,5.4,6.3,6.9,10.7
					c1.6,4.4,2.4,9.6,2.4,15.7c0,6.1-1,11.3-2.9,15.7c-1.9,4.4-4.5,7.9-7.7,10.7c-3.2,2.8-6.9,4.9-11,6.2c-4.1,1.3-8.4,2-12.8,2
					c-4.6,0-8.4-0.3-11.5-0.8c-3.1-0.5-5.8-1.4-8.2-2.4c0.1-1,0.2-2.2,0.3-3.7c0.1-1.4,0.2-2.9,0.4-4.4c0.1-1.5,0.3-3,0.5-4.4
					c0.2-1.5,0.3-2.8,0.5-4h2.7l5.4,13.9c0.8,0.4,2,0.6,3.8,0.7c1.8,0.1,3.6,0.1,5.3,0.1c3.1,0,6.1-0.6,9.1-1.8c3-1.2,5.6-3,8-5.4
					c2.3-2.4,4.2-5.4,5.7-9.1c1.4-3.6,2.2-7.9,2.2-12.7L364.2,64.8z"/>
			</g>
		</g>
	</g>
	<g class="st9">
		<g>
			<g>
				<path class="st6" d="M198.6,151.4V150c1-0.4,2.4-0.8,4.2-1.1v-28.1c-1.3-0.2-2.7-0.6-4.2-1.2v-1.4h13v1.4
					c-1,0.4-2.3,0.8-3.9,1.2v28.2h15.4v-28.2c-0.6-0.1-1.2-0.3-1.9-0.5c-0.7-0.2-1.3-0.4-2-0.7v-1.4h13v1.4
					c-1.4,0.5-2.8,0.9-4.2,1.2v28.2h5.9c0,0.6,0,1.4-0.1,2.2c-0.1,0.8-0.2,1.7-0.3,2.6c-0.1,0.9-0.2,1.8-0.3,2.6
					c-0.1,0.8-0.3,1.6-0.4,2.2h-1.3l-2.2-7.2L198.6,151.4L198.6,151.4z"/>
			</g>
		</g>
		<g>
			<g>
				<path class="st6" d="M270.5,118.2c0,1.3-0.1,2.5-0.2,3.8c-0.1,1.3-0.2,2.6-0.4,3.9h-1.3l-2.1-5.2h-11.2v12.6h8.4l2-3.5h1.3
					c0.2,3.1,0.2,6.3,0,9.6h-1.3l-2-3.6h-8.4v13.2h11.8l2.5-5.7h1.3c0.2,1.3,0.4,2.7,0.5,4c0.1,1.4,0.1,2.7,0.1,4.1h-25.4V150
					c1.2-0.5,2.6-0.9,4.2-1.1v-28.1c-0.7-0.1-1.4-0.3-2.1-0.5c-0.7-0.2-1.4-0.4-2.1-0.7v-1.4L270.5,118.2L270.5,118.2z"/>
			</g>
		</g>
		<g>
			<g>
				<path class="st6" d="M298.9,151.4h-13V150c1.4-0.5,2.8-0.9,4.2-1.1v-28.1c-1.6-0.2-3-0.6-4.2-1.2v-1.4h13v1.4
					c-0.6,0.3-1.2,0.5-1.9,0.7c-0.6,0.2-1.3,0.4-2,0.5v12.4h16.2v-12.4c-0.7-0.2-1.4-0.3-2-0.5c-0.6-0.2-1.2-0.4-1.8-0.7v-1.4h13
					v1.4c-0.6,0.3-1.3,0.6-2,0.7c-0.7,0.2-1.5,0.3-2.2,0.5v28.1c0.8,0.1,1.5,0.3,2.3,0.5c0.7,0.2,1.4,0.4,2,0.7v1.4h-13V150
					c1.2-0.5,2.5-0.9,3.9-1.1v-13.3H295v13.3c0.7,0.1,1.4,0.3,2,0.5c0.7,0.2,1.3,0.4,1.9,0.7L298.9,151.4L298.9,151.4z"/>
			</g>
		</g>
		<g>
			<g>
				<path class="st6" d="M354.8,151.4h-14.5V150c0.8-0.2,1.5-0.5,2.3-0.7c0.8-0.2,1.6-0.3,2.5-0.5v-28.2h-7.9l-2.7,6.8h-1.3
					c-0.1-0.6-0.2-1.4-0.3-2.2c-0.1-0.8-0.1-1.6-0.2-2.5c-0.1-0.8-0.1-1.7-0.1-2.5c0-0.8-0.1-1.5-0.1-2.2h29.9c0,0.6,0,1.3-0.1,2.1
					c0,0.8-0.1,1.6-0.1,2.4c-0.1,0.8-0.1,1.7-0.2,2.5c-0.1,0.8-0.1,1.5-0.2,2.2h-1.4l-2.7-6.8h-7.8v28.2c0.9,0.2,1.7,0.3,2.5,0.5
					c0.8,0.2,1.5,0.4,2.2,0.7V151.4z"/>
			</g>
		</g>
		<g>
			<g>
				<path class="st6" d="M384,148.9c0.9,0.1,1.8,0.2,2.6,0.4c0.8,0.2,1.6,0.4,2.3,0.7v1.4h-14.1V150c0.7-0.3,1.4-0.6,2.1-0.7
					c0.7-0.2,1.4-0.3,2.1-0.4v-28.1c-0.8-0.1-1.5-0.3-2.2-0.5c-0.7-0.2-1.4-0.4-2-0.7v-1.4h4.6c1.4,0,2.9-0.1,4.5-0.2
					c1.6-0.1,3.2-0.2,4.6-0.2c1.7,0,3.3,0.2,4.9,0.5c1.6,0.3,3,0.9,4.3,1.7c1.3,0.8,2.3,1.8,3,3.2c0.8,1.3,1.2,3,1.2,4.9
					c0,1.9-0.4,3.5-1.2,4.8c-0.8,1.3-1.8,2.4-3.2,3.3c-1.3,0.9-2.8,1.5-4.5,1.9c-1.7,0.4-3.4,0.6-5.2,0.6c-0.2,0-0.4,0-0.8,0
					c-0.4,0-0.7,0-1.2,0c-0.4,0-0.8,0-1.2-0.1c-0.4,0-0.6-0.1-0.8-0.1L384,148.9L384,148.9z M387.5,120.3c-0.8,0-1.5,0-2,0
					c-0.5,0-1,0.1-1.5,0.2v15.4c0.2,0.1,0.4,0.1,0.7,0.1c0.3,0,0.7,0,1,0.1c0.4,0,0.7,0,1.1,0c0.3,0,0.6,0,0.8,0
					c1.2,0,2.3-0.2,3.4-0.5c1.1-0.3,2-0.8,2.8-1.4c0.8-0.7,1.4-1.5,1.9-2.5c0.5-1,0.7-2.2,0.7-3.7c0-2.6-0.8-4.5-2.4-5.8
					C392.5,120.9,390.3,120.3,387.5,120.3z"/>
			</g>
		</g>
	</g>
	<g class="st9">
		<path class="st10" d="M170.1,0.6H2.9c-1.4,0-2.6,1.1-2.6,2.6v114.5c0,10.2,2.9,20.1,8.3,28.7c5.4,8.6,13.2,15.4,22.4,19.8l54,25.5
			c0.4,0.3,1,0.5,1.5,0.5c0.6,0,1.1-0.2,1.5-0.5l54-25.5c9.2-4.4,16.9-11.2,22.4-19.8c5.4-8.6,8.3-18.5,8.3-28.7V3.2
			C172.7,1.8,171.5,0.6,170.1,0.6z M164.8,5.7l-22.6,22.6l-1.9,0.5v-5.7l17.4-17.4C157.7,5.7,164.8,5.7,164.8,5.7z M118.7,154.9
			c-2.9,2.2-10,2.7-15.2,2.7c-1,0-1.8,0-2.6,0l19.2-15.9c0.4-0.4,0.5-1,0.2-1.5c-0.4-0.5-1.1-0.6-1.6-0.3l-20.7,14.8
			c1.1-4.8,3.7-14.4,7.2-17.2c4.8-3.7,27-6.9,27-6.9S123.6,151.2,118.7,154.9z M92.8,131.4l-3.7,3.7v-2.8L92.8,131.4z M89.1,126
			V47.2v-0.5l46.1-25.6v79.3L89.1,126z M93.5,131.2l9.6-2.4l-3.2,3.2l-10.8,10.8v-7.1L93.5,131.2z M99.9,132.4l3.9-3.9l9.6-2.4
			l-6.2,6.2c-1.7,0.7-3.2,1.4-4.2,2.1c-1.8,1.4-3.4,3.9-4.7,6.7l-9.3,9.3v-7.1L99.9,132.4z M124.4,123.3l9.6-2.4l-6.6,6.6
			c-2.5,0.4-5.6,1-8.8,1.7L124.4,123.3z M117.9,129.3c-3.5,0.8-7,1.7-9.8,2.7l6.1-6.1l9.6-2.4L117.9,129.3z M97.9,142.1
			c-1.5,3.5-2.5,7.3-3.3,10.4l-5.6,5.6v-7.1L97.9,142.1z M94.5,153.2c-0.3,1.4-0.6,2.7-0.7,3.5c-0.1,0.4-0.1,0.8,0,1.1l-4.7,3.3
			v-2.5L94.5,153.2z M96.7,161.1c0.2,0,0.4,0.1,0.6,0.1c0.1,0,1.6,0.1,3.9,0.2l-1.2,1.2l-10.8,10.8v-6L96.7,161.1z M99.9,163.1
			l1.7-1.7c0.6,0,1.3,0,2,0c2,0,3.7-0.1,5.3-0.2l-9,9L89.1,181v-7.1L99.9,163.1z M131.8,126.7c-0.7,0.1-2.1,0.3-3.8,0.6l6.7-6.7
			l9.6-2.4l-9.4,9.4c-0.7-0.6-1.6-0.9-2.5-0.9C132.2,126.7,132,126.7,131.8,126.7z M105.1,122.9l33.9-18.7c0.8-0.5,1.3-1.3,1.3-2.2
			V34.1l8.4-2.1v79.9L105.1,122.9z M157.1,5.7l-16.8,16.8v-5.7c0-0.4-0.1-0.8-0.3-1.1l10-10C150,5.7,157.1,5.7,157.1,5.7z
			 M149.5,5.7l-9.6,9.6c-0.2-0.3-0.5-0.6-0.8-0.7c-0.8-0.5-1.7-0.5-2.5,0l-6.8,3.8l12.6-12.6L149.5,5.7L149.5,5.7z M141.8,5.7
			L128.5,19l-15.9,8.8l22.1-22.1L141.8,5.7L141.8,5.7z M134.2,5.7l-22.8,22.8l-15.9,8.8l4.5-4.5L127,5.7
			C127,5.7,134.2,5.7,134.2,5.7z M118.8,5.7L99.9,24.7v0L83.8,40.8l-4.6-2.5l20.7-20.7l11.8-11.8C111.7,5.7,118.8,5.7,118.8,5.7z
			 M111.2,5.7L99.9,17l0,0L78.9,38.1l-4.6-2.5L99.9,9.9l4.1-4.1C104.1,5.7,111.2,5.7,111.2,5.7z M103.5,5.7l-3.6,3.6l0,0l-26,26
			l-4.6-2.5l27-27H103.5z M95.9,5.7L69,32.6l-4.6-2.5L88.7,5.7C88.7,5.7,95.9,5.7,95.9,5.7z M88.2,5.7L64.1,29.9l-4.6-2.5L81.1,5.7
			H88.2z M80.5,5.7L59.1,27.1l-4.6-2.5L73.4,5.7H80.5z M72.9,5.7L54.2,24.4l-4.6-2.5L65.8,5.7H72.9z M65.2,5.7L49.3,21.7l-4.6-2.5
			L58.1,5.7H65.2z M57.6,5.7L44.4,18.9l-4.6-2.5L50.4,5.7C50.4,5.7,57.6,5.7,57.6,5.7z M49.9,5.7L39.4,16.2l-2.9-1.6
			c-0.8-0.4-1.8-0.4-2.5,0c-0.1,0.1-0.2,0.2-0.3,0.3l9.2-9.2L49.9,5.7L49.9,5.7z M61.9,150.6L76,164.2c-3.7-0.1-11.5-0.7-14.1-3.1
			c-3.5-3.1-9.1-19.5-9.1-19.5s16.9,3.8,20.4,6.9c2.5,2.2,3.9,9.3,4.5,13.2L63,149.3c-0.3-0.3-0.8-0.3-1.1,0.1
			C61.5,149.7,61.5,150.2,61.9,150.6z M61.8,139.9l10.5-10.5l5.7,1.4l-10.8,10.8C65.5,141,63.6,140.4,61.8,139.9z M61.4,139.8
			c-2.1-0.6-4.1-1.1-5.7-1.4l10.5-10.5l5.7,1.5L61.4,139.8z M24.3,111.8V31.9l8.4,2.1V102c0,0.9,0.5,1.8,1.3,2.2l33.9,18.7
			L24.3,111.8z M28,27.6l-5.6-1.4c0,0,0,0,0,0l11-11c-0.4,0.5-0.6,1-0.6,1.6v6.1L28,27.6z M32.7,23.5v5.3l-4.3-1.1L32.7,23.5z
			 M5.4,5.7h6.1L8,9.3l0,0l-2.6,2.6C5.4,11.9,5.4,5.7,5.4,5.7z M5.4,12.4L8,9.9l4.1-4.1h7.1L8,17l-2.6,2.6
			C5.4,19.5,5.4,12.4,5.4,12.4z M5.4,20.1L8,17.5L19.8,5.7h7.1L8,24.7l-2.6,2.5C5.4,27.2,5.4,20.1,5.4,20.1z M5.4,27.8L8,25.2
			L27.5,5.7h7.1L8,32.3l-2.6,2.6C5.4,34.9,5.4,27.8,5.4,27.8z M5.4,35.4L8,32.9L35.1,5.7h7.1L21.9,26.1c-0.6,0-1.2,0.2-1.7,0.5
			c-0.6,0.5-1,1.2-1,2v0.1L8,40l-2.6,2.6V35.4z M5.4,43.1L8,40.5l11.2-11.2v7.1L8,47.6l-2.6,2.6C5.4,50.2,5.4,43.1,5.4,43.1z
			 M5.4,50.7L8,48.2L19.2,37v7.1L8,55.3l-2.6,2.6C5.4,57.9,5.4,50.7,5.4,50.7z M5.4,58.4L8,55.8l11.2-11.2v7.1L8,63l-2.6,2.6
			C5.4,65.5,5.4,58.4,5.4,58.4z M5.4,66.1L8,63.5l11.2-11.2v7.1L8,70.6l-2.6,2.6C5.4,73.2,5.4,66.1,5.4,66.1z M5.4,73.7L8,71.2
			L19.2,60v7.1L8,78.3l-2.6,2.6C5.4,80.8,5.4,73.7,5.4,73.7z M5.4,81.4L8,78.8l11.2-11.2v7.1L8,85.9l0,0l-2.6,2.5
			C5.4,88.5,5.4,81.4,5.4,81.4z M5.4,89L8,86.5l0,0l11.2-11.2v7.1L11.6,90L8,93.6l0,0l-2.6,2.6C5.4,96.2,5.4,89,5.4,89z M5.4,96.7
			L8,94.1l0,0l4.1-4.1l0,0l7.1-7.1v7.1L8,101.3l0,0l-2.6,2.6V96.7z M5.4,104.4l2.6-2.6l0,0l11.2-11.2v7.1L8,108.9l-2.6,2.6
			C5.4,111.5,5.4,104.4,5.4,104.4z M5.4,117.7V112l2.6-2.6l11.2-11.2v7.1L8,116.6l-2.5,2.5C5.5,118.6,5.4,118.1,5.4,117.7z
			 M5.5,119.6l2.5-2.5l11.2-11.2v7.1L8,124.2L6.2,126C5.8,123.9,5.6,121.8,5.5,119.6z M6.3,126.5l1.7-1.7l11.2-11.2v0.2
			c0,1.2,0.8,2.2,1.9,2.5l2,0.5L8,131.9l-0.3,0.3C7.1,130.3,6.6,128.4,6.3,126.5z M7.8,132.6l0.2-0.2l15.6-15.6l5.7,1.4L9.8,137.8
			C9,136.1,8.4,134.4,7.8,132.6z M10,138.1l19.7-19.7l5.7,1.4l-22.9,22.9C11.5,141.2,10.7,139.7,10,138.1z M13,143.6
			c-0.1-0.2-0.2-0.4-0.3-0.5L35.7,120l5.7,1.4l-25.9,25.9C14.7,146.1,13.8,144.9,13,143.6z M15.8,147.6l26-26l5.7,1.4l-28.4,28.4
			C17.9,150.2,16.9,148.9,15.8,147.6z M19.4,151.7L48,123.1l5.7,1.4l-30.5,30.5C21.8,154,20.6,152.9,19.4,151.7z M23.4,155.3
			l30.6-30.6l5.7,1.4l-32.2,32.2C26.1,157.4,24.7,156.4,23.4,155.3z M27.8,158.5l32.3-32.3l5.7,1.4l-10.5,10.5
			c-0.6-0.1-1.2-0.3-1.6-0.4c-0.3-0.1-0.6-0.1-0.8-0.1c-1.1,0-2.1,0.5-2.9,1.3c-0.9,1-1.2,2.5-0.8,3.8c0.1,0.3,0.2,0.7,0.4,1.1
			l-17.2,17.2C30.8,160.3,29.3,159.5,27.8,158.5z M33.2,161.5c-0.2-0.1-0.3-0.2-0.4-0.2l17-17c0.5,1.4,1.2,3.2,1.9,5.2l-14.1,14.1
			L33.2,161.5z M37.9,163.8l13.9-13.9c0.6,1.6,1.4,3.3,2.1,5l-11.2,11.1L37.9,163.8z M43.1,166.2l10.9-10.9c0.8,1.7,1.6,3.3,2.4,4.7
			l-8.5,8.5L43.1,166.2z M48.3,168.7l8.3-8.3c0.9,1.5,1.8,2.8,2.7,3.6c0.1,0.1,0.3,0.2,0.5,0.4l-6.7,6.7L48.3,168.7z M53.5,171.2
			l6.6-6.6c1.3,0.9,3.1,1.6,5,2.1l-6.8,6.8L53.5,171.2z M58.7,173.6l6.9-6.9c2,0.5,4.2,0.8,6.1,1l-8.2,8.2L58.7,173.6z M63.9,176.1
			l8.3-8.3c2.5,0.2,4.7,0.3,5.9,0.3c0.4,0,0.8-0.1,1.2-0.2l-10.5,10.5L63.9,176.1z M69.1,178.5l10.7-10.7l3.6,3.5l-9.5,9.5
			L69.1,178.5z M84,185.5l-4.4-2.1l1.5-1.5h0L84,179V185.5z M84,178.5l-3.4,3.4l0,0l-1.4,1.4l-4.8-2.3l9.4-9.4l0.2,0.2L84,178.5
			L84,178.5z M84,166.9l-1.7-1.4l1.7-1.7V166.9z M84,163.2l-2,2l-0.2-0.1c0.1-0.4,0.1-0.8,0.1-1.3c-0.1-1-0.3-2.8-0.7-4.9l2.8-2.8
			L84,163.2L84,163.2z M84,155.5l-2.9,2.9c-0.3-1.8-0.8-3.8-1.4-5.7l4.3-4.3V155.5z M84,147.9l-4.4,4.4c-0.6-1.8-1.3-3.5-2.2-4.9
			l6.7-6.7V147.9z M84,140.2l-6.9,6.9c-0.4-0.6-0.8-1.1-1.3-1.5c-0.6-0.6-1.6-1.1-2.7-1.7L84,133.1L84,140.2L84,140.2z M84,132.5
			l-11.2,11.2c-1.5-0.7-3.2-1.4-5.1-2l10.8-10.8l5.5,1.4L84,132.5L84,132.5z M84,47.2V126l-46.2-25.6V21.2L84,46.7L84,47.2L84,47.2z
			 M86.5,42.3L84.1,41l15.8-15.8l19.5-19.5h7.1L99.9,32.3L94.2,38L86.5,42.3z M89.1,185.5v-4l10.8-10.8l9.6-9.6
			c4.3-0.3,7.1-1,8.8-1.7l-18.4,18.4l-4.1,4.1h0l-0.8,0.8L89.1,185.5z M160.1,143.6c-4.9,7.8-11.9,14-20.2,17.9l-0.1,0.1l23.2-23.2
			C162.1,140.2,161.1,141.9,160.1,143.6z M163.4,137.3l-24.7,24.7l-13.5,6.4l41.5-41.5C166,130.5,164.9,134,163.4,137.3z
			 M166.8,126.3l-42.6,42.6l-13.5,6.4l56.9-56.9C167.5,121.1,167.2,123.7,166.8,126.3z M167.6,117.7c0,0.1,0,0.1,0,0.2l-58,58
			l-13.5,6.4l0.3-0.3l0,0l3.5-3.5v0l19.3-19.3c0.9-0.5,1.5-0.9,1.8-1.1c1.2-0.9,2.5-2.6,3.9-4.6l42.6-42.6L167.6,117.7L167.6,117.7z
			 M167.6,110.2L126,151.8c2.9-4.6,5.8-10.6,7.7-14.8l33.9-33.9V110.2z M167.6,102.5L134.1,136c0.8-1.8,1.4-3.2,1.7-3.9
			c0.5-1.3,0.4-2.7-0.5-3.8c-0.1-0.1-0.2-0.2-0.3-0.3l9.9-9.9l7-1.8c1.1-0.3,1.9-1.3,1.9-2.5v-4.6l13.8-13.8L167.6,102.5
			L167.6,102.5z M167.6,94.9l-13.8,13.8v-7.1L165.3,90l0,0l2.2-2.2L167.6,94.9L167.6,94.9z M167.6,87.2l-2.8,2.8h0l-11,11v-7.1
			l3.8-3.8l0,0l9.9-9.9L167.6,87.2L167.6,87.2z M167.6,79.5L157.1,90h0l-3.3,3.3v-7.1l13.8-13.8V79.5z M167.6,71.9l-13.8,13.8v-7.1
			l13.8-13.8V71.9z M167.6,64.2L153.8,78v-7.1l13.8-13.8V64.2z M167.6,56.6l-13.8,13.8v-7.1l13.8-13.8V56.6z M167.6,48.9l-13.8,13.8
			v-7.1l13.8-13.8V48.9z M167.6,41.2L153.8,55v-7.1l13.8-13.8V41.2z M167.6,33.6l-13.8,13.8v-7.1l13.8-13.8V33.6z M167.6,25.9
			l-13.8,13.8v-7.1l13.8-13.8V25.9z M167.6,18.3L153.8,32v-3.4c0-0.8-0.4-1.5-1-2c-0.1-0.1-0.3-0.2-0.5-0.3l15.2-15.2L167.6,18.3
			L167.6,18.3z M167.6,10.6L152,26.2c-0.4-0.1-0.9-0.1-1.3,0l-7.7,2l22.4-22.4h2.2V10.6z"/>
	</g>
</g>
</svg>
